<?xml version="1.0" encoding="utf-8"?>
<!-- Generator: Adobe Illustrator 28.2.0, SVG Export Plug-In . SVG Version: 6.00 Build 0)  -->
<svg version="1.1" id="Layer_1" xmlns="http://www.w3.org/2000/svg" xmlns:xlink="http://www.w3.org/1999/xlink" x="0px" y="0px"
	 viewBox="0 0 69.12 63.18" style="enable-background:new 0 0 69.12 63.18;" xml:space="preserve">
<style type="text/css">
	.st0{fill:#080D19;}
	.st1{fill:#8288AA;}
	.st2{fill:#BFDDFF;}
	.st3{fill:#2028FF;}
</style>
<rect x="176.41" y="-12.73" class="st0" width="110" height="110"/>
<g>
	<g>
		<path class="st1" d="M16.57,8.43c-1.06-1.79-2.95-2.93-5.09-2.93c-3.3,0-5.98,2.68-5.98,5.98c0,2.64,1.7,4.86,4.13,5.64
			c0.55-1.85,1.29-3.36,2.24-4.64C13.13,10.77,14.76,9.43,16.57,8.43z"/>
		<path class="st2" d="M41.74,10.35l-1.67,0.49c-3.64,1.07-7.48,1.06-11.12-0.01l-1.52-0.45c-1.15-0.34-2.32-0.5-3.47-0.5
			c-3.68,0-7.19,1.66-9.38,4.62c-1.42,1.92-2.88,5.21-2.88,15.11v2.54c0,21.47,8.03,25.54,22.85,25.54
			c14.83,0,22.87-4.07,22.87-25.54v-2.56c0-10.79-1.74-13.77-3.38-15.73C51.15,10.39,46.32,9.01,41.74,10.35z M34.56,38.43
			c2.66,0.05,3.74,0.33,3.81,1.37c-0.07,1.04-1.15,2.42-3.81,2.47c-2.66-0.05-3.74-1.43-3.81-2.47
			C30.82,38.76,31.9,38.47,34.56,38.43z M44.95,26.1c-0.49,0-0.96-0.06-1.4-0.14v16.81c0,4.71-2.44,7.09-7.26,7.09h-1.72h-1.72
			c-4.82,0-7.26-2.39-7.26-7.09V25.96c-0.45,0.08-0.91,0.14-1.4,0.14c-2.65,0-4.62-1.18-4.62-2.84c0-1.67,1.96-2.84,4.62-2.84
			c0.33,0,0.65,0.02,0.98,0.06c0.99,0.12,2,0.42,2.8,1.03c0.75,0.57,1.12,1.39,1.12,2.33v18.94c0,2.78,0.84,3.59,3.76,3.59h1.72
			h1.72c2.91,0,3.76-0.81,3.76-3.59V23.83c0-0.94,0.37-1.76,1.12-2.33c0.8-0.6,1.82-0.91,2.8-1.03c0.32-0.04,0.65-0.06,0.98-0.06
			c2.65,0,4.62,1.18,4.62,2.84C49.56,24.92,47.6,26.1,44.95,26.1z"/>
		<path class="st1" d="M57.64,5.5c-2.11,0-4,1.12-5.06,2.89c1.52,0.85,2.91,1.93,4.06,3.3c1.18,1.41,2.15,3.04,2.86,5.43
			c2.42-0.78,4.12-2.99,4.12-5.63C63.62,8.19,60.94,5.5,57.64,5.5z"/>
	</g>
	<path class="st3" d="M57.64,2c5.23,0,9.48,4.25,9.48,9.48c0,4.13-2.77,7.83-6.76,9.04c0.38,2.46,0.56,5.43,0.56,9.06v2.56
		c0,24.18-10.09,29.04-26.38,29.04c-16.27,0-26.35-4.86-26.35-29.04V29.6c0-3.6,0.19-6.57,0.57-9.07C4.72,19.35,2,15.73,2,11.48
		C2,6.25,6.25,2,11.48,2c3.48,0,6.64,1.9,8.29,4.98c1.4-0.39,2.83-0.59,4.27-0.59c0,0,0,0,0,0c1.49,0,2.96,0.21,4.38,0.63l1.52,0.45
		c1.49,0.44,3.04,0.66,4.59,0.66c1.53,0,3.07-0.22,4.55-0.65l1.67-0.49c1.46-0.43,2.98-0.64,4.48-0.64c1.41,0,2.8,0.19,4.15,0.56
		C51.05,3.88,54.2,2,57.64,2 M57.64,0C54,0,50.61,1.75,48.47,4.64c-1.06-0.2-2.14-0.3-3.23-0.3c-1.71,0-3.41,0.24-5.05,0.72
		l-1.67,0.49c-1.29,0.38-2.63,0.57-3.99,0.57c-1.36,0-2.72-0.19-4.02-0.58L28.99,5.1c-1.6-0.47-3.27-0.71-4.94-0.71
		c-1.12,0-2.24,0.11-3.34,0.32C18.57,1.77,15.16,0,11.48,0C5.15,0,0,5.15,0,11.48C0,16.02,2.58,20,6.58,21.84
		C6.32,24.08,6.2,26.63,6.2,29.6v2.54c0,25.76,11.33,31.04,28.35,31.04c17.03,0,28.38-5.28,28.38-31.04v-2.56
		c0-2.99-0.12-5.55-0.37-7.77c3.94-1.88,6.57-5.91,6.57-10.33C69.12,5.15,63.97,0,57.64,0L57.64,0z"/>
</g>
</svg>
