<?xml version="1.0" encoding="utf-8"?>
<!-- Generator: Adobe Illustrator 24.3.0, SVG Export Plug-In . SVG Version: 6.00 Build 0)  -->
<svg version="1.1" id="Layer_1" xmlns="http://www.w3.org/2000/svg" xmlns:xlink="http://www.w3.org/1999/xlink" x="0px" y="0px"
	 viewBox="0 0 1782.8 616.4" style="enable-background:new 0 0 1782.8 616.4;" xml:space="preserve">
<style type="text/css">
	.st0{fill:#B2B6CC;}
	.st1{fill:#9397FF;}
	.st2{fill:#222842;fill-opacity:0.5;}
	.st3{fill:#222842;}
	.st4{fill:#4E54FD;}
</style>
<g>
	<path class="st0" d="M10,139.6c-0.5,0-1.1,0-1.6-0.1c-0.5-0.1-1-0.2-1.5-0.3c-0.5-0.2-0.9-0.4-1.3-0.6c-0.2-0.1-0.4-0.3-0.5-0.5
		s-0.1-0.4-0.1-0.6c0-0.2,0.1-0.4,0.2-0.5c0.1-0.2,0.3-0.3,0.5-0.3c0.2,0,0.4,0,0.6,0.2c0.5,0.3,1.1,0.5,1.7,0.7
		c0.6,0.1,1.2,0.2,1.9,0.2c0.9,0,1.6-0.2,2.1-0.5c0.4-0.3,0.6-0.7,0.6-1.2c0-0.4-0.2-0.8-0.5-1c-0.3-0.2-0.8-0.4-1.6-0.6l-2-0.4
		c-1.1-0.2-2-0.6-2.6-1.2c-0.6-0.6-0.8-1.3-0.8-2.3c0-0.6,0.1-1.1,0.4-1.6c0.2-0.5,0.6-0.9,1-1.2c0.4-0.3,1-0.6,1.6-0.8
		c0.6-0.2,1.3-0.3,2-0.3c0.7,0,1.4,0.1,2.1,0.3c0.6,0.2,1.2,0.4,1.7,0.8c0.2,0.1,0.3,0.3,0.4,0.5c0.1,0.2,0.1,0.4,0.1,0.6
		c0,0.2-0.1,0.3-0.3,0.5c-0.1,0.1-0.3,0.2-0.5,0.2c-0.2,0-0.4,0-0.7-0.2c-0.4-0.3-0.9-0.4-1.3-0.5c-0.5-0.1-0.9-0.2-1.5-0.2
		c-0.6,0-1,0.1-1.4,0.2c-0.4,0.2-0.7,0.4-0.9,0.7c-0.2,0.3-0.3,0.6-0.3,1c0,0.4,0.1,0.8,0.4,1c0.3,0.3,0.8,0.5,1.5,0.6l2,0.4
		c1.2,0.3,2.1,0.6,2.6,1.2c0.6,0.5,0.9,1.3,0.9,2.2c0,0.6-0.1,1.1-0.4,1.6c-0.2,0.5-0.6,0.9-1,1.2c-0.4,0.3-1,0.6-1.6,0.8
		S10.8,139.6,10,139.6z M19.7,139.6c-0.6,0-1.2-0.1-1.7-0.4c-0.5-0.3-0.9-0.6-1.2-1c-0.3-0.4-0.4-0.9-0.4-1.4c0-0.6,0.2-1.2,0.5-1.5
		c0.3-0.4,0.9-0.7,1.6-0.8c0.8-0.2,1.8-0.3,3-0.3h0.9v1.3h-0.9c-0.7,0-1.3,0-1.8,0.1c-0.4,0.1-0.8,0.2-1,0.4
		c-0.2,0.2-0.3,0.4-0.3,0.7c0,0.4,0.1,0.7,0.4,1c0.3,0.3,0.7,0.4,1.2,0.4c0.4,0,0.7-0.1,1-0.3c0.3-0.2,0.6-0.4,0.7-0.8
		s0.3-0.7,0.3-1.1v-2.1c0-0.6-0.1-1-0.4-1.3c-0.3-0.3-0.7-0.4-1.3-0.4c-0.3,0-0.7,0-1.1,0.1c-0.4,0.1-0.8,0.2-1.3,0.4
		c-0.2,0.1-0.4,0.1-0.6,0.1c-0.2,0-0.3-0.1-0.4-0.3c-0.1-0.2-0.1-0.3-0.1-0.5s0-0.4,0.1-0.5c0.1-0.2,0.3-0.3,0.5-0.4
		c0.6-0.2,1.1-0.4,1.6-0.5c0.5-0.1,1-0.1,1.4-0.1c0.9,0,1.6,0.1,2.1,0.4c0.6,0.3,1,0.7,1.3,1.2c0.3,0.5,0.4,1.2,0.4,2.1v4.3
		c0,0.4-0.1,0.7-0.3,0.9c-0.2,0.2-0.4,0.3-0.8,0.3s-0.6-0.1-0.8-0.3c-0.2-0.2-0.3-0.5-0.3-0.9v-0.9h0.1c-0.1,0.4-0.3,0.8-0.5,1.1
		c-0.2,0.3-0.5,0.5-0.9,0.7S20.1,139.6,19.7,139.6z M30,139.6c-0.8,0-1.4-0.2-2-0.6c-0.6-0.4-1-0.9-1.3-1.6
		c-0.3-0.7-0.5-1.5-0.5-2.4c0-0.9,0.2-1.8,0.5-2.4c0.3-0.7,0.8-1.2,1.3-1.6c0.6-0.4,1.3-0.6,2-0.6c0.7,0,1.4,0.2,1.9,0.5
		c0.6,0.4,0.9,0.8,1.1,1.4h-0.2v-4.7c0-0.4,0.1-0.7,0.3-0.8s0.5-0.3,0.8-0.3s0.6,0.1,0.8,0.3c0.2,0.2,0.3,0.5,0.3,0.8v10.7
		c0,0.4-0.1,0.7-0.3,0.9c-0.2,0.2-0.5,0.3-0.8,0.3s-0.6-0.1-0.8-0.3c-0.2-0.2-0.3-0.5-0.3-0.9V137l0.2,0.5c-0.2,0.6-0.5,1.1-1.1,1.5
		C31.4,139.4,30.7,139.6,30,139.6z M30.6,137.8c0.4,0,0.8-0.1,1.2-0.3s0.6-0.5,0.8-1c0.2-0.4,0.3-1,0.3-1.6c0-1-0.2-1.7-0.6-2.1
		c-0.4-0.5-0.9-0.7-1.6-0.7c-0.4,0-0.8,0.1-1.2,0.3c-0.3,0.2-0.6,0.5-0.8,1c-0.2,0.4-0.3,0.9-0.3,1.6c0,0.9,0.2,1.7,0.6,2.2
		C29.4,137.6,29.9,137.8,30.6,137.8z M43.7,139.6c-1.4,0-2.6-0.3-3.6-0.8c-1-0.5-1.7-1.3-2.2-2.2c-0.5-1-0.8-2.1-0.8-3.5
		c0-1,0.1-1.9,0.4-2.7c0.3-0.8,0.7-1.5,1.3-2.1c0.6-0.6,1.2-1,2.1-1.3c0.8-0.3,1.7-0.5,2.7-0.5c0.7,0,1.3,0.1,2,0.3
		c0.7,0.2,1.3,0.4,1.9,0.8c0.2,0.1,0.3,0.3,0.4,0.5c0.1,0.2,0.1,0.4,0,0.6c0,0.2-0.1,0.4-0.3,0.5c-0.1,0.1-0.3,0.2-0.5,0.3
		c-0.2,0-0.4,0-0.6-0.1c-0.5-0.3-0.9-0.5-1.4-0.6c-0.5-0.1-1-0.2-1.6-0.2c-0.9,0-1.6,0.2-2.2,0.5c-0.6,0.3-1.1,0.9-1.4,1.5
		c-0.3,0.7-0.5,1.5-0.5,2.5c0,1.5,0.4,2.6,1.1,3.4s1.8,1.2,3.2,1.2c0.5,0,1,0,1.5-0.1c0.5-0.1,1-0.2,1.4-0.4l-0.4,1v-3.8h-2
		c-0.3,0-0.5-0.1-0.7-0.2c-0.2-0.2-0.2-0.4-0.2-0.6c0-0.3,0.1-0.5,0.2-0.6c0.2-0.1,0.4-0.2,0.7-0.2h3c0.3,0,0.5,0.1,0.7,0.3
		c0.2,0.2,0.3,0.4,0.3,0.7v4.4c0,0.3-0.1,0.5-0.2,0.7c-0.1,0.2-0.3,0.3-0.5,0.4c-0.5,0.2-1.1,0.4-1.8,0.5
		C45,139.5,44.4,139.6,43.7,139.6z M51.8,139.5c-0.4,0-0.6-0.1-0.8-0.3s-0.3-0.5-0.3-0.9v-6.6c0-0.4,0.1-0.7,0.3-0.9
		c0.2-0.2,0.5-0.3,0.8-0.3s0.6,0.1,0.8,0.3c0.2,0.2,0.3,0.5,0.3,0.9v6.6c0,0.4-0.1,0.7-0.3,0.9S52.1,139.5,51.8,139.5z M51.8,128.8
		c-0.4,0-0.8-0.1-1-0.3c-0.2-0.2-0.3-0.5-0.3-0.9c0-0.4,0.1-0.7,0.3-0.9c0.2-0.2,0.6-0.3,1-0.3c0.4,0,0.8,0.1,1,0.3
		c0.2,0.2,0.3,0.5,0.3,0.9c0,0.4-0.1,0.7-0.3,0.9C52.5,128.7,52.2,128.8,51.8,128.8z M56.4,139.5c-0.4,0-0.7-0.1-0.9-0.3
		c-0.2-0.2-0.3-0.5-0.3-0.9v-6.8c0-0.4,0.1-0.7,0.3-0.8c0.2-0.2,0.5-0.3,0.8-0.3c0.3,0,0.6,0.1,0.8,0.3c0.2,0.2,0.3,0.5,0.3,0.8v1.1
		h-0.2c0.2-0.7,0.5-1.3,1-1.6c0.5-0.4,1.1-0.6,2-0.7c0.3,0,0.4,0,0.6,0.2c0.2,0.1,0.2,0.4,0.3,0.7c0,0.3,0,0.5-0.2,0.7
		c-0.2,0.2-0.4,0.3-0.7,0.3l-0.4,0c-0.7,0.1-1.3,0.3-1.7,0.7c-0.4,0.4-0.6,0.9-0.6,1.6v3.7c0,0.4-0.1,0.7-0.3,0.9
		C57,139.4,56.8,139.5,56.4,139.5z M65.3,139.6c-1,0-1.7-0.3-2.2-0.8c-0.5-0.6-0.8-1.4-0.8-2.5v-8.5c0-0.4,0.1-0.7,0.3-0.8
		s0.5-0.3,0.8-0.3s0.6,0.1,0.8,0.3c0.2,0.2,0.3,0.5,0.3,0.8v8.4c0,0.6,0.1,1,0.3,1.2c0.2,0.3,0.6,0.4,1,0.4c0.1,0,0.2,0,0.3,0
		c0.1,0,0.2,0,0.3,0c0.2,0,0.3,0,0.3,0.1c0.1,0.1,0.1,0.3,0.1,0.7c0,0.3-0.1,0.5-0.2,0.7c-0.1,0.2-0.3,0.3-0.6,0.3
		c-0.1,0-0.2,0-0.4,0C65.6,139.5,65.4,139.6,65.3,139.6z M74.4,139.4c-0.4,0-0.7-0.1-0.9-0.3c-0.2-0.2-0.3-0.5-0.3-0.9v-10.2
		c0-0.4,0.1-0.7,0.3-0.9c0.2-0.2,0.5-0.3,0.9-0.3h4.3c0.9,0,1.6,0.1,2.3,0.4c0.6,0.3,1.1,0.6,1.4,1.1c0.3,0.5,0.5,1.1,0.5,1.8
		c0,0.8-0.2,1.4-0.7,1.9c-0.4,0.5-1.1,0.9-1.8,1.1v-0.3c0.9,0.1,1.6,0.5,2.1,1c0.5,0.5,0.7,1.2,0.7,2.1c0,1.1-0.4,2-1.2,2.6
		c-0.8,0.6-1.8,0.9-3.2,0.9H74.4z M75.3,137.6h3.2c0.8,0,1.4-0.2,1.8-0.5c0.4-0.3,0.6-0.8,0.6-1.4c0-0.6-0.2-1.1-0.6-1.4
		s-1-0.5-1.8-0.5h-3.2V137.6z M75.3,132.1h2.9c0.8,0,1.4-0.1,1.8-0.5c0.4-0.3,0.6-0.8,0.6-1.4c0-0.6-0.2-1-0.6-1.3
		c-0.4-0.3-1-0.5-1.8-0.5h-2.9V132.1z M88.2,139.6c-0.6,0-1.2-0.1-1.7-0.4c-0.5-0.3-0.9-0.6-1.2-1c-0.3-0.4-0.4-0.9-0.4-1.4
		c0-0.6,0.2-1.2,0.5-1.5c0.3-0.4,0.9-0.7,1.6-0.8c0.8-0.2,1.8-0.3,3-0.3H91v1.3h-0.9c-0.7,0-1.3,0-1.8,0.1c-0.4,0.1-0.8,0.2-1,0.4
		c-0.2,0.2-0.3,0.4-0.3,0.7c0,0.4,0.1,0.7,0.4,1c0.3,0.3,0.7,0.4,1.2,0.4c0.4,0,0.7-0.1,1-0.3c0.3-0.2,0.6-0.4,0.7-0.8
		c0.2-0.3,0.3-0.7,0.3-1.1v-2.1c0-0.6-0.1-1-0.4-1.3c-0.3-0.3-0.7-0.4-1.3-0.4c-0.3,0-0.7,0-1.1,0.1c-0.4,0.1-0.8,0.2-1.3,0.4
		c-0.2,0.1-0.4,0.1-0.6,0.1c-0.2,0-0.3-0.1-0.4-0.3c-0.1-0.2-0.1-0.3-0.1-0.5s0-0.4,0.1-0.5c0.1-0.2,0.3-0.3,0.5-0.4
		c0.6-0.2,1.1-0.4,1.6-0.5c0.5-0.1,1-0.1,1.4-0.1c0.9,0,1.6,0.1,2.1,0.4c0.6,0.3,1,0.7,1.3,1.2c0.3,0.5,0.4,1.2,0.4,2.1v4.3
		c0,0.4-0.1,0.7-0.3,0.9c-0.2,0.2-0.4,0.3-0.8,0.3s-0.6-0.1-0.8-0.3c-0.2-0.2-0.3-0.5-0.3-0.9v-0.9h0.1c-0.1,0.4-0.3,0.8-0.5,1.1
		c-0.2,0.3-0.5,0.5-0.9,0.7C89.1,139.5,88.7,139.6,88.2,139.6z M96.3,139.5c-0.4,0-0.6-0.1-0.8-0.3c-0.2-0.2-0.3-0.5-0.3-0.9v-6.8
		c0-0.4,0.1-0.7,0.3-0.8c0.2-0.2,0.5-0.3,0.8-0.3c0.3,0,0.6,0.1,0.8,0.3c0.2,0.2,0.3,0.5,0.3,0.8v1.2l-0.2-0.5
		c0.3-0.6,0.7-1.1,1.2-1.4c0.6-0.3,1.2-0.5,1.9-0.5c0.7,0,1.3,0.1,1.7,0.4c0.5,0.3,0.8,0.7,1,1.2c0.2,0.5,0.3,1.2,0.3,2v4.4
		c0,0.4-0.1,0.7-0.3,0.9c-0.2,0.2-0.5,0.3-0.8,0.3c-0.4,0-0.6-0.1-0.8-0.3c-0.2-0.2-0.3-0.5-0.3-0.9v-4.2c0-0.7-0.1-1.2-0.4-1.5
		c-0.3-0.3-0.6-0.5-1.2-0.5c-0.7,0-1.2,0.2-1.6,0.6c-0.4,0.4-0.6,1-0.6,1.6v3.9C97.4,139.1,97,139.5,96.3,139.5z M109.1,139.6
		c-0.8,0-1.4-0.2-2-0.6c-0.6-0.4-1-0.9-1.4-1.6c-0.3-0.7-0.5-1.5-0.5-2.4c0-0.9,0.2-1.8,0.5-2.4c0.3-0.7,0.8-1.2,1.4-1.6
		c0.6-0.4,1.3-0.6,2-0.6c0.7,0,1.4,0.2,1.9,0.5c0.6,0.4,0.9,0.8,1.1,1.4h-0.2v-4.7c0-0.4,0.1-0.7,0.3-0.8s0.5-0.3,0.8-0.3
		s0.6,0.1,0.8,0.3c0.2,0.2,0.3,0.5,0.3,0.8v10.7c0,0.4-0.1,0.7-0.3,0.9c-0.2,0.2-0.5,0.3-0.8,0.3s-0.6-0.1-0.8-0.3
		c-0.2-0.2-0.3-0.5-0.3-0.9V137l0.2,0.5c-0.2,0.6-0.5,1.1-1.1,1.5S109.8,139.6,109.1,139.6z M109.7,137.8c0.4,0,0.8-0.1,1.2-0.3
		s0.6-0.5,0.8-1c0.2-0.4,0.3-1,0.3-1.6c0-1-0.2-1.7-0.6-2.1c-0.4-0.5-0.9-0.7-1.6-0.7c-0.4,0-0.8,0.1-1.2,0.3
		c-0.3,0.2-0.6,0.5-0.8,1c-0.2,0.4-0.3,0.9-0.3,1.6c0,0.9,0.2,1.7,0.6,2.2C108.5,137.6,109,137.8,109.7,137.8z"/>
	<path class="st0" d="M5.1,288.5c-0.3,0-0.6-0.1-0.8-0.2c-0.2-0.2-0.3-0.4-0.5-0.7l-3.8-10.6c-0.1-0.4-0.1-0.7,0.1-1
		c0.2-0.3,0.5-0.4,1-0.4c0.3,0,0.6,0.1,0.8,0.2c0.2,0.1,0.3,0.4,0.4,0.7l3.2,9.6H4.8l3.4-9.6c0.1-0.3,0.3-0.6,0.5-0.7
		s0.4-0.2,0.7-0.2c0.3,0,0.5,0.1,0.7,0.2s0.3,0.4,0.4,0.7l3.3,9.6h-0.6l3.3-9.6c0.1-0.3,0.3-0.5,0.4-0.7s0.4-0.2,0.7-0.2
		c0.4,0,0.7,0.1,0.8,0.4c0.2,0.3,0.2,0.6,0.1,1l-3.8,10.7c-0.1,0.3-0.3,0.6-0.5,0.7c-0.2,0.2-0.4,0.2-0.8,0.2
		c-0.3,0-0.6-0.1-0.8-0.2s-0.3-0.4-0.5-0.7l-3.1-8.9h0.4l-3.2,8.9c-0.1,0.3-0.3,0.6-0.5,0.7C5.7,288.4,5.4,288.5,5.1,288.5z
		 M22.5,288.5c-0.4,0-0.6-0.1-0.8-0.3c-0.2-0.2-0.3-0.5-0.3-0.9v-10.7c0-0.4,0.1-0.7,0.3-0.8c0.2-0.2,0.5-0.3,0.8-0.3
		s0.6,0.1,0.8,0.3c0.2,0.2,0.3,0.5,0.3,0.8v4.7h-0.3c0.3-0.6,0.7-1.1,1.2-1.4c0.6-0.3,1.2-0.5,1.9-0.5s1.3,0.1,1.7,0.4
		s0.8,0.7,1,1.2c0.2,0.5,0.3,1.2,0.3,2v4.4c0,0.4-0.1,0.7-0.3,0.9c-0.2,0.2-0.5,0.3-0.8,0.3s-0.6-0.1-0.8-0.3
		c-0.2-0.2-0.3-0.5-0.3-0.9v-4.2c0-0.7-0.1-1.2-0.4-1.5c-0.3-0.3-0.6-0.5-1.2-0.5c-0.7,0-1.2,0.2-1.6,0.6c-0.4,0.4-0.6,1-0.6,1.6
		v3.9C23.6,288.1,23.2,288.5,22.5,288.5z M33,288.5c-0.4,0-0.6-0.1-0.8-0.3c-0.2-0.2-0.3-0.5-0.3-0.9v-6.6c0-0.4,0.1-0.7,0.3-0.9
		c0.2-0.2,0.5-0.3,0.8-0.3s0.6,0.1,0.8,0.3c0.2,0.2,0.3,0.5,0.3,0.9v6.6c0,0.4-0.1,0.7-0.3,0.9S33.4,288.5,33,288.5z M33,277.8
		c-0.4,0-0.8-0.1-1-0.3c-0.2-0.2-0.3-0.5-0.3-0.9c0-0.4,0.1-0.7,0.3-0.9c0.2-0.2,0.6-0.3,1-0.3c0.4,0,0.8,0.1,1,0.3
		c0.2,0.2,0.3,0.5,0.3,0.9c0,0.4-0.1,0.7-0.3,0.9C33.8,277.7,33.4,277.8,33,277.8z M40.5,288.6c-0.8,0-1.4-0.1-2-0.4
		c-0.5-0.3-0.9-0.6-1.2-1.2c-0.3-0.5-0.4-1.2-0.4-1.9v-3.8h-0.9c-0.3,0-0.5-0.1-0.7-0.2c-0.2-0.2-0.2-0.4-0.2-0.6
		c0-0.3,0.1-0.5,0.2-0.6c0.2-0.1,0.4-0.2,0.7-0.2H37v-1.6c0-0.4,0.1-0.7,0.3-0.8c0.2-0.2,0.5-0.3,0.8-0.3s0.6,0.1,0.8,0.3
		c0.2,0.2,0.3,0.5,0.3,0.8v1.6h1.9c0.3,0,0.5,0.1,0.7,0.2c0.2,0.1,0.2,0.4,0.2,0.6c0,0.3-0.1,0.5-0.2,0.6c-0.2,0.1-0.4,0.2-0.7,0.2
		h-1.9v3.7c0,0.6,0.1,1,0.4,1.3c0.3,0.3,0.7,0.4,1.2,0.4c0.2,0,0.4,0,0.5-0.1s0.3-0.1,0.4-0.1c0.1,0,0.3,0,0.4,0.1
		c0.1,0.1,0.1,0.3,0.1,0.6c0,0.2,0,0.5-0.1,0.6c-0.1,0.2-0.2,0.3-0.4,0.4c-0.2,0-0.4,0.1-0.6,0.1C40.9,288.5,40.7,288.6,40.5,288.6z
		 M44.5,288.5c-0.4,0-0.6-0.1-0.8-0.3c-0.2-0.2-0.3-0.5-0.3-0.9v-6.8c0-0.4,0.1-0.7,0.3-0.8c0.2-0.2,0.5-0.3,0.8-0.3
		c0.3,0,0.6,0.1,0.8,0.3c0.2,0.2,0.3,0.5,0.3,0.8v1.2l-0.2-0.4c0.3-0.6,0.7-1.1,1.2-1.4c0.6-0.3,1.2-0.5,1.9-0.5
		c0.7,0,1.3,0.1,1.7,0.4c0.5,0.3,0.8,0.7,1,1.2c0.2,0.5,0.3,1.2,0.3,2v4.4c0,0.4-0.1,0.7-0.3,0.9c-0.2,0.2-0.5,0.3-0.8,0.3
		s-0.6-0.1-0.8-0.3c-0.2-0.2-0.3-0.5-0.3-0.9v-4.2c0-0.7-0.1-1.2-0.4-1.5c-0.3-0.3-0.6-0.5-1.2-0.5c-0.7,0-1.2,0.2-1.6,0.6
		c-0.4,0.4-0.6,1-0.6,1.6v3.9C45.6,288.1,45.3,288.5,44.5,288.5z M58.3,288.6c-1,0-1.9-0.2-2.6-0.6c-0.7-0.4-1.3-0.9-1.7-1.6
		c-0.4-0.7-0.6-1.5-0.6-2.4c0-0.9,0.2-1.7,0.6-2.4c0.4-0.7,0.9-1.2,1.6-1.6c0.7-0.4,1.4-0.6,2.3-0.6c0.6,0,1.2,0.1,1.7,0.3
		c0.5,0.2,0.9,0.5,1.3,0.9c0.4,0.4,0.6,0.9,0.8,1.4c0.2,0.5,0.3,1.2,0.3,1.8c0,0.2-0.1,0.4-0.2,0.5c-0.1,0.1-0.4,0.2-0.6,0.2h-5.8
		v-1.3h5.1l-0.3,0.3c0-0.6-0.1-1-0.3-1.4c-0.2-0.4-0.4-0.7-0.7-0.8c-0.3-0.2-0.7-0.3-1.1-0.3c-0.5,0-0.9,0.1-1.3,0.4
		c-0.3,0.2-0.6,0.6-0.8,1c-0.2,0.4-0.3,0.9-0.3,1.5v0.1c0,1,0.2,1.7,0.7,2.2c0.5,0.5,1.2,0.7,2.1,0.7c0.3,0,0.7,0,1-0.1
		c0.4-0.1,0.8-0.2,1.1-0.4c0.3-0.1,0.5-0.2,0.7-0.2c0.2,0,0.3,0.1,0.4,0.2c0.1,0.1,0.2,0.3,0.2,0.4c0,0.2,0,0.3-0.1,0.5
		c-0.1,0.2-0.2,0.3-0.5,0.5c-0.4,0.3-0.9,0.5-1.5,0.6C59.2,288.5,58.7,288.6,58.3,288.6z M65.8,291.8c-0.3,0-0.5-0.1-0.6-0.2
		c-0.2-0.1-0.3-0.3-0.3-0.5c0-0.2,0-0.5,0.1-0.7l1.2-2.7v0.9l-3.3-7.6c-0.1-0.3-0.1-0.5-0.1-0.7c0-0.2,0.1-0.4,0.3-0.5
		c0.2-0.1,0.5-0.2,0.8-0.2c0.3,0,0.5,0.1,0.7,0.2c0.2,0.1,0.3,0.4,0.4,0.7l2.4,6.1h-0.5l2.5-6.1c0.1-0.3,0.3-0.6,0.5-0.7
		c0.2-0.1,0.4-0.2,0.7-0.2c0.3,0,0.5,0.1,0.6,0.2c0.2,0.1,0.3,0.3,0.3,0.5c0,0.2,0,0.5-0.1,0.7l-4.4,10c-0.2,0.3-0.3,0.6-0.5,0.7
		C66.3,291.7,66.1,291.8,65.8,291.8z M79.3,288.4c-0.4,0-0.7-0.1-0.9-0.3c-0.2-0.2-0.3-0.5-0.3-0.9v-10.2c0-0.4,0.1-0.7,0.3-0.9
		c0.2-0.2,0.5-0.3,0.9-0.3h4.3c0.9,0,1.6,0.1,2.3,0.4c0.6,0.3,1.1,0.6,1.4,1.1c0.3,0.5,0.5,1.1,0.5,1.8c0,0.8-0.2,1.4-0.7,1.9
		c-0.4,0.5-1.1,0.9-1.8,1.1v-0.3c0.9,0.1,1.6,0.5,2.1,1c0.5,0.5,0.7,1.2,0.7,2.1c0,1.1-0.4,2-1.2,2.6c-0.8,0.6-1.8,0.9-3.2,0.9H79.3
		z M80.3,286.6h3.2c0.8,0,1.4-0.2,1.8-0.5c0.4-0.3,0.6-0.8,0.6-1.4c0-0.6-0.2-1.1-0.6-1.4c-0.4-0.3-1-0.5-1.8-0.5h-3.2V286.6z
		 M80.3,281.1h2.9c0.8,0,1.4-0.1,1.8-0.4c0.4-0.3,0.6-0.8,0.6-1.4s-0.2-1-0.6-1.4c-0.4-0.3-1-0.5-1.8-0.5h-2.9V281.1z M93.2,288.6
		c-0.6,0-1.2-0.1-1.7-0.4c-0.5-0.3-0.9-0.6-1.2-1c-0.3-0.4-0.4-0.9-0.4-1.4c0-0.6,0.2-1.2,0.5-1.5c0.3-0.4,0.9-0.7,1.6-0.8
		s1.8-0.3,3-0.3H96v1.3h-0.9c-0.7,0-1.3,0-1.8,0.1c-0.4,0.1-0.8,0.2-1,0.4c-0.2,0.2-0.3,0.4-0.3,0.7c0,0.4,0.1,0.7,0.4,1
		c0.3,0.3,0.7,0.4,1.2,0.4c0.4,0,0.7-0.1,1-0.3c0.3-0.2,0.6-0.5,0.7-0.8c0.2-0.3,0.3-0.7,0.3-1.1v-2.1c0-0.6-0.1-1-0.4-1.3
		c-0.3-0.3-0.7-0.4-1.3-0.4c-0.3,0-0.7,0-1.1,0.1c-0.4,0.1-0.8,0.2-1.3,0.4c-0.2,0.1-0.4,0.1-0.6,0.1c-0.2,0-0.3-0.1-0.4-0.3
		c-0.1-0.2-0.1-0.3-0.1-0.5c0-0.2,0-0.4,0.1-0.5c0.1-0.2,0.3-0.3,0.5-0.4c0.6-0.2,1.1-0.4,1.6-0.5c0.5-0.1,1-0.1,1.4-0.1
		c0.9,0,1.6,0.1,2.1,0.4c0.6,0.3,1,0.7,1.3,1.2c0.3,0.5,0.4,1.2,0.4,2.1v4.3c0,0.4-0.1,0.7-0.3,0.9c-0.2,0.2-0.4,0.3-0.8,0.3
		s-0.6-0.1-0.8-0.3c-0.2-0.2-0.3-0.5-0.3-0.9v-0.9h0.1c-0.1,0.4-0.3,0.8-0.5,1.1c-0.2,0.3-0.5,0.5-0.9,0.7
		C94.1,288.5,93.7,288.6,93.2,288.6z M101.2,288.5c-0.4,0-0.6-0.1-0.8-0.3c-0.2-0.2-0.3-0.5-0.3-0.9v-6.8c0-0.4,0.1-0.7,0.3-0.8
		c0.2-0.2,0.5-0.3,0.8-0.3c0.3,0,0.6,0.1,0.8,0.3c0.2,0.2,0.3,0.5,0.3,0.8v1.2l-0.2-0.4c0.3-0.6,0.7-1.1,1.2-1.4
		c0.6-0.3,1.2-0.5,1.9-0.5c0.7,0,1.3,0.1,1.7,0.4c0.5,0.3,0.8,0.7,1,1.2c0.2,0.5,0.3,1.2,0.3,2v4.4c0,0.4-0.1,0.7-0.3,0.9
		c-0.2,0.2-0.5,0.3-0.8,0.3s-0.6-0.1-0.8-0.3c-0.2-0.2-0.3-0.5-0.3-0.9v-4.2c0-0.7-0.1-1.2-0.4-1.5c-0.3-0.3-0.6-0.5-1.2-0.5
		c-0.7,0-1.2,0.2-1.6,0.6c-0.4,0.4-0.6,1-0.6,1.6v3.9C102.4,288.1,102,288.5,101.2,288.5z M114,288.6c-0.8,0-1.4-0.2-2-0.6
		c-0.6-0.4-1-0.9-1.4-1.6c-0.3-0.7-0.5-1.5-0.5-2.4c0-0.9,0.2-1.8,0.5-2.4c0.3-0.7,0.8-1.2,1.4-1.6c0.6-0.4,1.3-0.6,2-0.6
		c0.7,0,1.4,0.2,1.9,0.5c0.6,0.4,0.9,0.8,1.1,1.4h-0.2v-4.7c0-0.4,0.1-0.7,0.3-0.8c0.2-0.2,0.5-0.3,0.8-0.3s0.6,0.1,0.8,0.3
		c0.2,0.2,0.3,0.5,0.3,0.8v10.7c0,0.4-0.1,0.7-0.3,0.9c-0.2,0.2-0.5,0.3-0.8,0.3s-0.6-0.1-0.8-0.3c-0.2-0.2-0.3-0.5-0.3-0.9V286
		l0.2,0.5c-0.2,0.6-0.5,1.1-1.1,1.5C115.4,288.4,114.8,288.6,114,288.6z M114.7,286.8c0.4,0,0.8-0.1,1.2-0.3s0.6-0.5,0.8-1
		c0.2-0.4,0.3-1,0.3-1.6c0-1-0.2-1.7-0.6-2.1c-0.4-0.5-0.9-0.7-1.6-0.7c-0.4,0-0.8,0.1-1.2,0.3c-0.3,0.2-0.6,0.5-0.8,1
		c-0.2,0.4-0.3,0.9-0.3,1.6c0,0.9,0.2,1.7,0.6,2.2C113.5,286.6,114,286.8,114.7,286.8z"/>
	<path class="st0" d="M46.5,436.6c-1.3,0-2.5-0.3-3.4-0.8c-0.9-0.5-1.7-1.3-2.2-2.3c-0.5-1-0.8-2.1-0.8-3.5c0-1,0.1-1.9,0.4-2.7
		c0.3-0.8,0.7-1.5,1.2-2.1c0.5-0.6,1.2-1,2-1.3c0.8-0.3,1.7-0.5,2.7-0.5c0.7,0,1.3,0.1,1.9,0.3s1.2,0.4,1.7,0.7
		c0.3,0.2,0.4,0.3,0.5,0.6c0.1,0.2,0.1,0.4,0.1,0.6c0,0.2-0.2,0.4-0.3,0.5c-0.1,0.1-0.3,0.2-0.6,0.3c-0.2,0-0.5-0.1-0.7-0.2
		c-0.4-0.2-0.8-0.4-1.2-0.5c-0.4-0.1-0.9-0.2-1.3-0.2c-0.9,0-1.6,0.2-2.2,0.5c-0.6,0.3-1,0.9-1.3,1.5s-0.4,1.5-0.4,2.4
		c0,0.9,0.1,1.8,0.4,2.4s0.7,1.2,1.3,1.5c0.6,0.3,1.3,0.5,2.2,0.5c0.5,0,0.9-0.1,1.4-0.2c0.4-0.1,0.9-0.3,1.3-0.5
		c0.3-0.2,0.5-0.2,0.7-0.2c0.2,0,0.4,0.1,0.5,0.2c0.1,0.1,0.2,0.3,0.3,0.5c0,0.2,0,0.4,0,0.6c-0.1,0.2-0.2,0.4-0.4,0.5
		c-0.5,0.3-1.1,0.6-1.7,0.8C47.9,436.5,47.2,436.6,46.5,436.6z M55.6,436.6c-0.7,0-1.3-0.1-1.8-0.4c-0.5-0.3-0.8-0.7-1.1-1.2
		c-0.2-0.5-0.3-1.2-0.3-2v-4.4c0-0.4,0.1-0.7,0.3-0.8c0.2-0.2,0.5-0.3,0.8-0.3c0.4,0,0.6,0.1,0.8,0.3c0.2,0.2,0.3,0.5,0.3,0.8v4.4
		c0,0.6,0.1,1.1,0.4,1.4c0.3,0.3,0.7,0.4,1.2,0.4c0.6,0,1.1-0.2,1.5-0.6c0.4-0.4,0.6-1,0.6-1.7v-4c0-0.4,0.1-0.7,0.3-0.8
		c0.2-0.2,0.5-0.3,0.8-0.3s0.6,0.1,0.8,0.3c0.2,0.2,0.3,0.5,0.3,0.8v6.8c0,0.8-0.4,1.2-1.1,1.2c-0.3,0-0.6-0.1-0.8-0.3
		c-0.2-0.2-0.3-0.5-0.3-0.9V434l0.3,0.5c-0.3,0.6-0.6,1.1-1.2,1.5C56.9,436.4,56.3,436.6,55.6,436.6z M66.9,436.6
		c-0.9,0-1.7-0.2-2.4-0.6c-0.7-0.4-1.2-0.9-1.6-1.6c-0.4-0.7-0.6-1.5-0.6-2.4c0-0.7,0.1-1.3,0.3-1.9c0.2-0.6,0.5-1,0.9-1.4
		c0.4-0.4,0.9-0.7,1.4-0.9c0.6-0.2,1.2-0.3,1.9-0.3c0.4,0,0.8,0.1,1.3,0.2c0.5,0.1,0.9,0.3,1.3,0.5c0.2,0.1,0.3,0.3,0.4,0.4
		s0.1,0.3,0,0.5c0,0.2-0.1,0.3-0.2,0.4c-0.1,0.1-0.2,0.2-0.4,0.2c-0.2,0-0.4,0-0.6-0.1c-0.3-0.2-0.5-0.3-0.8-0.3
		c-0.3-0.1-0.5-0.1-0.8-0.1c-0.4,0-0.7,0.1-1,0.2c-0.3,0.1-0.6,0.3-0.8,0.5c-0.2,0.2-0.4,0.5-0.5,0.9s-0.2,0.8-0.2,1.2
		c0,0.9,0.2,1.6,0.6,2.1c0.4,0.5,1,0.8,1.8,0.8c0.3,0,0.5,0,0.8-0.1c0.3-0.1,0.6-0.2,0.8-0.3c0.2-0.1,0.4-0.1,0.5-0.1
		c0.2,0,0.3,0.1,0.4,0.3c0.1,0.1,0.2,0.3,0.2,0.5c0,0.2,0,0.3-0.1,0.5c-0.1,0.2-0.2,0.3-0.4,0.4c-0.4,0.2-0.8,0.4-1.3,0.5
		S67.3,436.6,66.9,436.6z M75.1,436.6c-0.9,0-1.7-0.2-2.4-0.6c-0.7-0.4-1.2-0.9-1.6-1.6c-0.4-0.7-0.6-1.5-0.6-2.4
		c0-0.7,0.1-1.3,0.3-1.9c0.2-0.6,0.5-1,0.9-1.4c0.4-0.4,0.9-0.7,1.4-0.9c0.6-0.2,1.2-0.3,1.9-0.3c0.9,0,1.7,0.2,2.4,0.6
		c0.7,0.4,1.2,0.9,1.6,1.6c0.4,0.7,0.6,1.5,0.6,2.4c0,0.7-0.1,1.3-0.3,1.9c-0.2,0.6-0.5,1.1-0.9,1.5c-0.4,0.4-0.9,0.7-1.4,0.9
		C76.4,436.5,75.8,436.6,75.1,436.6z M75.1,434.8c0.4,0,0.8-0.1,1.2-0.3s0.6-0.5,0.8-1c0.2-0.4,0.3-1,0.3-1.6c0-1-0.2-1.7-0.6-2.1
		c-0.4-0.5-0.9-0.7-1.6-0.7c-0.4,0-0.8,0.1-1.2,0.3c-0.3,0.2-0.6,0.5-0.8,1c-0.2,0.4-0.3,0.9-0.3,1.6c0,0.9,0.2,1.7,0.6,2.2
		C73.9,434.6,74.5,434.8,75.1,434.8z"/>
	<path class="st0" d="M8.4,585.5c-0.4,0-0.7-0.1-0.9-0.3c-0.2-0.2-0.3-0.5-0.3-0.9v-9.7H3.7c-0.3,0-0.6-0.1-0.7-0.3
		c-0.2-0.2-0.3-0.4-0.3-0.7c0-0.3,0.1-0.5,0.3-0.7c0.2-0.2,0.4-0.3,0.7-0.3H13c0.3,0,0.6,0.1,0.7,0.3c0.2,0.2,0.3,0.4,0.3,0.7
		c0,0.3-0.1,0.5-0.3,0.7c-0.2,0.2-0.4,0.3-0.7,0.3H9.5v9.7c0,0.4-0.1,0.7-0.3,0.9C9,585.4,8.7,585.5,8.4,585.5z M17.2,585.5
		c-0.4,0-0.6-0.1-0.8-0.3s-0.3-0.5-0.3-0.9v-6.6c0-0.4,0.1-0.7,0.3-0.9c0.2-0.2,0.5-0.3,0.8-0.3s0.6,0.1,0.8,0.3
		c0.2,0.2,0.3,0.5,0.3,0.9v6.6c0,0.4-0.1,0.7-0.3,0.9S17.6,585.5,17.2,585.5z M17.2,574.8c-0.4,0-0.8-0.1-1-0.3
		c-0.2-0.2-0.3-0.5-0.3-0.9c0-0.4,0.1-0.7,0.3-0.9c0.2-0.2,0.6-0.3,1-0.3c0.4,0,0.8,0.1,1,0.3c0.2,0.2,0.3,0.5,0.3,0.9
		c0,0.4-0.1,0.7-0.3,0.9C18,574.7,17.6,574.8,17.2,574.8z M24.7,585.6c-0.9,0-1.7-0.2-2.4-0.6c-0.7-0.4-1.2-0.9-1.6-1.6
		c-0.4-0.7-0.6-1.5-0.6-2.4c0-0.7,0.1-1.3,0.3-1.9c0.2-0.6,0.5-1,0.9-1.4c0.4-0.4,0.9-0.7,1.4-0.9c0.6-0.2,1.2-0.3,1.9-0.3
		c0.4,0,0.8,0.1,1.3,0.2c0.5,0.1,0.9,0.3,1.3,0.5c0.2,0.1,0.3,0.3,0.4,0.4c0.1,0.2,0.1,0.3,0,0.5c0,0.2-0.1,0.3-0.2,0.5
		c-0.1,0.1-0.2,0.2-0.4,0.2c-0.2,0-0.4,0-0.6-0.1c-0.3-0.2-0.5-0.3-0.8-0.3c-0.3-0.1-0.5-0.1-0.8-0.1c-0.4,0-0.7,0.1-1,0.2
		c-0.3,0.1-0.6,0.3-0.8,0.5c-0.2,0.2-0.4,0.5-0.5,0.9c-0.1,0.3-0.2,0.8-0.2,1.2c0,0.9,0.2,1.6,0.6,2.1c0.4,0.5,1,0.8,1.8,0.8
		c0.3,0,0.5,0,0.8-0.1c0.3-0.1,0.6-0.2,0.8-0.3c0.2-0.1,0.4-0.1,0.5-0.1c0.2,0,0.3,0.1,0.4,0.3c0.1,0.1,0.2,0.3,0.2,0.5
		c0,0.2,0,0.3-0.1,0.5c-0.1,0.2-0.2,0.3-0.4,0.4c-0.4,0.2-0.8,0.4-1.3,0.5C25.6,585.5,25.1,585.6,24.7,585.6z M30.3,585.5
		c-0.4,0-0.6-0.1-0.8-0.3c-0.2-0.2-0.3-0.5-0.3-0.9v-10.7c0-0.4,0.1-0.7,0.3-0.8c0.2-0.2,0.5-0.3,0.8-0.3s0.6,0.1,0.8,0.3
		c0.2,0.2,0.3,0.5,0.3,0.8v6.6h0l3-3.1c0.2-0.2,0.4-0.4,0.6-0.6c0.2-0.1,0.4-0.2,0.7-0.2c0.3,0,0.5,0.1,0.7,0.3
		c0.2,0.2,0.3,0.3,0.3,0.6c0,0.2-0.1,0.5-0.3,0.7l-3.1,3.3v-0.9l3.4,3.7c0.2,0.2,0.3,0.5,0.3,0.7c0,0.2-0.1,0.4-0.3,0.6
		c-0.2,0.1-0.4,0.2-0.7,0.2c-0.3,0-0.6-0.1-0.8-0.2c-0.2-0.1-0.4-0.3-0.6-0.6l-3.1-3.3h0v2.9C31.4,585.1,31,585.5,30.3,585.5z
		 M43,585.6c-1,0-1.9-0.2-2.6-0.6s-1.3-0.9-1.7-1.6c-0.4-0.7-0.6-1.5-0.6-2.4c0-0.9,0.2-1.7,0.6-2.4c0.4-0.7,0.9-1.2,1.6-1.6
		c0.7-0.4,1.4-0.6,2.3-0.6c0.6,0,1.2,0.1,1.7,0.3c0.5,0.2,0.9,0.5,1.3,0.9c0.4,0.4,0.6,0.9,0.8,1.4c0.2,0.5,0.3,1.2,0.3,1.8
		c0,0.2-0.1,0.4-0.2,0.5c-0.1,0.1-0.4,0.2-0.6,0.2H40v-1.3H45l-0.3,0.3c0-0.6-0.1-1-0.3-1.4c-0.2-0.4-0.4-0.7-0.7-0.8
		c-0.3-0.2-0.7-0.3-1.1-0.3c-0.5,0-0.9,0.1-1.3,0.4c-0.3,0.2-0.6,0.6-0.8,1c-0.2,0.4-0.3,0.9-0.3,1.5v0.1c0,1,0.2,1.7,0.7,2.2
		c0.5,0.5,1.2,0.7,2.1,0.7c0.3,0,0.7,0,1-0.1c0.4-0.1,0.8-0.2,1.1-0.4c0.3-0.1,0.5-0.2,0.7-0.2c0.2,0,0.3,0.1,0.4,0.2
		c0.1,0.1,0.2,0.3,0.2,0.5c0,0.2,0,0.3-0.1,0.5c-0.1,0.2-0.2,0.3-0.5,0.5c-0.4,0.3-0.9,0.5-1.5,0.6C44,585.5,43.4,585.6,43,585.6z
		 M52.4,585.6c-0.8,0-1.4-0.1-2-0.4c-0.5-0.3-0.9-0.6-1.2-1.2c-0.3-0.5-0.4-1.2-0.4-1.9v-3.8H48c-0.3,0-0.5-0.1-0.7-0.2
		c-0.2-0.2-0.2-0.4-0.2-0.6c0-0.3,0.1-0.5,0.2-0.6c0.2-0.1,0.4-0.2,0.7-0.2h0.9v-1.6c0-0.4,0.1-0.7,0.3-0.8c0.2-0.2,0.5-0.3,0.8-0.3
		s0.6,0.1,0.8,0.3s0.3,0.5,0.3,0.8v1.6h1.9c0.3,0,0.5,0.1,0.7,0.2s0.2,0.4,0.2,0.6c0,0.3-0.1,0.5-0.2,0.6c-0.2,0.1-0.4,0.2-0.7,0.2
		h-1.9v3.7c0,0.6,0.1,1,0.4,1.3c0.3,0.3,0.7,0.4,1.2,0.4c0.2,0,0.4,0,0.5-0.1c0.2,0,0.3-0.1,0.4-0.1c0.1,0,0.3,0,0.4,0.1
		c0.1,0.1,0.1,0.3,0.1,0.6c0,0.2,0,0.5-0.1,0.6c-0.1,0.2-0.2,0.3-0.4,0.4c-0.2,0-0.4,0.1-0.6,0.1C52.8,585.5,52.6,585.6,52.4,585.6z
		 M61.5,585.5c-0.3,0-0.6-0.1-0.8-0.3c-0.2-0.2-0.3-0.5-0.3-0.8v-10.8c0-0.3,0.1-0.6,0.3-0.8c0.2-0.2,0.5-0.3,0.8-0.3
		c0.3,0,0.5,0.1,0.7,0.2c0.2,0.1,0.3,0.3,0.5,0.6l4.4,8.2h-0.6l4.4-8.2c0.1-0.3,0.3-0.5,0.5-0.6c0.2-0.1,0.4-0.2,0.7-0.2
		c0.3,0,0.6,0.1,0.8,0.3c0.2,0.2,0.3,0.4,0.3,0.8v10.8c0,0.3-0.1,0.6-0.3,0.8c-0.2,0.2-0.4,0.3-0.8,0.3c-0.3,0-0.6-0.1-0.8-0.3
		c-0.2-0.2-0.3-0.5-0.3-0.8v-8.3h0.4l-3.8,6.9c-0.1,0.2-0.2,0.4-0.4,0.4c-0.1,0.1-0.3,0.1-0.5,0.1s-0.4,0-0.6-0.1
		c-0.1-0.1-0.3-0.3-0.4-0.4l-3.8-6.9h0.4v8.4c0,0.3-0.1,0.6-0.3,0.8C62.1,585.4,61.8,585.5,61.5,585.5z M78.7,585.6
		c-0.6,0-1.2-0.1-1.7-0.4c-0.5-0.3-0.9-0.6-1.2-1c-0.3-0.4-0.4-0.9-0.4-1.4c0-0.6,0.2-1.2,0.5-1.5c0.3-0.4,0.9-0.7,1.6-0.8
		c0.8-0.2,1.8-0.3,3-0.3h0.9v1.3h-0.9c-0.7,0-1.3,0-1.8,0.1c-0.4,0.1-0.8,0.2-1,0.4c-0.2,0.2-0.3,0.4-0.3,0.7c0,0.4,0.1,0.7,0.4,1
		c0.3,0.3,0.7,0.4,1.2,0.4c0.4,0,0.7-0.1,1-0.3c0.3-0.2,0.6-0.5,0.7-0.8c0.2-0.3,0.3-0.7,0.3-1.1v-2.1c0-0.6-0.1-1-0.4-1.3
		c-0.3-0.3-0.7-0.4-1.3-0.4c-0.3,0-0.7,0-1.1,0.1c-0.4,0.1-0.8,0.2-1.3,0.4c-0.2,0.1-0.4,0.1-0.6,0.1c-0.2,0-0.3-0.1-0.4-0.3
		c-0.1-0.2-0.1-0.3-0.1-0.5s0-0.4,0.1-0.5c0.1-0.2,0.3-0.3,0.5-0.4c0.6-0.2,1.1-0.4,1.6-0.5c0.5-0.1,1-0.1,1.4-0.1
		c0.9,0,1.6,0.1,2.1,0.4c0.6,0.3,1,0.7,1.3,1.2c0.3,0.5,0.4,1.2,0.4,2.1v4.3c0,0.4-0.1,0.7-0.3,0.9c-0.2,0.2-0.4,0.3-0.8,0.3
		s-0.6-0.1-0.8-0.3c-0.2-0.2-0.3-0.5-0.3-0.9v-0.9h0.1c-0.1,0.4-0.3,0.8-0.5,1.1c-0.2,0.3-0.5,0.5-0.9,0.7
		C79.6,585.5,79.2,585.6,78.7,585.6z M88.8,585.6c-0.5,0-1.1-0.1-1.6-0.2c-0.6-0.1-1.1-0.3-1.5-0.6c-0.2-0.1-0.3-0.3-0.4-0.4
		c-0.1-0.2-0.1-0.3-0.1-0.5c0-0.2,0.1-0.3,0.2-0.4c0.1-0.1,0.2-0.2,0.4-0.2c0.2,0,0.3,0,0.5,0.1c0.5,0.2,0.9,0.4,1.4,0.5
		c0.4,0.1,0.8,0.1,1.2,0.1c0.6,0,1-0.1,1.3-0.3c0.3-0.2,0.4-0.5,0.4-0.8c0-0.3-0.1-0.5-0.3-0.6c-0.2-0.2-0.5-0.3-0.8-0.3l-1.8-0.3
		c-0.7-0.1-1.3-0.4-1.7-0.8c-0.4-0.4-0.6-0.9-0.6-1.6c0-0.6,0.2-1.1,0.5-1.5c0.3-0.4,0.8-0.7,1.3-1c0.6-0.2,1.2-0.3,1.9-0.3
		c0.5,0,1,0.1,1.5,0.2c0.5,0.1,0.9,0.3,1.3,0.5c0.2,0.1,0.3,0.2,0.4,0.4c0.1,0.2,0.1,0.3,0.1,0.5c0,0.2-0.1,0.3-0.2,0.4
		c-0.1,0.1-0.2,0.2-0.4,0.2c-0.2,0-0.3,0-0.5-0.1c-0.4-0.2-0.7-0.3-1.1-0.4c-0.3-0.1-0.7-0.1-1-0.1c-0.6,0-1,0.1-1.3,0.3
		c-0.3,0.2-0.4,0.5-0.4,0.8c0,0.3,0.1,0.5,0.3,0.6c0.2,0.2,0.4,0.3,0.8,0.3l1.8,0.3c0.8,0.1,1.4,0.4,1.8,0.8
		c0.4,0.4,0.6,0.9,0.6,1.5c0,0.9-0.3,1.6-1,2.1C90.9,585.3,90,585.6,88.8,585.6z M98.4,585.6c-0.8,0-1.4-0.1-2-0.4
		c-0.5-0.3-0.9-0.6-1.2-1.2c-0.3-0.5-0.4-1.2-0.4-1.9v-3.8h-0.9c-0.3,0-0.5-0.1-0.7-0.2c-0.2-0.2-0.2-0.4-0.2-0.6
		c0-0.3,0.1-0.5,0.2-0.6s0.4-0.2,0.7-0.2h0.9v-1.6c0-0.4,0.1-0.7,0.3-0.8c0.2-0.2,0.5-0.3,0.8-0.3s0.6,0.1,0.8,0.3s0.3,0.5,0.3,0.8
		v1.6H99c0.3,0,0.5,0.1,0.7,0.2c0.2,0.1,0.2,0.4,0.2,0.6c0,0.3-0.1,0.5-0.2,0.6c-0.2,0.1-0.4,0.2-0.7,0.2h-1.9v3.7
		c0,0.6,0.1,1,0.4,1.3c0.3,0.3,0.7,0.4,1.2,0.4c0.2,0,0.4,0,0.5-0.1c0.2,0,0.3-0.1,0.4-0.1c0.1,0,0.3,0,0.4,0.1
		c0.1,0.1,0.1,0.3,0.1,0.6c0,0.2,0,0.5-0.1,0.6c-0.1,0.2-0.2,0.3-0.4,0.4c-0.2,0-0.4,0.1-0.6,0.1C98.8,585.5,98.6,585.6,98.4,585.6z
		 M105.5,585.6c-1,0-1.9-0.2-2.6-0.6s-1.3-0.9-1.7-1.6c-0.4-0.7-0.6-1.5-0.6-2.4c0-0.9,0.2-1.7,0.6-2.4c0.4-0.7,0.9-1.2,1.6-1.6
		c0.7-0.4,1.4-0.6,2.3-0.6c0.6,0,1.2,0.1,1.7,0.3c0.5,0.2,0.9,0.5,1.3,0.9c0.4,0.4,0.6,0.9,0.8,1.4c0.2,0.5,0.3,1.2,0.3,1.8
		c0,0.2-0.1,0.4-0.2,0.5c-0.1,0.1-0.4,0.2-0.6,0.2h-5.8v-1.3h5.1l-0.3,0.3c0-0.6-0.1-1-0.3-1.4c-0.2-0.4-0.4-0.7-0.7-0.8
		c-0.3-0.2-0.7-0.3-1.1-0.3c-0.5,0-0.9,0.1-1.3,0.4c-0.3,0.2-0.6,0.6-0.8,1c-0.2,0.4-0.3,0.9-0.3,1.5v0.1c0,1,0.2,1.7,0.7,2.2
		c0.5,0.5,1.2,0.7,2.1,0.7c0.3,0,0.7,0,1-0.1c0.4-0.1,0.8-0.2,1.1-0.4c0.3-0.1,0.5-0.2,0.7-0.2c0.2,0,0.3,0.1,0.4,0.2
		c0.1,0.1,0.2,0.3,0.2,0.5c0,0.2,0,0.3-0.1,0.5c-0.1,0.2-0.2,0.3-0.4,0.5c-0.4,0.3-0.9,0.5-1.5,0.6
		C106.5,585.5,106,585.6,105.5,585.6z M112.1,585.5c-0.4,0-0.7-0.1-0.9-0.3c-0.2-0.2-0.3-0.5-0.3-0.9v-6.8c0-0.4,0.1-0.7,0.3-0.8
		c0.2-0.2,0.5-0.3,0.8-0.3c0.3,0,0.6,0.1,0.8,0.3c0.2,0.2,0.3,0.5,0.3,0.8v1.1h-0.2c0.2-0.7,0.5-1.3,1-1.6s1.1-0.6,2-0.7
		c0.3,0,0.4,0,0.6,0.2c0.2,0.1,0.2,0.4,0.3,0.7c0,0.3,0,0.5-0.2,0.7c-0.2,0.2-0.4,0.3-0.7,0.3l-0.4,0c-0.7,0.1-1.3,0.3-1.7,0.7
		c-0.4,0.4-0.6,0.9-0.6,1.6v3.7c0,0.4-0.1,0.7-0.3,0.9C112.7,585.4,112.4,585.5,112.1,585.5z"/>
	<path class="st1" d="M192.2,26c-0.5,0-0.9-0.1-1.1-0.4c-0.3-0.3-0.4-0.6-0.4-1.1v-10c0-0.5,0.1-0.9,0.4-1.1
		c0.3-0.3,0.7-0.4,1.2-0.4c0.4,0,0.8,0.1,1,0.3c0.3,0.2,0.5,0.4,0.7,0.8l3.9,6.9h-0.6l3.9-6.9c0.2-0.4,0.4-0.6,0.7-0.8
		c0.3-0.2,0.6-0.3,1-0.3c0.5,0,0.8,0.1,1.1,0.4c0.3,0.3,0.4,0.6,0.4,1.1v10c0,0.5-0.1,0.9-0.4,1.1c-0.3,0.3-0.6,0.4-1.1,0.4
		c-0.5,0-0.9-0.1-1.1-0.4c-0.3-0.3-0.4-0.6-0.4-1.1v-6.2h0.4l-2.9,5c-0.2,0.3-0.3,0.5-0.5,0.6c-0.2,0.1-0.4,0.2-0.7,0.2
		c-0.3,0-0.5-0.1-0.7-0.2c-0.2-0.1-0.4-0.3-0.5-0.6l-2.9-5.1h0.4v6.2c0,0.5-0.1,0.9-0.4,1.1C193.1,25.9,192.7,26,192.2,26z
		 M209.7,26.1c-0.8,0-1.4-0.1-1.9-0.4c-0.5-0.3-0.9-0.7-1.1-1.3c-0.2-0.6-0.4-1.3-0.4-2.1v-3.8c0-0.5,0.1-0.9,0.4-1.2
		c0.3-0.3,0.7-0.4,1.2-0.4c0.5,0,0.9,0.1,1.2,0.4c0.3,0.3,0.4,0.7,0.4,1.2v3.9c0,0.4,0.1,0.8,0.3,1c0.2,0.2,0.5,0.3,0.8,0.3
		c0.4,0,0.8-0.2,1.1-0.5c0.3-0.3,0.4-0.7,0.4-1.2v-3.5c0-0.5,0.1-0.9,0.4-1.2c0.3-0.3,0.7-0.4,1.2-0.4c0.5,0,0.9,0.1,1.2,0.4
		c0.3,0.3,0.4,0.7,0.4,1.2v6c0,1.1-0.5,1.6-1.5,1.6c-0.5,0-0.9-0.1-1.2-0.4s-0.4-0.7-0.4-1.2v-1l0.3,0.9c-0.3,0.6-0.6,1-1.1,1.4
		C210.9,25.9,210.4,26.1,209.7,26.1z M220.7,26.1c-0.5,0-1.1,0-1.6-0.1c-0.5-0.1-1-0.2-1.5-0.4c-0.3-0.1-0.5-0.3-0.6-0.5
		c-0.1-0.2-0.2-0.4-0.2-0.6c0-0.2,0.1-0.4,0.2-0.6c0.1-0.2,0.3-0.3,0.5-0.4c0.2-0.1,0.5-0.1,0.7,0c0.5,0.2,1,0.3,1.3,0.4
		c0.4,0.1,0.8,0.1,1.2,0.1c0.4,0,0.8-0.1,1-0.2c0.2-0.1,0.3-0.3,0.3-0.5c0-0.2-0.1-0.3-0.2-0.4c-0.1-0.1-0.3-0.2-0.5-0.2l-2-0.3
		c-0.7-0.1-1.3-0.4-1.7-0.8c-0.4-0.4-0.6-1-0.6-1.6c0-0.6,0.2-1.2,0.5-1.6c0.4-0.5,0.8-0.8,1.5-1c0.6-0.3,1.3-0.4,2.1-0.4
		c0.5,0,1,0,1.5,0.1c0.4,0.1,0.9,0.2,1.3,0.4c0.3,0.1,0.4,0.3,0.6,0.5c0.1,0.2,0.2,0.4,0.1,0.6c0,0.2-0.1,0.4-0.2,0.6
		c-0.1,0.2-0.3,0.3-0.5,0.4c-0.2,0.1-0.5,0-0.8-0.1c-0.4-0.2-0.8-0.3-1.1-0.3c-0.3-0.1-0.6-0.1-0.8-0.1c-0.5,0-0.8,0.1-1,0.2
		c-0.2,0.1-0.3,0.3-0.3,0.5c0,0.2,0.1,0.3,0.2,0.4c0.1,0.1,0.3,0.2,0.5,0.2l2,0.3c0.8,0.1,1.4,0.4,1.8,0.8c0.4,0.4,0.6,0.9,0.6,1.6
		c0,1-0.4,1.7-1.1,2.3C223,25.8,222,26.1,220.7,26.1z M227.7,26c-0.5,0-0.9-0.2-1.2-0.5c-0.3-0.3-0.4-0.7-0.4-1.3v-5.7
		c0-0.6,0.1-1,0.4-1.3c0.3-0.3,0.7-0.4,1.2-0.4c0.5,0,0.9,0.2,1.2,0.4c0.3,0.3,0.4,0.7,0.4,1.3v5.7c0,0.6-0.1,1-0.4,1.3
		C228.6,25.9,228.2,26,227.7,26z M227.7,15.6c-0.6,0-1-0.1-1.3-0.4c-0.3-0.3-0.4-0.6-0.4-1.2c0-0.5,0.1-0.9,0.4-1.1
		c0.3-0.3,0.8-0.4,1.3-0.4c0.6,0,1,0.1,1.3,0.4c0.3,0.3,0.5,0.6,0.5,1.1c0,0.5-0.1,0.9-0.5,1.2C228.7,15.4,228.3,15.6,227.7,15.6z
		 M235.7,26.1c-1,0-1.9-0.2-2.6-0.6c-0.7-0.4-1.3-0.9-1.7-1.6c-0.4-0.7-0.6-1.5-0.6-2.5c0-0.7,0.1-1.4,0.3-1.9
		c0.2-0.6,0.6-1.1,1-1.5c0.4-0.4,1-0.7,1.6-0.9c0.6-0.2,1.3-0.3,2-0.3c0.3,0,0.7,0,1.1,0.1c0.4,0.1,0.8,0.2,1.2,0.4
		c0.3,0.1,0.5,0.3,0.6,0.5c0.1,0.2,0.2,0.4,0.1,0.7c0,0.3-0.1,0.5-0.2,0.7c-0.1,0.2-0.3,0.3-0.5,0.4c-0.2,0.1-0.5,0-0.7-0.1
		c-0.2-0.1-0.4-0.2-0.6-0.2c-0.2,0-0.4-0.1-0.6-0.1c-0.3,0-0.6,0-0.9,0.1c-0.2,0.1-0.4,0.2-0.6,0.4c-0.2,0.2-0.3,0.4-0.4,0.7
		c-0.1,0.3-0.1,0.6-0.1,0.9c0,0.7,0.2,1.2,0.5,1.6c0.3,0.4,0.8,0.6,1.5,0.6c0.2,0,0.4,0,0.6-0.1c0.2,0,0.4-0.1,0.6-0.2
		c0.3-0.1,0.5-0.2,0.7-0.1c0.2,0.1,0.4,0.2,0.5,0.4c0.1,0.2,0.2,0.4,0.2,0.7c0,0.2,0,0.5-0.2,0.7c-0.1,0.2-0.3,0.4-0.6,0.5
		c-0.4,0.2-0.8,0.3-1.2,0.4C236.4,26,236.1,26.1,235.7,26.1z M246.9,26c-0.5,0-0.9-0.1-1.2-0.4c-0.3-0.3-0.4-0.7-0.4-1.2v-9.5
		c0-0.5,0.1-1,0.4-1.2c0.3-0.3,0.7-0.4,1.2-0.4h4.4c1.4,0,2.5,0.4,3.3,1.1c0.8,0.7,1.2,1.7,1.2,3c0,1.3-0.4,2.3-1.2,3.1
		c-0.8,0.7-1.9,1.1-3.3,1.1h-2.8v2.9c0,0.5-0.1,0.9-0.4,1.2C247.9,25.9,247.5,26,246.9,26z M248.6,19h2.2c0.6,0,1.1-0.1,1.4-0.4
		c0.3-0.3,0.5-0.7,0.5-1.2c0-0.6-0.2-1-0.5-1.2s-0.8-0.4-1.4-0.4h-2.2V19z M260.6,26.1c-1.2,0-2-0.3-2.6-0.9
		c-0.5-0.6-0.8-1.6-0.8-2.8v-7.7c0-0.5,0.1-0.9,0.4-1.2c0.3-0.3,0.7-0.4,1.2-0.4c0.5,0,0.9,0.1,1.2,0.4c0.3,0.3,0.4,0.7,0.4,1.2v7.6
		c0,0.4,0.1,0.8,0.3,1c0.2,0.2,0.4,0.3,0.7,0.3c0.1,0,0.2,0,0.3,0c0.1,0,0.2,0,0.3-0.1c0.2,0,0.4,0.1,0.4,0.2c0.1,0.2,0.2,0.5,0.2,1
		c0,0.4-0.1,0.7-0.3,1c-0.2,0.2-0.4,0.3-0.8,0.4c-0.1,0-0.2,0-0.4,0.1C260.9,26.1,260.7,26.1,260.6,26.1z M266.6,26.1
		c-0.7,0-1.3-0.1-1.8-0.4c-0.5-0.3-0.9-0.6-1.2-1c-0.3-0.4-0.4-0.9-0.4-1.5c0-0.6,0.2-1.2,0.5-1.5s0.9-0.6,1.6-0.8
		c0.7-0.2,1.7-0.3,3-0.3h1v1.5h-1c-0.5,0-0.9,0-1.2,0.1c-0.3,0.1-0.5,0.2-0.7,0.3c-0.1,0.1-0.2,0.3-0.2,0.5c0,0.3,0.1,0.5,0.3,0.7
		c0.2,0.2,0.5,0.3,0.9,0.3c0.3,0,0.6-0.1,0.8-0.2c0.2-0.1,0.4-0.3,0.6-0.5c0.1-0.2,0.2-0.5,0.2-0.8v-2.1c0-0.4-0.1-0.7-0.3-0.9
		c-0.2-0.2-0.6-0.3-1.1-0.3c-0.3,0-0.6,0-1,0.1c-0.4,0.1-0.8,0.2-1.2,0.3c-0.3,0.1-0.6,0.1-0.8,0.1s-0.4-0.2-0.5-0.4
		c-0.1-0.2-0.2-0.4-0.2-0.7c0-0.2,0.1-0.5,0.2-0.7c0.2-0.2,0.4-0.4,0.7-0.5c0.6-0.2,1.1-0.4,1.6-0.4c0.5-0.1,0.9-0.1,1.4-0.1
		c1,0,1.8,0.1,2.4,0.4c0.6,0.3,1.1,0.7,1.4,1.3c0.3,0.6,0.5,1.3,0.5,2.2v3.6c0,0.5-0.1,0.9-0.4,1.2c-0.3,0.3-0.6,0.4-1.1,0.4
		c-0.5,0-0.9-0.1-1.1-0.4c-0.3-0.3-0.4-0.7-0.4-1.2v-0.5l0.1,0.3c-0.1,0.4-0.2,0.7-0.4,1s-0.5,0.5-0.8,0.6
		C267.4,26,267,26.1,266.6,26.1z M276.2,29.3c-0.4,0-0.7-0.1-0.9-0.3s-0.4-0.4-0.4-0.8c0-0.3,0-0.6,0.2-1l1.2-2.6v1.3l-3.1-7
		c-0.2-0.4-0.2-0.7-0.2-1c0.1-0.3,0.2-0.6,0.5-0.7c0.3-0.2,0.6-0.3,1.1-0.3c0.4,0,0.7,0.1,0.9,0.3c0.2,0.2,0.5,0.5,0.6,1l1.8,4.7
		h-0.6l1.9-4.7c0.2-0.5,0.4-0.8,0.6-1c0.3-0.2,0.6-0.3,1-0.3c0.4,0,0.6,0.1,0.9,0.3c0.2,0.2,0.3,0.4,0.4,0.7c0,0.3,0,0.6-0.2,1
		l-4.1,9.2c-0.2,0.5-0.5,0.8-0.7,1C276.9,29.2,276.6,29.3,276.2,29.3z M288,26.1c-1.1,0-2-0.2-2.8-0.6c-0.8-0.4-1.4-0.9-1.8-1.6
		c-0.4-0.7-0.6-1.5-0.6-2.5c0-0.9,0.2-1.7,0.6-2.4c0.4-0.7,1-1.2,1.7-1.6c0.7-0.4,1.5-0.6,2.4-0.6c0.7,0,1.3,0.1,1.8,0.3
		c0.5,0.2,1,0.5,1.4,0.9c0.4,0.4,0.7,0.9,0.9,1.4c0.2,0.6,0.3,1.2,0.3,1.9c0,0.2-0.1,0.4-0.2,0.5c-0.1,0.1-0.3,0.2-0.6,0.2h-5.5
		v-1.5h4l-0.3,0.2c0-0.4-0.1-0.8-0.2-1.1s-0.3-0.5-0.5-0.6c-0.2-0.1-0.5-0.2-0.9-0.2c-0.4,0-0.7,0.1-1,0.3c-0.3,0.2-0.5,0.4-0.6,0.8
		s-0.2,0.8-0.2,1.3v0.2c0,0.9,0.2,1.5,0.6,1.8c0.4,0.4,1,0.5,1.8,0.5c0.3,0,0.6,0,0.9-0.1c0.3-0.1,0.7-0.2,1-0.3
		c0.3-0.1,0.6-0.1,0.8-0.1c0.2,0.1,0.4,0.2,0.5,0.4c0.1,0.2,0.2,0.4,0.2,0.6c0,0.2,0,0.5-0.2,0.7c-0.1,0.2-0.3,0.4-0.6,0.5
		c-0.4,0.2-0.9,0.3-1.4,0.4C288.9,26,288.4,26.1,288,26.1z M294.8,26c-0.5,0-0.9-0.1-1.2-0.4c-0.3-0.3-0.4-0.7-0.4-1.2v-6
		c0-0.5,0.1-0.9,0.4-1.2c0.3-0.3,0.7-0.4,1.2-0.4s0.9,0.1,1.2,0.4c0.3,0.3,0.4,0.7,0.4,1.2v0.7h-0.2c0.1-0.7,0.4-1.3,0.9-1.7
		c0.5-0.4,1.1-0.6,1.9-0.7c0.3,0,0.6,0.1,0.8,0.3c0.2,0.2,0.3,0.5,0.3,1c0,0.4-0.1,0.8-0.3,1c-0.2,0.3-0.5,0.4-1,0.5l-0.4,0
		c-0.6,0.1-1.1,0.2-1.4,0.5c-0.3,0.3-0.4,0.7-0.4,1.3v3c0,0.5-0.1,0.9-0.4,1.2S295.3,26,294.8,26z"/>
	<path class="st1" d="M383.4,26c-0.5,0-0.8-0.1-1.1-0.3c-0.3-0.2-0.5-0.5-0.7-0.9l-4.4-9.6c-0.2-0.4-0.3-0.8-0.2-1.1
		c0.1-0.3,0.2-0.6,0.5-0.8c0.3-0.2,0.6-0.3,1-0.3c0.5,0,0.9,0.1,1.1,0.3c0.3,0.2,0.5,0.5,0.6,1l3.7,8.5h-1l3.7-8.5
		c0.2-0.4,0.4-0.7,0.6-0.9c0.3-0.2,0.6-0.3,1.1-0.3c0.4,0,0.7,0.1,0.9,0.3c0.3,0.2,0.4,0.4,0.5,0.8c0.1,0.3,0,0.7-0.2,1.1l-4.4,9.6
		c-0.2,0.4-0.4,0.7-0.7,0.9C384.2,25.9,383.9,26,383.4,26z M393.4,26c-0.5,0-0.9-0.2-1.2-0.5c-0.3-0.3-0.4-0.7-0.4-1.3v-5.7
		c0-0.6,0.1-1,0.4-1.3c0.3-0.3,0.7-0.4,1.2-0.4c0.5,0,0.9,0.2,1.2,0.4c0.3,0.3,0.4,0.7,0.4,1.3v5.7c0,0.6-0.1,1-0.4,1.3
		C394.3,25.9,393.9,26,393.4,26z M393.4,15.6c-0.6,0-1-0.1-1.3-0.4c-0.3-0.3-0.5-0.6-0.5-1.2c0-0.5,0.1-0.9,0.5-1.1
		c0.3-0.3,0.8-0.4,1.3-0.4c0.6,0,1,0.1,1.3,0.4s0.5,0.6,0.5,1.1c0,0.5-0.2,0.9-0.5,1.2S394,15.6,393.4,15.6z M400.3,26.1
		c-0.8,0-1.4-0.2-2-0.6c-0.6-0.4-1-0.9-1.4-1.6c-0.3-0.7-0.5-1.5-0.5-2.5c0-1,0.2-1.8,0.5-2.5c0.3-0.7,0.8-1.2,1.4-1.6
		c0.6-0.4,1.3-0.6,2-0.6c0.7,0,1.3,0.2,1.8,0.5c0.5,0.3,0.9,0.7,1.1,1.2H403v-3.9c0-0.5,0.1-0.9,0.4-1.2c0.3-0.3,0.7-0.4,1.2-0.4
		c0.5,0,0.9,0.1,1.2,0.4c0.3,0.3,0.4,0.7,0.4,1.2v9.8c0,0.5-0.1,0.9-0.4,1.2c-0.3,0.3-0.7,0.4-1.2,0.4c-0.5,0-0.9-0.1-1.2-0.4
		s-0.4-0.7-0.4-1.2v-1l0.2,0.9c-0.2,0.5-0.5,1-1.1,1.3C401.6,25.9,401,26.1,400.3,26.1z M401.3,23.7c0.3,0,0.6-0.1,0.9-0.2
		c0.3-0.2,0.4-0.4,0.6-0.7c0.1-0.3,0.2-0.8,0.2-1.3c0-0.8-0.2-1.4-0.5-1.7c-0.3-0.4-0.7-0.5-1.2-0.5c-0.3,0-0.6,0.1-0.9,0.2
		c-0.3,0.2-0.5,0.4-0.6,0.7c-0.1,0.3-0.2,0.8-0.2,1.3c0,0.8,0.2,1.4,0.5,1.7S400.8,23.7,401.3,23.7z M412.8,26.1
		c-1.1,0-2-0.2-2.8-0.6c-0.8-0.4-1.4-0.9-1.8-1.6c-0.4-0.7-0.6-1.5-0.6-2.5c0-0.9,0.2-1.7,0.6-2.4c0.4-0.7,1-1.2,1.7-1.6
		c0.7-0.4,1.5-0.6,2.4-0.6c0.7,0,1.3,0.1,1.8,0.3c0.5,0.2,1,0.5,1.4,0.9c0.4,0.4,0.7,0.9,0.9,1.4c0.2,0.6,0.3,1.2,0.3,1.9
		c0,0.2-0.1,0.4-0.2,0.5c-0.1,0.1-0.3,0.2-0.6,0.2h-5.5v-1.5h4l-0.3,0.2c0-0.4-0.1-0.8-0.2-1.1s-0.3-0.5-0.5-0.6
		c-0.2-0.1-0.5-0.2-0.9-0.2c-0.4,0-0.7,0.1-1,0.3c-0.3,0.2-0.5,0.4-0.6,0.8s-0.2,0.8-0.2,1.3v0.2c0,0.9,0.2,1.5,0.6,1.8
		c0.4,0.4,1,0.5,1.8,0.5c0.3,0,0.6,0,0.9-0.1c0.3-0.1,0.7-0.2,1-0.3c0.3-0.1,0.6-0.1,0.8-0.1c0.2,0.1,0.4,0.2,0.5,0.4
		c0.1,0.2,0.2,0.4,0.2,0.6c0,0.2,0,0.5-0.2,0.7c-0.1,0.2-0.3,0.4-0.6,0.5c-0.4,0.2-0.9,0.3-1.4,0.4C413.8,26,413.3,26.1,412.8,26.1z
		 M422.5,26.1c-1,0-1.8-0.2-2.6-0.6c-0.7-0.4-1.3-0.9-1.7-1.6s-0.6-1.5-0.6-2.5c0-0.7,0.1-1.4,0.3-1.9c0.2-0.6,0.6-1.1,1-1.5
		c0.4-0.4,0.9-0.7,1.5-0.9c0.6-0.2,1.3-0.3,2-0.3c1,0,1.8,0.2,2.6,0.6c0.7,0.4,1.3,0.9,1.7,1.6c0.4,0.7,0.6,1.5,0.6,2.5
		c0,0.7-0.1,1.3-0.3,1.9c-0.2,0.6-0.6,1.1-1,1.5c-0.4,0.4-0.9,0.7-1.5,0.9C423.9,26,423.2,26.1,422.5,26.1z M422.5,23.7
		c0.3,0,0.6-0.1,0.9-0.2c0.3-0.2,0.4-0.4,0.6-0.7c0.1-0.3,0.2-0.8,0.2-1.3c0-0.8-0.2-1.4-0.5-1.7c-0.3-0.4-0.7-0.5-1.2-0.5
		c-0.3,0-0.6,0.1-0.9,0.2c-0.3,0.2-0.5,0.4-0.6,0.7c-0.1,0.3-0.2,0.8-0.2,1.3c0,0.8,0.2,1.4,0.5,1.7S422,23.7,422.5,23.7z
		 M432.4,26.1c-0.5,0-1.1,0-1.6-0.1c-0.5-0.1-1-0.2-1.5-0.4c-0.3-0.1-0.5-0.3-0.6-0.5c-0.1-0.2-0.2-0.4-0.2-0.6
		c0-0.2,0.1-0.4,0.2-0.6c0.1-0.2,0.3-0.3,0.5-0.4c0.2-0.1,0.5-0.1,0.7,0c0.5,0.2,1,0.3,1.3,0.4c0.4,0.1,0.8,0.1,1.2,0.1
		c0.4,0,0.8-0.1,1-0.2c0.2-0.1,0.3-0.3,0.3-0.5c0-0.2-0.1-0.3-0.2-0.4c-0.1-0.1-0.3-0.2-0.5-0.2l-2-0.3c-0.7-0.1-1.3-0.4-1.7-0.8
		c-0.4-0.4-0.6-1-0.6-1.6c0-0.6,0.2-1.2,0.5-1.6c0.4-0.5,0.8-0.8,1.5-1c0.6-0.3,1.3-0.4,2.1-0.4c0.5,0,1,0,1.5,0.1
		c0.4,0.1,0.9,0.2,1.3,0.4c0.3,0.1,0.4,0.3,0.6,0.5c0.1,0.2,0.1,0.4,0.1,0.6c0,0.2-0.1,0.4-0.2,0.6c-0.1,0.2-0.3,0.3-0.5,0.4
		c-0.2,0.1-0.5,0-0.8-0.1c-0.4-0.2-0.8-0.3-1.1-0.3c-0.3-0.1-0.6-0.1-0.8-0.1c-0.5,0-0.8,0.1-1,0.2c-0.2,0.1-0.3,0.3-0.3,0.5
		c0,0.2,0.1,0.3,0.2,0.4c0.1,0.1,0.3,0.2,0.5,0.2l2,0.3c0.8,0.1,1.4,0.4,1.8,0.8c0.4,0.4,0.6,0.9,0.6,1.6c0,1-0.4,1.7-1.1,2.3
		C434.6,25.8,433.6,26.1,432.4,26.1z"/>
	<path class="st1" d="M531.8,13.6c-0.9,0-1.7-0.1-2.4-0.3c-0.7-0.2-1.3-0.6-1.8-1.1c-0.5-0.5-0.8-1-1.1-1.7
		c-0.2-0.7-0.4-1.5-0.4-2.4V2.2c0-0.6,0.1-1,0.4-1.2c0.3-0.3,0.7-0.4,1.2-0.4c0.5,0,0.9,0.1,1.2,0.4c0.3,0.3,0.4,0.7,0.4,1.2V8
		c0,0.9,0.2,1.6,0.6,2.1c0.4,0.5,1,0.7,1.8,0.7c0.8,0,1.4-0.2,1.8-0.7s0.6-1.2,0.6-2.1V2.2c0-0.6,0.1-1,0.4-1.2
		c0.3-0.3,0.7-0.4,1.2-0.4s0.9,0.1,1.2,0.4c0.3,0.3,0.4,0.7,0.4,1.2V8c0,1.2-0.2,2.3-0.6,3.1c-0.4,0.8-1,1.5-1.9,1.9
		C534,13.4,533,13.6,531.8,13.6z M541,16.8c-0.5,0-0.9-0.1-1.2-0.4s-0.4-0.7-0.4-1.2V6c0-0.5,0.1-0.9,0.4-1.2
		c0.3-0.3,0.7-0.4,1.2-0.4c0.5,0,0.9,0.1,1.2,0.4c0.3,0.3,0.4,0.7,0.4,1.2v1l-0.2-0.9c0.2-0.5,0.5-1,1-1.3c0.5-0.3,1.2-0.5,1.8-0.5
		c0.8,0,1.4,0.2,2,0.6c0.6,0.4,1,0.9,1.4,1.6c0.3,0.7,0.5,1.5,0.5,2.5c0,0.9-0.2,1.8-0.5,2.5c-0.3,0.7-0.8,1.2-1.4,1.6
		c-0.6,0.4-1.2,0.6-2,0.6c-0.7,0-1.3-0.2-1.8-0.5c-0.5-0.3-0.9-0.7-1.1-1.2h0.2v3.3c0,0.5-0.1,0.9-0.4,1.2
		C541.9,16.6,541.5,16.8,541,16.8z M544.3,11.2c0.3,0,0.6-0.1,0.8-0.2c0.3-0.2,0.5-0.4,0.6-0.7c0.1-0.3,0.2-0.8,0.2-1.3
		c0-0.8-0.2-1.4-0.5-1.7c-0.3-0.4-0.7-0.5-1.2-0.5c-0.3,0-0.6,0.1-0.9,0.2c-0.3,0.2-0.4,0.4-0.6,0.7c-0.1,0.3-0.2,0.8-0.2,1.3
		c0,0.8,0.2,1.4,0.5,1.7S543.8,11.2,544.3,11.2z M555.1,13.6c-1,0-1.9-0.2-2.6-0.6c-0.7-0.4-1.3-0.9-1.7-1.6
		c-0.4-0.7-0.6-1.5-0.6-2.5c0-0.7,0.1-1.4,0.3-1.9c0.2-0.6,0.6-1.1,1-1.5c0.4-0.4,1-0.7,1.6-0.9c0.6-0.2,1.3-0.3,2-0.3
		c0.3,0,0.7,0,1.1,0.1c0.4,0.1,0.8,0.2,1.2,0.4c0.3,0.1,0.5,0.3,0.6,0.5c0.1,0.2,0.2,0.4,0.1,0.7c0,0.3-0.1,0.5-0.2,0.7
		c-0.1,0.2-0.3,0.3-0.5,0.4c-0.2,0.1-0.5,0-0.7-0.1c-0.2-0.1-0.4-0.2-0.6-0.2c-0.2,0-0.4-0.1-0.6-0.1c-0.3,0-0.6,0-0.9,0.1
		c-0.2,0.1-0.4,0.2-0.6,0.4c-0.2,0.2-0.3,0.4-0.4,0.7c-0.1,0.3-0.1,0.6-0.1,0.9c0,0.7,0.2,1.2,0.5,1.6c0.3,0.4,0.8,0.6,1.5,0.6
		c0.2,0,0.4,0,0.6-0.1c0.2,0,0.4-0.1,0.6-0.2c0.3-0.1,0.5-0.2,0.7-0.1c0.2,0.1,0.4,0.2,0.5,0.4c0.1,0.2,0.2,0.4,0.2,0.7
		c0,0.2,0,0.5-0.2,0.7c-0.1,0.2-0.3,0.4-0.6,0.5c-0.4,0.2-0.8,0.3-1.2,0.4C555.8,13.5,555.5,13.6,555.1,13.6z M563.6,13.6
		c-1,0-1.8-0.2-2.6-0.6s-1.3-0.9-1.7-1.6c-0.4-0.7-0.6-1.5-0.6-2.5c0-0.7,0.1-1.4,0.3-1.9c0.2-0.6,0.6-1.1,1-1.5
		c0.4-0.4,0.9-0.7,1.5-0.9c0.6-0.2,1.3-0.3,2-0.3c1,0,1.8,0.2,2.6,0.6c0.7,0.4,1.3,0.9,1.7,1.6c0.4,0.7,0.6,1.5,0.6,2.5
		c0,0.7-0.1,1.3-0.3,1.9c-0.2,0.6-0.6,1.1-1,1.5c-0.4,0.4-0.9,0.7-1.5,0.9C565,13.5,564.3,13.6,563.6,13.6z M563.6,11.2
		c0.3,0,0.6-0.1,0.9-0.2c0.3-0.2,0.4-0.4,0.6-0.7c0.1-0.3,0.2-0.8,0.2-1.3c0-0.8-0.2-1.4-0.5-1.7c-0.3-0.4-0.7-0.5-1.2-0.5
		c-0.3,0-0.6,0.1-0.9,0.2c-0.3,0.2-0.5,0.4-0.6,0.7c-0.1,0.3-0.2,0.8-0.2,1.3c0,0.8,0.2,1.4,0.5,1.7C562.7,11,563.1,11.2,563.6,11.2
		z M571.6,13.5c-0.5,0-0.9-0.1-1.2-0.4s-0.4-0.7-0.4-1.2V6c0-0.5,0.1-0.9,0.4-1.2c0.3-0.3,0.7-0.4,1.2-0.4c0.5,0,0.9,0.1,1.2,0.4
		c0.3,0.3,0.4,0.7,0.4,1.2v1l-0.2-0.9c0.3-0.5,0.6-0.9,1.1-1.3c0.5-0.3,1.1-0.5,1.8-0.5c0.6,0,1.2,0.2,1.7,0.5
		c0.5,0.3,0.8,0.8,1,1.4h-0.3c0.3-0.6,0.7-1,1.2-1.4c0.6-0.3,1.2-0.5,1.8-0.5c0.7,0,1.3,0.1,1.7,0.4c0.4,0.3,0.8,0.7,1,1.3
		c0.2,0.6,0.3,1.3,0.3,2.1v3.8c0,0.5-0.1,0.9-0.4,1.2c-0.3,0.3-0.7,0.4-1.2,0.4c-0.5,0-0.9-0.1-1.2-0.4s-0.4-0.7-0.4-1.2V8.2
		c0-0.5-0.1-0.9-0.2-1.1s-0.4-0.3-0.8-0.3c-0.4,0-0.8,0.2-1,0.5c-0.2,0.3-0.3,0.8-0.3,1.3v3.3c0,0.5-0.1,0.9-0.4,1.2
		s-0.7,0.4-1.2,0.4s-0.9-0.1-1.2-0.4s-0.4-0.7-0.4-1.2V8.2c0-0.5-0.1-0.9-0.2-1.1s-0.4-0.3-0.8-0.3c-0.4,0-0.8,0.2-1,0.5
		c-0.2,0.3-0.3,0.8-0.3,1.3v3.3C573.2,13,572.7,13.5,571.6,13.5z M587.8,13.5c-0.5,0-0.9-0.2-1.2-0.5c-0.3-0.3-0.4-0.7-0.4-1.3V6.1
		c0-0.6,0.1-1,0.4-1.3c0.3-0.3,0.7-0.4,1.2-0.4c0.5,0,0.9,0.2,1.2,0.4c0.3,0.3,0.4,0.7,0.4,1.3v5.7c0,0.6-0.1,1-0.4,1.3
		C588.7,13.4,588.3,13.5,587.8,13.5z M587.8,3.1c-0.6,0-1-0.1-1.3-0.4C586.2,2.4,586,2,586,1.5c0-0.5,0.2-0.9,0.5-1.1
		c0.3-0.3,0.8-0.4,1.3-0.4c0.6,0,1,0.1,1.3,0.4s0.5,0.6,0.5,1.1c0,0.5-0.2,0.9-0.5,1.2S588.4,3.1,587.8,3.1z M592.8,13.5
		c-0.5,0-0.9-0.1-1.2-0.4s-0.4-0.7-0.4-1.2V6c0-0.5,0.1-0.9,0.4-1.2c0.3-0.3,0.7-0.4,1.2-0.4c0.5,0,0.9,0.1,1.2,0.4
		c0.3,0.3,0.4,0.7,0.4,1.2v0.8l-0.2-0.7c0.3-0.6,0.7-1,1.2-1.3c0.5-0.3,1.2-0.5,1.8-0.5c0.7,0,1.3,0.1,1.7,0.4
		c0.5,0.3,0.8,0.7,1,1.3c0.2,0.6,0.3,1.3,0.3,2.1v3.8c0,0.5-0.1,0.9-0.4,1.2s-0.7,0.4-1.2,0.4s-0.9-0.1-1.2-0.4s-0.4-0.7-0.4-1.2
		V8.3c0-0.5-0.1-0.9-0.3-1.2c-0.2-0.2-0.5-0.3-0.8-0.3c-0.5,0-0.9,0.2-1.2,0.5c-0.3,0.3-0.4,0.7-0.4,1.2v3.5
		C594.5,13,593.9,13.5,592.8,13.5z M606.6,16.8c-0.7,0-1.3,0-1.9-0.1c-0.6-0.1-1.1-0.2-1.5-0.4c-0.3-0.1-0.6-0.3-0.7-0.5
		c-0.1-0.2-0.2-0.5-0.2-0.7c0-0.3,0.1-0.5,0.2-0.7c0.1-0.2,0.3-0.4,0.5-0.4c0.2-0.1,0.5-0.1,0.7,0c0.5,0.2,1,0.4,1.4,0.4
		c0.4,0.1,0.8,0.1,1.1,0.1c0.7,0,1.3-0.2,1.6-0.5c0.4-0.3,0.6-0.8,0.6-1.4v-1.1h0.1c-0.2,0.5-0.5,0.9-1.1,1.2
		c-0.6,0.3-1.2,0.5-1.8,0.5c-0.8,0-1.5-0.2-2.1-0.5c-0.6-0.4-1-0.9-1.4-1.5c-0.3-0.7-0.5-1.4-0.5-2.3c0-0.7,0.1-1.3,0.3-1.8
		s0.5-1,0.8-1.4c0.3-0.4,0.8-0.7,1.2-0.9c0.5-0.2,1-0.3,1.6-0.3c0.7,0,1.3,0.2,1.8,0.5c0.5,0.3,0.9,0.7,1.1,1.2l-0.2,0.7V6
		c0-0.5,0.1-0.9,0.4-1.2c0.3-0.3,0.7-0.4,1.2-0.4c0.5,0,0.9,0.1,1.2,0.4c0.3,0.3,0.4,0.7,0.4,1.2v6.2c0,1.5-0.4,2.7-1.3,3.5
		C609.4,16.4,608.2,16.8,606.6,16.8z M606.7,10.8c0.4,0,0.7-0.1,0.9-0.2c0.3-0.2,0.4-0.4,0.6-0.7c0.1-0.3,0.2-0.7,0.2-1.1
		c0-0.6-0.2-1.2-0.5-1.5s-0.7-0.5-1.3-0.5c-0.3,0-0.6,0.1-0.9,0.3c-0.3,0.2-0.5,0.4-0.6,0.7c-0.1,0.3-0.2,0.7-0.2,1.1
		c0,0.6,0.2,1.2,0.5,1.5C605.8,10.6,606.2,10.8,606.7,10.8z M545.8,38.6c-0.5,0-1,0-1.5-0.1c-0.5-0.1-1-0.2-1.5-0.3
		c-0.5-0.1-0.9-0.3-1.3-0.5c-0.3-0.2-0.6-0.4-0.7-0.6c-0.1-0.3-0.2-0.5-0.1-0.8c0-0.3,0.1-0.5,0.3-0.8c0.2-0.2,0.4-0.4,0.7-0.4
		c0.3-0.1,0.6,0,0.9,0.1c0.5,0.2,1,0.4,1.5,0.5c0.6,0.1,1.1,0.2,1.6,0.2c0.8,0,1.3-0.1,1.7-0.3c0.3-0.2,0.5-0.5,0.5-0.8
		c0-0.3-0.1-0.5-0.3-0.7c-0.2-0.2-0.6-0.3-1.2-0.4l-2.1-0.4c-1.2-0.2-2-0.7-2.6-1.3c-0.6-0.6-0.8-1.4-0.8-2.3c0-0.6,0.1-1.2,0.4-1.7
		c0.3-0.5,0.6-1,1.1-1.3c0.5-0.4,1-0.6,1.7-0.8c0.7-0.2,1.4-0.3,2.2-0.3c0.6,0,1.3,0.1,1.9,0.2c0.6,0.1,1.2,0.3,1.7,0.6
		c0.3,0.1,0.5,0.3,0.6,0.6c0.1,0.3,0.2,0.5,0.1,0.8c0,0.3-0.1,0.5-0.3,0.7c-0.2,0.2-0.4,0.3-0.6,0.4c-0.3,0.1-0.6,0-1-0.1
		c-0.3-0.2-0.7-0.3-1.2-0.3c-0.4-0.1-0.9-0.1-1.3-0.1c-0.4,0-0.8,0.1-1.1,0.2c-0.3,0.1-0.6,0.2-0.7,0.4c-0.2,0.2-0.2,0.4-0.2,0.7
		c0,0.3,0.1,0.5,0.3,0.6c0.2,0.2,0.6,0.3,1.2,0.4l2.1,0.5c1.2,0.3,2,0.7,2.6,1.2c0.6,0.6,0.9,1.3,0.9,2.2c0,0.6-0.1,1.2-0.4,1.7
		c-0.3,0.5-0.6,0.9-1.1,1.3c-0.5,0.3-1,0.6-1.7,0.8C547.4,38.5,546.7,38.6,545.8,38.6z M554.2,38.5c-0.5,0-0.9-0.1-1.2-0.4
		s-0.4-0.7-0.4-1.2v-9.8c0-0.5,0.1-0.9,0.4-1.2c0.3-0.3,0.7-0.4,1.2-0.4c0.5,0,0.9,0.1,1.2,0.4c0.3,0.3,0.4,0.7,0.4,1.2v3.9h-0.3
		c0.3-0.6,0.7-1,1.2-1.3c0.5-0.3,1.2-0.5,1.8-0.5c0.7,0,1.3,0.1,1.7,0.4c0.5,0.3,0.8,0.7,1,1.3c0.2,0.6,0.3,1.3,0.3,2.1v3.8
		c0,0.5-0.1,0.9-0.4,1.2s-0.7,0.4-1.2,0.4s-0.9-0.1-1.2-0.4s-0.4-0.7-0.4-1.2v-3.7c0-0.5-0.1-0.9-0.3-1.2c-0.2-0.2-0.5-0.3-0.8-0.3
		c-0.5,0-0.9,0.2-1.2,0.5c-0.3,0.3-0.4,0.7-0.4,1.2v3.5C555.8,38,555.3,38.5,554.2,38.5z M568,38.6c-1,0-1.8-0.2-2.6-0.6
		s-1.3-0.9-1.7-1.6c-0.4-0.7-0.6-1.5-0.6-2.5c0-0.7,0.1-1.4,0.3-1.9c0.2-0.6,0.6-1.1,1-1.5c0.4-0.4,0.9-0.7,1.5-0.9
		c0.6-0.2,1.3-0.3,2-0.3c1,0,1.8,0.2,2.6,0.6c0.7,0.4,1.3,0.9,1.7,1.6c0.4,0.7,0.6,1.5,0.6,2.5c0,0.7-0.1,1.3-0.3,1.9
		c-0.2,0.6-0.6,1.1-1,1.5c-0.4,0.4-0.9,0.7-1.5,0.9C569.4,38.5,568.7,38.6,568,38.6z M568,36.2c0.3,0,0.6-0.1,0.9-0.2
		c0.3-0.2,0.4-0.4,0.6-0.7c0.1-0.3,0.2-0.8,0.2-1.3c0-0.8-0.2-1.4-0.5-1.7c-0.3-0.4-0.7-0.5-1.2-0.5c-0.3,0-0.6,0.1-0.9,0.2
		c-0.3,0.2-0.4,0.4-0.6,0.7c-0.1,0.3-0.2,0.8-0.2,1.3c0,0.8,0.2,1.4,0.5,1.7S567.5,36.2,568,36.2z M578,38.5c-0.4,0-0.8-0.1-1.1-0.3
		c-0.3-0.2-0.5-0.5-0.7-0.9l-2.4-5.9c-0.2-0.4-0.2-0.7-0.2-1c0-0.3,0.2-0.6,0.4-0.7c0.3-0.2,0.6-0.3,1-0.3c0.4,0,0.7,0.1,0.9,0.3
		c0.2,0.2,0.5,0.5,0.6,1l1.7,4.5H578l1.8-4.9c0.1-0.3,0.3-0.6,0.5-0.7c0.2-0.2,0.5-0.2,0.8-0.2c0.3,0,0.6,0.1,0.8,0.2
		c0.2,0.2,0.4,0.4,0.5,0.7l1.8,4.9h-0.3l1.7-4.6c0.2-0.5,0.4-0.8,0.6-0.9c0.3-0.2,0.5-0.3,0.8-0.3c0.4,0,0.7,0.1,0.9,0.3
		c0.2,0.2,0.3,0.4,0.4,0.8c0,0.3,0,0.6-0.2,1l-2.4,5.9c-0.2,0.4-0.4,0.7-0.7,0.9c-0.3,0.2-0.7,0.3-1.1,0.3c-0.4,0-0.8-0.1-1.1-0.3
		c-0.3-0.2-0.5-0.5-0.7-0.9l-2-4.9h1.3l-1.9,4.9c-0.2,0.4-0.4,0.8-0.7,1C578.8,38.4,578.4,38.5,578,38.5z M593.1,38.6
		c-0.5,0-1.1,0-1.6-0.1c-0.5-0.1-1-0.2-1.5-0.4c-0.3-0.1-0.5-0.3-0.6-0.5c-0.1-0.2-0.2-0.4-0.2-0.6c0-0.2,0.1-0.4,0.2-0.6
		c0.1-0.2,0.3-0.3,0.5-0.4c0.2-0.1,0.5-0.1,0.7,0c0.5,0.2,1,0.3,1.3,0.4c0.4,0.1,0.8,0.1,1.2,0.1c0.4,0,0.8-0.1,1-0.2
		c0.2-0.1,0.3-0.3,0.3-0.5c0-0.2-0.1-0.3-0.2-0.4c-0.1-0.1-0.3-0.2-0.5-0.2l-2-0.3c-0.7-0.1-1.3-0.4-1.7-0.8c-0.4-0.4-0.6-1-0.6-1.6
		c0-0.6,0.2-1.2,0.5-1.6c0.4-0.5,0.8-0.8,1.5-1c0.6-0.3,1.3-0.4,2.1-0.4c0.5,0,1,0,1.5,0.1c0.4,0.1,0.9,0.2,1.3,0.4
		c0.3,0.1,0.5,0.3,0.6,0.5c0.1,0.2,0.1,0.4,0.1,0.6c0,0.2-0.1,0.4-0.2,0.6c-0.1,0.2-0.3,0.3-0.5,0.4c-0.2,0.1-0.5,0-0.8-0.1
		c-0.4-0.2-0.8-0.3-1.1-0.3c-0.3-0.1-0.6-0.1-0.8-0.1c-0.5,0-0.8,0.1-1,0.2c-0.2,0.1-0.3,0.3-0.3,0.5c0,0.2,0.1,0.3,0.2,0.4
		c0.1,0.1,0.3,0.2,0.5,0.2l2,0.3c0.8,0.1,1.4,0.4,1.8,0.8c0.4,0.4,0.6,0.9,0.6,1.6c0,1-0.4,1.7-1.1,2.3
		C595.3,38.3,594.3,38.6,593.1,38.6z"/>
	<path class="st1" d="M706.9,26c-0.5,0-0.9-0.1-1.1-0.4c-0.3-0.3-0.4-0.6-0.4-1.1v-10c0-0.5,0.1-0.9,0.4-1.1
		c0.3-0.3,0.7-0.4,1.2-0.4c0.4,0,0.8,0.1,1,0.3c0.3,0.2,0.5,0.4,0.7,0.8l3.9,6.9h-0.6l3.9-6.9c0.2-0.4,0.4-0.6,0.7-0.8
		c0.3-0.2,0.6-0.3,1-0.3c0.5,0,0.8,0.1,1.1,0.4c0.3,0.3,0.4,0.6,0.4,1.1v10c0,0.5-0.1,0.9-0.4,1.1c-0.3,0.3-0.6,0.4-1.1,0.4
		c-0.5,0-0.9-0.1-1.1-0.4c-0.3-0.3-0.4-0.6-0.4-1.1v-6.2h0.4l-2.9,5c-0.2,0.3-0.3,0.5-0.5,0.6c-0.2,0.1-0.4,0.2-0.7,0.2
		c-0.3,0-0.5-0.1-0.7-0.2c-0.2-0.1-0.4-0.3-0.5-0.6l-2.9-5.1h0.4v6.2c0,0.5-0.1,0.9-0.4,1.1S707.4,26,706.9,26z M725.8,26.1
		c-1.1,0-2-0.2-2.8-0.6c-0.8-0.4-1.4-0.9-1.8-1.6c-0.4-0.7-0.6-1.5-0.6-2.5c0-0.9,0.2-1.7,0.6-2.4c0.4-0.7,1-1.2,1.7-1.6
		c0.7-0.4,1.5-0.6,2.4-0.6c0.7,0,1.3,0.1,1.8,0.3c0.5,0.2,1,0.5,1.4,0.9c0.4,0.4,0.7,0.9,0.9,1.4c0.2,0.6,0.3,1.2,0.3,1.9
		c0,0.2-0.1,0.4-0.2,0.5c-0.1,0.1-0.3,0.2-0.6,0.2h-5.5v-1.5h4l-0.3,0.2c0-0.4-0.1-0.8-0.2-1.1s-0.3-0.5-0.5-0.6
		c-0.2-0.1-0.5-0.2-0.9-0.2c-0.4,0-0.7,0.1-1,0.3c-0.3,0.2-0.5,0.4-0.6,0.8s-0.2,0.8-0.2,1.3v0.2c0,0.9,0.2,1.5,0.6,1.8
		c0.4,0.4,1,0.5,1.8,0.5c0.3,0,0.6,0,0.9-0.1c0.3-0.1,0.7-0.2,1-0.3c0.3-0.1,0.6-0.1,0.8-0.1c0.2,0.1,0.4,0.2,0.5,0.4
		c0.1,0.2,0.2,0.4,0.2,0.6c0,0.2,0,0.5-0.2,0.7c-0.1,0.2-0.3,0.4-0.6,0.5c-0.4,0.2-0.9,0.3-1.4,0.4C726.8,26,726.3,26.1,725.8,26.1z
		 M732.6,26c-0.5,0-0.9-0.1-1.2-0.4c-0.3-0.3-0.4-0.7-0.4-1.2v-6c0-0.5,0.1-0.9,0.4-1.2c0.3-0.3,0.7-0.4,1.2-0.4
		c0.5,0,0.9,0.1,1.2,0.4c0.3,0.3,0.4,0.7,0.4,1.2v0.7h-0.2c0.1-0.7,0.4-1.3,0.9-1.7c0.5-0.4,1.1-0.6,1.9-0.7c0.3,0,0.6,0.1,0.8,0.3
		c0.2,0.2,0.3,0.5,0.3,1c0,0.4-0.1,0.8-0.3,1s-0.5,0.4-1,0.5l-0.4,0c-0.6,0.1-1.1,0.2-1.4,0.5c-0.3,0.3-0.4,0.7-0.4,1.3v3
		c0,0.5-0.1,0.9-0.4,1.2S733.2,26,732.6,26z M743.2,26.1c-1,0-1.9-0.2-2.6-0.6c-0.7-0.4-1.3-0.9-1.7-1.6c-0.4-0.7-0.6-1.5-0.6-2.5
		c0-0.7,0.1-1.4,0.3-1.9c0.2-0.6,0.6-1.1,1-1.5c0.4-0.4,1-0.7,1.6-0.9c0.6-0.2,1.3-0.3,2-0.3c0.3,0,0.7,0,1.1,0.1
		c0.4,0.1,0.8,0.2,1.2,0.4c0.3,0.1,0.5,0.3,0.6,0.5c0.1,0.2,0.2,0.4,0.1,0.7c0,0.3-0.1,0.5-0.2,0.7c-0.1,0.2-0.3,0.3-0.5,0.4
		c-0.2,0.1-0.5,0-0.7-0.1c-0.2-0.1-0.4-0.2-0.6-0.2c-0.2,0-0.4-0.1-0.6-0.1c-0.3,0-0.6,0-0.9,0.1c-0.2,0.1-0.4,0.2-0.6,0.4
		c-0.2,0.2-0.3,0.4-0.4,0.7c-0.1,0.3-0.1,0.6-0.1,0.9c0,0.7,0.2,1.2,0.5,1.6c0.3,0.4,0.8,0.6,1.5,0.6c0.2,0,0.4,0,0.6-0.1
		c0.2,0,0.4-0.1,0.6-0.2c0.3-0.1,0.5-0.2,0.7-0.1c0.2,0.1,0.4,0.2,0.5,0.4c0.1,0.2,0.2,0.4,0.2,0.7c0,0.2,0,0.5-0.2,0.7
		c-0.1,0.2-0.3,0.4-0.6,0.5c-0.4,0.2-0.8,0.3-1.2,0.4C743.9,26,743.5,26.1,743.2,26.1z M749,26c-0.5,0-0.9-0.1-1.2-0.4
		s-0.4-0.7-0.4-1.2v-9.8c0-0.5,0.1-0.9,0.4-1.2c0.3-0.3,0.7-0.4,1.2-0.4c0.5,0,0.9,0.1,1.2,0.4c0.3,0.3,0.4,0.7,0.4,1.2v3.9h-0.3
		c0.3-0.6,0.7-1,1.2-1.3c0.5-0.3,1.2-0.5,1.8-0.5c0.7,0,1.3,0.1,1.7,0.4c0.5,0.3,0.8,0.7,1,1.3c0.2,0.6,0.3,1.3,0.3,2.1v3.8
		c0,0.5-0.1,0.9-0.4,1.2s-0.7,0.4-1.2,0.4c-0.5,0-0.9-0.1-1.2-0.4s-0.4-0.7-0.4-1.2v-3.7c0-0.5-0.1-0.9-0.3-1.2
		c-0.2-0.2-0.5-0.3-0.8-0.3c-0.5,0-0.9,0.2-1.2,0.5c-0.3,0.3-0.4,0.7-0.4,1.2v3.5C750.6,25.5,750,26,749,26z"/>
	<path class="st1" d="M846.8,26.1c-0.5,0-1,0-1.5-0.1c-0.5-0.1-1-0.2-1.5-0.3c-0.5-0.1-0.9-0.3-1.3-0.5c-0.3-0.2-0.6-0.4-0.7-0.6
		c-0.1-0.3-0.2-0.5-0.1-0.8c0-0.3,0.1-0.5,0.3-0.8c0.2-0.2,0.4-0.4,0.7-0.4c0.3-0.1,0.6,0,0.9,0.1c0.5,0.2,1,0.4,1.5,0.5
		c0.6,0.1,1.1,0.2,1.6,0.2c0.8,0,1.3-0.1,1.7-0.3c0.3-0.2,0.5-0.5,0.5-0.8c0-0.3-0.1-0.5-0.3-0.7c-0.2-0.2-0.6-0.3-1.2-0.4l-2.1-0.4
		c-1.2-0.2-2-0.7-2.6-1.3c-0.6-0.6-0.8-1.4-0.8-2.3c0-0.6,0.1-1.2,0.4-1.7c0.3-0.5,0.6-1,1.1-1.3c0.5-0.4,1-0.6,1.7-0.8
		c0.7-0.2,1.4-0.3,2.2-0.3c0.6,0,1.3,0.1,1.9,0.2c0.6,0.1,1.2,0.3,1.7,0.6c0.3,0.1,0.5,0.3,0.6,0.6c0.1,0.3,0.2,0.5,0.1,0.8
		c0,0.3-0.1,0.5-0.3,0.7c-0.2,0.2-0.4,0.3-0.6,0.4c-0.3,0.1-0.6,0-1-0.1c-0.3-0.2-0.7-0.3-1.2-0.3c-0.4-0.1-0.9-0.1-1.3-0.1
		c-0.4,0-0.8,0.1-1.1,0.2c-0.3,0.1-0.6,0.2-0.7,0.4c-0.2,0.2-0.2,0.4-0.2,0.7c0,0.3,0.1,0.5,0.3,0.6c0.2,0.2,0.6,0.3,1.2,0.4
		l2.1,0.5c1.2,0.3,2,0.7,2.6,1.2c0.6,0.6,0.9,1.3,0.9,2.2c0,0.6-0.1,1.2-0.4,1.7c-0.3,0.5-0.6,0.9-1.1,1.3c-0.5,0.3-1,0.6-1.7,0.8
		C848.3,26,847.6,26.1,846.8,26.1z M858,26.1c-1,0-1.8-0.2-2.6-0.6s-1.3-0.9-1.7-1.6c-0.4-0.7-0.6-1.5-0.6-2.5
		c0-0.7,0.1-1.4,0.3-1.9c0.2-0.6,0.6-1.1,1-1.5c0.4-0.4,0.9-0.7,1.5-0.9c0.6-0.2,1.3-0.3,2-0.3c1,0,1.8,0.2,2.6,0.6
		c0.7,0.4,1.3,0.9,1.7,1.6c0.4,0.7,0.6,1.5,0.6,2.5c0,0.7-0.1,1.3-0.3,1.9c-0.2,0.6-0.6,1.1-1,1.5c-0.4,0.4-0.9,0.7-1.5,0.9
		C859.4,26,858.8,26.1,858,26.1z M858,23.7c0.3,0,0.6-0.1,0.9-0.2c0.3-0.2,0.4-0.4,0.6-0.7c0.1-0.3,0.2-0.8,0.2-1.3
		c0-0.8-0.2-1.4-0.5-1.7c-0.3-0.4-0.7-0.5-1.2-0.5c-0.3,0-0.6,0.1-0.9,0.2s-0.5,0.4-0.6,0.7c-0.1,0.3-0.2,0.8-0.2,1.3
		c0,0.8,0.2,1.4,0.5,1.7C857.1,23.5,857.5,23.7,858,23.7z M868.9,26.1c-1,0-1.9-0.2-2.6-0.6c-0.7-0.4-1.3-0.9-1.7-1.6
		c-0.4-0.7-0.6-1.5-0.6-2.5c0-0.7,0.1-1.4,0.3-1.9c0.2-0.6,0.6-1.1,1-1.5c0.4-0.4,1-0.7,1.6-0.9c0.6-0.2,1.3-0.3,2-0.3
		c0.3,0,0.7,0,1.1,0.1c0.4,0.1,0.8,0.2,1.2,0.4c0.3,0.1,0.5,0.3,0.6,0.5c0.1,0.2,0.2,0.4,0.1,0.7c0,0.3-0.1,0.5-0.2,0.7
		c-0.1,0.2-0.3,0.3-0.5,0.4c-0.2,0.1-0.5,0-0.7-0.1c-0.2-0.1-0.4-0.2-0.6-0.2c-0.2,0-0.4-0.1-0.6-0.1c-0.3,0-0.6,0-0.9,0.1
		c-0.2,0.1-0.4,0.2-0.6,0.4c-0.2,0.2-0.3,0.4-0.4,0.7c-0.1,0.3-0.1,0.6-0.1,0.9c0,0.7,0.2,1.2,0.5,1.6c0.3,0.4,0.8,0.6,1.5,0.6
		c0.2,0,0.4,0,0.6-0.1c0.2,0,0.4-0.1,0.6-0.2c0.3-0.1,0.5-0.2,0.7-0.1c0.2,0.1,0.4,0.2,0.5,0.4c0.1,0.2,0.2,0.4,0.2,0.7
		c0,0.2,0,0.5-0.2,0.7c-0.1,0.2-0.3,0.4-0.6,0.5c-0.4,0.2-0.8,0.3-1.2,0.4C869.6,26,869.3,26.1,868.9,26.1z M874.7,26
		c-0.5,0-0.9-0.2-1.2-0.5c-0.3-0.3-0.4-0.7-0.4-1.3v-5.7c0-0.6,0.1-1,0.4-1.3c0.3-0.3,0.7-0.4,1.2-0.4c0.5,0,0.9,0.2,1.2,0.4
		c0.3,0.3,0.4,0.7,0.4,1.3v5.7c0,0.6-0.1,1-0.4,1.3C875.6,25.9,875.2,26,874.7,26z M874.7,15.6c-0.6,0-1-0.1-1.3-0.4
		c-0.3-0.3-0.5-0.6-0.5-1.2c0-0.5,0.2-0.9,0.5-1.1c0.3-0.3,0.8-0.4,1.3-0.4c0.6,0,1,0.1,1.3,0.4s0.5,0.6,0.5,1.1
		c0,0.5-0.2,0.9-0.5,1.2S875.3,15.6,874.7,15.6z M881.2,26.1c-0.7,0-1.3-0.1-1.8-0.4c-0.5-0.3-0.9-0.6-1.2-1
		c-0.3-0.4-0.4-0.9-0.4-1.5c0-0.6,0.2-1.2,0.5-1.5s0.9-0.6,1.6-0.8c0.7-0.2,1.7-0.3,3-0.3h1v1.5h-1c-0.5,0-0.9,0-1.2,0.1
		c-0.3,0.1-0.5,0.2-0.7,0.3c-0.1,0.1-0.2,0.3-0.2,0.5c0,0.3,0.1,0.5,0.3,0.7c0.2,0.2,0.5,0.3,0.9,0.3c0.3,0,0.6-0.1,0.8-0.2
		c0.2-0.1,0.4-0.3,0.6-0.5c0.1-0.2,0.2-0.5,0.2-0.8v-2.1c0-0.4-0.1-0.7-0.3-0.9c-0.2-0.2-0.6-0.3-1.1-0.3c-0.3,0-0.6,0-1,0.1
		c-0.4,0.1-0.8,0.2-1.2,0.3c-0.3,0.1-0.6,0.1-0.8,0.1s-0.4-0.2-0.5-0.4c-0.1-0.2-0.2-0.4-0.2-0.7c0-0.2,0.1-0.5,0.2-0.7
		c0.2-0.2,0.4-0.4,0.7-0.5c0.6-0.2,1.1-0.4,1.6-0.4c0.5-0.1,0.9-0.1,1.4-0.1c1,0,1.8,0.1,2.4,0.4c0.6,0.3,1.1,0.7,1.4,1.3
		c0.3,0.6,0.5,1.3,0.5,2.2v3.6c0,0.5-0.1,0.9-0.4,1.2s-0.6,0.4-1.1,0.4c-0.5,0-0.9-0.1-1.1-0.4c-0.3-0.3-0.4-0.7-0.4-1.2v-0.5
		l0.1,0.3c-0.1,0.4-0.2,0.7-0.4,1c-0.2,0.3-0.5,0.5-0.8,0.6C882.1,26,881.7,26.1,881.2,26.1z M891.8,26.1c-1.2,0-2-0.3-2.6-0.9
		c-0.5-0.6-0.8-1.6-0.8-2.8v-7.7c0-0.5,0.1-0.9,0.4-1.2c0.3-0.3,0.7-0.4,1.2-0.4c0.5,0,0.9,0.1,1.2,0.4c0.3,0.3,0.4,0.7,0.4,1.2v7.6
		c0,0.4,0.1,0.8,0.3,1c0.2,0.2,0.4,0.3,0.7,0.3c0.1,0,0.2,0,0.3,0c0.1,0,0.2,0,0.3-0.1c0.2,0,0.4,0.1,0.5,0.2c0.1,0.2,0.2,0.5,0.2,1
		c0,0.4-0.1,0.7-0.3,1c-0.2,0.2-0.4,0.3-0.8,0.4c-0.1,0-0.2,0-0.4,0.1C892.1,26.1,891.9,26.1,891.8,26.1z M901.7,25.9
		c-0.5,0-0.9-0.1-1.2-0.4c-0.3-0.3-0.4-0.7-0.4-1.2v-9.4c0-0.5,0.1-1,0.4-1.2c0.3-0.3,0.7-0.4,1.2-0.4c0.5,0,0.9,0.1,1.2,0.4
		c0.3,0.3,0.4,0.7,0.4,1.2v8.3h4.4c0.5,0,0.8,0.1,1,0.4c0.3,0.2,0.4,0.6,0.4,1s-0.1,0.8-0.4,1c-0.2,0.2-0.6,0.4-1,0.4H901.7z
		 M911.9,26c-0.5,0-0.9-0.2-1.2-0.5c-0.3-0.3-0.4-0.7-0.4-1.3v-5.7c0-0.6,0.1-1,0.4-1.3c0.3-0.3,0.7-0.4,1.2-0.4
		c0.5,0,0.9,0.2,1.2,0.4c0.3,0.3,0.4,0.7,0.4,1.3v5.7c0,0.6-0.1,1-0.4,1.3C912.8,25.9,912.4,26,911.9,26z M911.9,15.6
		c-0.6,0-1-0.1-1.3-0.4c-0.3-0.3-0.5-0.6-0.5-1.2c0-0.5,0.1-0.9,0.5-1.1c0.3-0.3,0.8-0.4,1.3-0.4c0.6,0,1,0.1,1.3,0.4
		s0.5,0.6,0.5,1.1c0,0.5-0.2,0.9-0.5,1.2S912.5,15.6,911.9,15.6z M917,26c-0.5,0-0.9-0.1-1.2-0.4c-0.3-0.3-0.4-0.7-0.4-1.2v-6
		c0-0.5,0.1-0.9,0.4-1.2c0.3-0.3,0.7-0.4,1.2-0.4c0.5,0,0.9,0.1,1.2,0.4c0.3,0.3,0.4,0.7,0.4,1.2v0.8l-0.2-0.7
		c0.3-0.6,0.7-1,1.2-1.3c0.5-0.3,1.1-0.5,1.8-0.5c0.7,0,1.3,0.1,1.8,0.4c0.5,0.3,0.8,0.7,1,1.3c0.2,0.6,0.3,1.3,0.3,2.1v3.8
		c0,0.5-0.1,0.9-0.4,1.2c-0.3,0.3-0.7,0.4-1.2,0.4c-0.5,0-0.9-0.1-1.2-0.4c-0.3-0.3-0.4-0.7-0.4-1.2v-3.7c0-0.5-0.1-0.9-0.3-1.2
		c-0.2-0.2-0.4-0.3-0.8-0.3c-0.5,0-0.9,0.2-1.2,0.5c-0.3,0.3-0.4,0.7-0.4,1.2v3.5C918.6,25.5,918.1,26,917,26z M927.9,26
		c-0.5,0-0.9-0.1-1.2-0.4c-0.3-0.3-0.4-0.7-0.4-1.2v-9.8c0-0.5,0.1-0.9,0.4-1.2c0.3-0.3,0.7-0.4,1.2-0.4s0.9,0.1,1.2,0.4
		c0.3,0.3,0.4,0.7,0.4,1.2v5.9h0l2.2-2.7c0.3-0.4,0.6-0.6,0.8-0.8c0.3-0.2,0.6-0.3,1.1-0.3s0.8,0.1,1,0.3c0.2,0.2,0.4,0.5,0.4,0.8
		c0,0.3-0.1,0.6-0.4,1l-2.4,2.8v-1.1l2.7,3.3c0.3,0.3,0.4,0.7,0.3,1c0,0.3-0.2,0.6-0.5,0.8c-0.2,0.2-0.6,0.3-1,0.3
		c-0.5,0-0.9-0.1-1.1-0.3c-0.3-0.2-0.6-0.5-0.9-0.8l-2.2-2.8h0v2.2C929.5,25.5,929,26,927.9,26z M940.2,26.1c-0.5,0-1.1,0-1.6-0.1
		c-0.5-0.1-1-0.2-1.5-0.4c-0.3-0.1-0.5-0.3-0.7-0.5c-0.1-0.2-0.2-0.4-0.2-0.6c0-0.2,0.1-0.4,0.2-0.6c0.1-0.2,0.3-0.3,0.5-0.4
		c0.2-0.1,0.5-0.1,0.7,0c0.5,0.2,1,0.3,1.4,0.4c0.4,0.1,0.8,0.1,1.2,0.1c0.4,0,0.8-0.1,0.9-0.2c0.2-0.1,0.3-0.3,0.3-0.5
		c0-0.2-0.1-0.3-0.2-0.4c-0.1-0.1-0.3-0.2-0.5-0.2l-2-0.3c-0.7-0.1-1.3-0.4-1.7-0.8c-0.4-0.4-0.6-1-0.6-1.6c0-0.6,0.2-1.2,0.5-1.6
		c0.4-0.5,0.8-0.8,1.5-1c0.6-0.3,1.3-0.4,2.1-0.4c0.5,0,1,0,1.5,0.1c0.4,0.1,0.9,0.2,1.3,0.4c0.3,0.1,0.4,0.3,0.6,0.5
		c0.1,0.2,0.1,0.4,0.1,0.6c0,0.2-0.1,0.4-0.2,0.6c-0.1,0.2-0.3,0.3-0.5,0.4c-0.2,0.1-0.5,0-0.8-0.1c-0.4-0.2-0.8-0.3-1.1-0.3
		c-0.3-0.1-0.6-0.1-0.8-0.1c-0.5,0-0.8,0.1-1.1,0.2c-0.2,0.1-0.3,0.3-0.3,0.5c0,0.2,0.1,0.3,0.2,0.4c0.1,0.1,0.3,0.2,0.5,0.2l2,0.3
		c0.8,0.1,1.4,0.4,1.8,0.8c0.4,0.4,0.6,0.9,0.6,1.6c0,1-0.4,1.7-1.1,2.3C942.4,25.8,941.4,26.1,940.2,26.1z"/>
	<path class="st1" d="M1037.2,25.9c-0.6,0-1-0.1-1.3-0.4c-0.3-0.3-0.4-0.7-0.4-1.3v-9.3c0-0.6,0.1-1,0.4-1.3
		c0.3-0.3,0.7-0.5,1.3-0.5h4.4c0.9,0,1.7,0.1,2.3,0.4c0.7,0.3,1.1,0.6,1.5,1.1c0.3,0.5,0.5,1.1,0.5,1.7c0,0.7-0.2,1.4-0.7,1.9
		c-0.4,0.5-1,0.9-1.7,1.1v-0.3c0.9,0.2,1.5,0.5,2,1c0.5,0.5,0.7,1.2,0.7,2.1c0,1.1-0.4,2-1.2,2.6c-0.8,0.6-1.9,1-3.3,1H1037.2z
		 M1038.6,23.4h2.7c0.6,0,1.1-0.1,1.3-0.3c0.3-0.2,0.4-0.6,0.4-1.1s-0.1-0.8-0.4-1c-0.3-0.2-0.7-0.3-1.3-0.3h-2.7V23.4z
		 M1038.6,18.2h2.4c0.6,0,1-0.1,1.3-0.3c0.3-0.2,0.4-0.5,0.4-1s-0.1-0.8-0.4-1c-0.3-0.2-0.7-0.3-1.3-0.3h-2.4V18.2z M1051.3,26.1
		c-1.2,0-2-0.3-2.6-0.9c-0.5-0.6-0.8-1.6-0.8-2.8v-7.7c0-0.5,0.1-0.9,0.4-1.2c0.3-0.3,0.7-0.4,1.2-0.4s0.9,0.1,1.2,0.4
		c0.3,0.3,0.4,0.7,0.4,1.2v7.6c0,0.4,0.1,0.8,0.2,1c0.2,0.2,0.4,0.3,0.7,0.3c0.1,0,0.2,0,0.2,0c0.1,0,0.2,0,0.3-0.1
		c0.2,0,0.4,0.1,0.5,0.2c0.1,0.2,0.2,0.5,0.2,1c0,0.4-0.1,0.7-0.2,1c-0.2,0.2-0.4,0.3-0.8,0.4c-0.1,0-0.2,0-0.4,0.1
		C1051.6,26.1,1051.4,26.1,1051.3,26.1z M1058.5,26.1c-1,0-1.8-0.2-2.6-0.6c-0.7-0.4-1.3-0.9-1.7-1.6s-0.6-1.5-0.6-2.5
		c0-0.7,0.1-1.4,0.3-1.9c0.2-0.6,0.6-1.1,1-1.5c0.4-0.4,1-0.7,1.6-0.9c0.6-0.2,1.3-0.3,2-0.3c1,0,1.8,0.2,2.6,0.6
		c0.7,0.4,1.3,0.9,1.7,1.6c0.4,0.7,0.6,1.5,0.6,2.5c0,0.7-0.1,1.3-0.3,1.9c-0.2,0.6-0.6,1.1-1,1.5c-0.4,0.4-0.9,0.7-1.5,0.9
		C1059.9,26,1059.3,26.1,1058.5,26.1z M1058.5,23.7c0.3,0,0.6-0.1,0.9-0.2c0.2-0.2,0.4-0.4,0.6-0.7c0.2-0.3,0.2-0.8,0.2-1.3
		c0-0.8-0.2-1.4-0.5-1.7c-0.3-0.4-0.7-0.5-1.2-0.5c-0.3,0-0.6,0.1-0.9,0.2s-0.5,0.4-0.6,0.7c-0.1,0.3-0.2,0.8-0.2,1.3
		c0,0.8,0.2,1.4,0.5,1.7C1057.6,23.5,1058,23.7,1058.5,23.7z M1069.3,29.3c-0.7,0-1.3,0-1.8-0.1c-0.6-0.1-1.1-0.2-1.5-0.4
		c-0.3-0.1-0.6-0.3-0.7-0.5c-0.2-0.2-0.2-0.5-0.2-0.7c0-0.3,0.1-0.5,0.2-0.7c0.1-0.2,0.3-0.4,0.5-0.4c0.2-0.1,0.5-0.1,0.7,0
		c0.5,0.2,1,0.4,1.4,0.4c0.4,0.1,0.8,0.1,1.1,0.1c0.7,0,1.3-0.2,1.6-0.5c0.4-0.3,0.6-0.8,0.6-1.4v-1.1h0.2c-0.2,0.5-0.6,0.9-1.1,1.2
		c-0.5,0.3-1.1,0.5-1.8,0.5c-0.8,0-1.5-0.2-2.1-0.5c-0.6-0.4-1-0.9-1.4-1.5c-0.3-0.7-0.5-1.4-0.5-2.3c0-0.7,0.1-1.3,0.3-1.8
		c0.2-0.5,0.5-1,0.8-1.4c0.3-0.4,0.8-0.7,1.2-0.9c0.5-0.2,1-0.3,1.6-0.3c0.7,0,1.3,0.2,1.8,0.5c0.5,0.3,0.9,0.7,1.1,1.2l-0.2,0.7
		v-0.8c0-0.5,0.1-0.9,0.4-1.2c0.3-0.3,0.7-0.4,1.2-0.4s0.9,0.1,1.2,0.4c0.3,0.3,0.4,0.7,0.4,1.2v6.2c0,1.5-0.4,2.7-1.3,3.5
		C1072.1,28.9,1070.9,29.3,1069.3,29.3z M1069.4,23.3c0.4,0,0.7-0.1,0.9-0.2c0.2-0.2,0.4-0.4,0.6-0.7c0.1-0.3,0.2-0.7,0.2-1.1
		c0-0.6-0.2-1.2-0.5-1.5c-0.3-0.4-0.7-0.5-1.3-0.5c-0.3,0-0.6,0.1-0.9,0.3c-0.3,0.2-0.5,0.4-0.6,0.7c-0.1,0.3-0.2,0.7-0.2,1.1
		c0,0.6,0.1,1.2,0.5,1.5C1068.5,23.1,1068.9,23.3,1069.4,23.3z"/>
	<path class="st1" d="M1159,26c-0.5,0-0.9-0.1-1.2-0.4c-0.3-0.3-0.4-0.7-0.4-1.2v-9.5c0-0.5,0.1-1,0.4-1.2c0.3-0.3,0.7-0.4,1.2-0.4
		h4.4c1.4,0,2.5,0.4,3.3,1.1c0.8,0.7,1.2,1.7,1.2,2.9c0,0.8-0.2,1.5-0.5,2.1c-0.3,0.6-0.9,1-1.5,1.4c-0.7,0.3-1.5,0.5-2.4,0.5
		l0.1-0.3h0.9c0.5,0,1,0.1,1.4,0.4c0.4,0.2,0.7,0.6,1,1.1l0.9,1.6c0.2,0.3,0.3,0.7,0.3,1c0,0.3-0.2,0.6-0.4,0.8
		c-0.2,0.2-0.6,0.3-1.1,0.3s-0.8-0.1-1.2-0.3c-0.3-0.2-0.5-0.5-0.8-0.9l-1.6-3c-0.1-0.3-0.3-0.4-0.5-0.5c-0.2-0.1-0.5-0.2-0.8-0.2
		h-1v3.2c0,0.5-0.1,0.9-0.4,1.2C1160,25.9,1159.6,26,1159,26z M1160.7,18.8h2.2c0.6,0,1.1-0.1,1.5-0.4c0.3-0.3,0.5-0.6,0.5-1.2
		c0-0.5-0.2-0.9-0.5-1.1c-0.3-0.3-0.8-0.4-1.5-0.4h-2.2V18.8z M1174.4,26.1c-1.1,0-2-0.2-2.8-0.6c-0.8-0.4-1.4-0.9-1.8-1.6
		c-0.4-0.7-0.6-1.5-0.6-2.5c0-0.9,0.2-1.7,0.6-2.4c0.4-0.7,1-1.2,1.7-1.6c0.7-0.4,1.5-0.6,2.4-0.6c0.7,0,1.3,0.1,1.8,0.3
		c0.5,0.2,1,0.5,1.4,0.9c0.4,0.4,0.7,0.9,0.9,1.4c0.2,0.6,0.3,1.2,0.3,1.9c0,0.2-0.1,0.4-0.2,0.5c-0.1,0.1-0.3,0.2-0.6,0.2h-5.5
		v-1.5h4l-0.3,0.2c0-0.4-0.1-0.8-0.2-1.1s-0.3-0.5-0.5-0.6c-0.2-0.1-0.5-0.2-0.9-0.2c-0.4,0-0.7,0.1-1,0.3c-0.3,0.2-0.5,0.4-0.6,0.8
		c-0.1,0.3-0.2,0.8-0.2,1.3v0.2c0,0.9,0.2,1.5,0.5,1.8c0.4,0.4,1,0.5,1.8,0.5c0.3,0,0.6,0,0.9-0.1c0.3-0.1,0.7-0.2,1-0.3
		c0.3-0.1,0.6-0.1,0.8-0.1c0.2,0.1,0.4,0.2,0.5,0.4c0.1,0.2,0.2,0.4,0.2,0.6c0,0.2-0.1,0.5-0.2,0.7c-0.1,0.2-0.3,0.4-0.6,0.5
		c-0.4,0.2-0.9,0.3-1.4,0.4C1175.4,26,1174.9,26.1,1174.4,26.1z M1182.9,26.1c-1.2,0-2-0.3-2.6-0.9c-0.5-0.6-0.8-1.6-0.8-2.8v-7.7
		c0-0.5,0.1-0.9,0.4-1.2c0.3-0.3,0.7-0.4,1.2-0.4c0.5,0,0.9,0.1,1.2,0.4c0.3,0.3,0.4,0.7,0.4,1.2v7.6c0,0.4,0.1,0.8,0.3,1
		c0.2,0.2,0.4,0.3,0.7,0.3c0.1,0,0.2,0,0.2,0c0.1,0,0.2,0,0.3-0.1c0.2,0,0.3,0.1,0.4,0.2c0.1,0.2,0.2,0.5,0.2,1c0,0.4-0.1,0.7-0.2,1
		c-0.2,0.2-0.4,0.3-0.8,0.4c-0.1,0-0.2,0-0.4,0.1C1183.3,26.1,1183.1,26.1,1182.9,26.1z M1188.9,26.1c-0.7,0-1.3-0.1-1.8-0.4
		c-0.5-0.3-0.9-0.6-1.2-1c-0.3-0.4-0.4-0.9-0.4-1.5c0-0.6,0.2-1.2,0.5-1.5c0.3-0.4,0.9-0.6,1.6-0.8c0.8-0.2,1.7-0.3,3-0.3h1v1.5h-1
		c-0.5,0-0.8,0-1.2,0.1c-0.3,0.1-0.5,0.2-0.7,0.3c-0.2,0.1-0.2,0.3-0.2,0.5c0,0.3,0.1,0.5,0.3,0.7c0.2,0.2,0.5,0.3,0.9,0.3
		c0.3,0,0.6-0.1,0.8-0.2c0.2-0.1,0.4-0.3,0.6-0.5c0.2-0.2,0.2-0.5,0.2-0.8v-2.1c0-0.4-0.1-0.7-0.3-0.9s-0.6-0.3-1.1-0.3
		c-0.3,0-0.6,0-1,0.1c-0.4,0.1-0.8,0.2-1.2,0.3c-0.3,0.1-0.6,0.1-0.8,0.1c-0.2-0.1-0.4-0.2-0.5-0.4c-0.1-0.2-0.2-0.4-0.2-0.7
		c0-0.2,0.1-0.5,0.2-0.7c0.2-0.2,0.4-0.4,0.7-0.5c0.6-0.2,1.1-0.4,1.6-0.4c0.5-0.1,0.9-0.1,1.3-0.1c1,0,1.8,0.1,2.4,0.4
		c0.6,0.3,1.1,0.7,1.4,1.3c0.3,0.6,0.5,1.3,0.5,2.2v3.6c0,0.5-0.1,0.9-0.4,1.2c-0.2,0.3-0.6,0.4-1.1,0.4c-0.5,0-0.9-0.1-1.1-0.4
		c-0.2-0.3-0.4-0.7-0.4-1.2v-0.5l0.1,0.3c-0.1,0.4-0.2,0.7-0.4,1c-0.2,0.3-0.5,0.5-0.9,0.6C1189.7,26,1189.4,26.1,1188.9,26.1z
		 M1200.7,26.1c-0.9,0-1.6-0.1-2.2-0.4c-0.6-0.3-1-0.7-1.3-1.2c-0.3-0.6-0.4-1.3-0.4-2.1v-2.9h-0.6c-0.4,0-0.7-0.1-0.9-0.3
		c-0.2-0.2-0.3-0.5-0.3-0.9c0-0.4,0.1-0.7,0.3-0.9c0.2-0.2,0.5-0.3,0.9-0.3h0.6v-1.1c0-0.5,0.1-0.9,0.4-1.2c0.3-0.3,0.7-0.4,1.2-0.4
		c0.5,0,0.9,0.1,1.2,0.4c0.3,0.3,0.4,0.7,0.4,1.2V17h1.5c0.4,0,0.7,0.1,0.9,0.3c0.2,0.2,0.3,0.5,0.3,0.9c0,0.4-0.1,0.7-0.3,0.9
		c-0.2,0.2-0.5,0.3-0.9,0.3h-1.5v2.8c0,0.4,0.1,0.8,0.3,1c0.2,0.2,0.6,0.3,1,0.3c0.2,0,0.3,0,0.5-0.1c0.2,0,0.3-0.1,0.4-0.1
		c0.2,0,0.3,0,0.5,0.2c0.1,0.1,0.2,0.4,0.2,0.8c0,0.4-0.1,0.7-0.2,0.9c-0.1,0.2-0.3,0.4-0.6,0.5c-0.2,0.1-0.4,0.1-0.7,0.1
		C1201.1,26,1200.9,26.1,1200.7,26.1z M1208.5,26.1c-1.1,0-2-0.2-2.8-0.6c-0.8-0.4-1.4-0.9-1.8-1.6c-0.4-0.7-0.6-1.5-0.6-2.5
		c0-0.9,0.2-1.7,0.6-2.4c0.4-0.7,1-1.2,1.7-1.6c0.7-0.4,1.5-0.6,2.4-0.6c0.7,0,1.3,0.1,1.8,0.3c0.5,0.2,1,0.5,1.4,0.9
		c0.4,0.4,0.7,0.9,0.9,1.4c0.2,0.6,0.3,1.2,0.3,1.9c0,0.2-0.1,0.4-0.2,0.5c-0.1,0.1-0.3,0.2-0.6,0.2h-5.5v-1.5h4l-0.3,0.2
		c0-0.4-0.1-0.8-0.2-1.1s-0.3-0.5-0.5-0.6c-0.2-0.1-0.5-0.2-0.9-0.2c-0.4,0-0.7,0.1-1,0.3c-0.3,0.2-0.5,0.4-0.6,0.8
		c-0.1,0.3-0.2,0.8-0.2,1.3v0.2c0,0.9,0.2,1.5,0.6,1.8c0.4,0.4,1,0.5,1.8,0.5c0.3,0,0.6,0,0.9-0.1c0.4-0.1,0.7-0.2,1-0.3
		c0.3-0.1,0.6-0.1,0.8-0.1c0.2,0.1,0.4,0.2,0.5,0.4c0.1,0.2,0.2,0.4,0.2,0.6c0,0.2,0,0.5-0.2,0.7c-0.1,0.2-0.3,0.4-0.6,0.5
		c-0.4,0.2-0.9,0.3-1.3,0.4C1209.4,26,1208.9,26.1,1208.5,26.1z M1217.1,26.1c-0.8,0-1.4-0.2-2-0.6c-0.6-0.4-1-0.9-1.4-1.6
		c-0.3-0.7-0.5-1.5-0.5-2.5c0-1,0.2-1.8,0.5-2.5c0.3-0.7,0.8-1.2,1.4-1.6c0.6-0.4,1.3-0.6,2-0.6c0.7,0,1.3,0.2,1.8,0.5
		c0.5,0.3,0.9,0.7,1.1,1.2h-0.2v-3.9c0-0.5,0.1-0.9,0.4-1.2c0.3-0.3,0.7-0.4,1.2-0.4c0.5,0,0.9,0.1,1.2,0.4c0.3,0.3,0.4,0.7,0.4,1.2
		v9.8c0,0.5-0.1,0.9-0.4,1.2c-0.3,0.3-0.7,0.4-1.2,0.4c-0.5,0-0.9-0.1-1.2-0.4c-0.3-0.3-0.4-0.7-0.4-1.2v-1l0.2,0.9
		c-0.2,0.5-0.5,1-1.1,1.3C1218.4,25.9,1217.8,26.1,1217.1,26.1z M1218.1,23.7c0.3,0,0.6-0.1,0.9-0.2c0.3-0.2,0.5-0.4,0.6-0.7
		c0.1-0.3,0.2-0.8,0.2-1.3c0-0.8-0.2-1.4-0.5-1.7c-0.3-0.4-0.7-0.5-1.2-0.5c-0.3,0-0.6,0.1-0.9,0.2c-0.3,0.2-0.4,0.4-0.6,0.7
		c-0.1,0.3-0.2,0.8-0.2,1.3c0,0.8,0.1,1.4,0.5,1.7C1217.2,23.5,1217.6,23.7,1218.1,23.7z M1231.8,26c-0.5,0-0.9-0.1-1.2-0.4
		c-0.3-0.3-0.4-0.7-0.4-1.3v-9.6c0-0.6,0.1-1,0.4-1.3c0.3-0.3,0.7-0.4,1.2-0.4c0.5,0,0.9,0.1,1.2,0.4c0.3,0.3,0.4,0.7,0.4,1.3v9.6
		c0,0.5-0.1,1-0.4,1.3C1232.8,25.9,1232.4,26,1231.8,26z M1240.2,26.1c-0.9,0-1.6-0.1-2.2-0.4c-0.6-0.3-1-0.7-1.3-1.2
		c-0.3-0.6-0.4-1.3-0.4-2.1v-2.9h-0.6c-0.4,0-0.7-0.1-0.9-0.3c-0.2-0.2-0.3-0.5-0.3-0.9c0-0.4,0.1-0.7,0.3-0.9
		c0.2-0.2,0.5-0.3,0.9-0.3h0.6v-1.1c0-0.5,0.1-0.9,0.4-1.2c0.3-0.3,0.7-0.4,1.2-0.4c0.5,0,0.9,0.1,1.2,0.4c0.3,0.3,0.4,0.7,0.4,1.2
		V17h1.5c0.4,0,0.7,0.1,0.9,0.3c0.2,0.2,0.3,0.5,0.3,0.9c0,0.4-0.1,0.7-0.3,0.9c-0.2,0.2-0.5,0.3-0.9,0.3h-1.5v2.8
		c0,0.4,0.1,0.8,0.3,1c0.2,0.2,0.6,0.3,1,0.3c0.2,0,0.3,0,0.5-0.1c0.2,0,0.3-0.1,0.4-0.1c0.2,0,0.3,0,0.5,0.2
		c0.1,0.1,0.2,0.4,0.2,0.8c0,0.4-0.1,0.7-0.2,0.9c-0.1,0.2-0.3,0.4-0.6,0.5c-0.2,0.1-0.4,0.1-0.7,0.1
		C1240.6,26,1240.4,26.1,1240.2,26.1z M1247.9,26.1c-1.1,0-2-0.2-2.8-0.6c-0.8-0.4-1.4-0.9-1.8-1.6c-0.4-0.7-0.6-1.5-0.6-2.5
		c0-0.9,0.2-1.7,0.6-2.4c0.4-0.7,1-1.2,1.7-1.6c0.7-0.4,1.5-0.6,2.4-0.6c0.7,0,1.3,0.1,1.8,0.3c0.5,0.2,1,0.5,1.4,0.9
		c0.4,0.4,0.7,0.9,0.9,1.4c0.2,0.6,0.3,1.2,0.3,1.9c0,0.2-0.1,0.4-0.2,0.5c-0.1,0.1-0.3,0.2-0.6,0.2h-5.5v-1.5h4l-0.3,0.2
		c0-0.4-0.1-0.8-0.2-1.1s-0.3-0.5-0.5-0.6c-0.2-0.1-0.5-0.2-0.9-0.2c-0.4,0-0.7,0.1-1,0.3c-0.3,0.2-0.5,0.4-0.6,0.8
		c-0.1,0.3-0.2,0.8-0.2,1.3v0.2c0,0.9,0.2,1.5,0.6,1.8c0.4,0.4,1,0.5,1.8,0.5c0.3,0,0.6,0,0.9-0.1c0.3-0.1,0.7-0.2,1-0.3
		c0.3-0.1,0.6-0.1,0.8-0.1c0.2,0.1,0.4,0.2,0.5,0.4c0.1,0.2,0.2,0.4,0.2,0.6c0,0.2,0,0.5-0.2,0.7c-0.1,0.2-0.3,0.4-0.6,0.5
		c-0.4,0.2-0.9,0.3-1.3,0.4C1248.9,26,1248.4,26.1,1247.9,26.1z M1254.7,26c-0.5,0-0.9-0.1-1.2-0.4c-0.3-0.3-0.4-0.7-0.4-1.2v-6
		c0-0.5,0.1-0.9,0.4-1.2c0.3-0.3,0.7-0.4,1.2-0.4s0.9,0.1,1.2,0.4c0.3,0.3,0.4,0.7,0.4,1.2v1l-0.2-0.9c0.2-0.5,0.6-0.9,1.1-1.3
		c0.5-0.3,1.1-0.5,1.8-0.5c0.7,0,1.2,0.2,1.7,0.5c0.5,0.3,0.8,0.8,1,1.4h-0.2c0.3-0.6,0.7-1,1.2-1.4c0.6-0.3,1.2-0.5,1.8-0.5
		c0.7,0,1.3,0.1,1.7,0.4c0.4,0.3,0.8,0.7,1,1.3c0.2,0.6,0.3,1.3,0.3,2.1v3.8c0,0.5-0.1,0.9-0.4,1.2c-0.3,0.3-0.7,0.4-1.2,0.4
		c-0.5,0-0.9-0.1-1.2-0.4c-0.3-0.3-0.4-0.7-0.4-1.2v-3.7c0-0.5-0.1-0.9-0.2-1.1c-0.2-0.2-0.4-0.3-0.8-0.3c-0.4,0-0.8,0.2-1,0.5
		c-0.2,0.3-0.3,0.8-0.3,1.3v3.3c0,0.5-0.1,0.9-0.4,1.2c-0.3,0.3-0.7,0.4-1.2,0.4c-0.5,0-0.9-0.1-1.2-0.4s-0.4-0.7-0.4-1.2v-3.7
		c0-0.5-0.1-0.9-0.2-1.1c-0.1-0.2-0.4-0.3-0.8-0.3c-0.4,0-0.8,0.2-1,0.5c-0.2,0.3-0.3,0.8-0.3,1.3v3.3
		C1256.3,25.5,1255.8,26,1254.7,26z M1272.9,26.1c-0.5,0-1.1,0-1.6-0.1c-0.5-0.1-1-0.2-1.5-0.4c-0.3-0.1-0.5-0.3-0.7-0.5
		c-0.1-0.2-0.2-0.4-0.2-0.6c0-0.2,0.1-0.4,0.2-0.6c0.1-0.2,0.3-0.3,0.5-0.4c0.2-0.1,0.4-0.1,0.7,0c0.5,0.2,1,0.3,1.3,0.4
		c0.4,0.1,0.8,0.1,1.2,0.1c0.4,0,0.8-0.1,0.9-0.2c0.2-0.1,0.3-0.3,0.3-0.5c0-0.2-0.1-0.3-0.2-0.4c-0.1-0.1-0.3-0.2-0.5-0.2l-2-0.3
		c-0.7-0.1-1.3-0.4-1.7-0.8c-0.4-0.4-0.6-1-0.6-1.6c0-0.6,0.2-1.2,0.5-1.6c0.4-0.5,0.9-0.8,1.5-1c0.6-0.3,1.3-0.4,2.1-0.4
		c0.5,0,1,0,1.5,0.1c0.4,0.1,0.9,0.2,1.3,0.4c0.3,0.1,0.5,0.3,0.6,0.5c0.1,0.2,0.2,0.4,0.1,0.6c0,0.2-0.1,0.4-0.2,0.6
		c-0.1,0.2-0.3,0.3-0.5,0.4c-0.2,0.1-0.5,0-0.8-0.1c-0.4-0.2-0.8-0.3-1.1-0.3c-0.3-0.1-0.6-0.1-0.8-0.1c-0.5,0-0.8,0.1-1.1,0.2
		c-0.2,0.1-0.3,0.3-0.3,0.5c0,0.2,0,0.3,0.2,0.4c0.1,0.1,0.3,0.2,0.5,0.2l2,0.3c0.8,0.1,1.4,0.4,1.8,0.8c0.4,0.4,0.6,0.9,0.6,1.6
		c0,1-0.4,1.7-1.1,2.3C1275.1,25.8,1274.1,26.1,1272.9,26.1z"/>
	<path class="st1" d="M1339.3,13.6c-0.5,0-1,0-1.5-0.1c-0.5-0.1-1-0.2-1.5-0.3c-0.5-0.1-0.9-0.3-1.3-0.5c-0.3-0.2-0.5-0.4-0.7-0.6
		c-0.1-0.3-0.2-0.5-0.2-0.8c0-0.3,0.1-0.5,0.3-0.8c0.2-0.2,0.4-0.4,0.7-0.4c0.3-0.1,0.6,0,0.9,0.1c0.5,0.2,1,0.4,1.5,0.5
		c0.6,0.1,1.1,0.2,1.6,0.2c0.8,0,1.3-0.1,1.7-0.3c0.3-0.2,0.5-0.5,0.5-0.8c0-0.3-0.1-0.5-0.3-0.7c-0.2-0.2-0.6-0.3-1.2-0.4l-2.1-0.4
		c-1.2-0.2-2-0.7-2.6-1.3c-0.6-0.6-0.8-1.4-0.8-2.3c0-0.6,0.1-1.2,0.4-1.7c0.3-0.5,0.6-1,1.1-1.3c0.5-0.4,1-0.6,1.7-0.8
		c0.7-0.2,1.4-0.3,2.2-0.3c0.6,0,1.2,0.1,1.9,0.2c0.6,0.1,1.2,0.3,1.7,0.6c0.3,0.1,0.5,0.3,0.6,0.6c0.1,0.3,0.2,0.5,0.1,0.8
		c0,0.3-0.1,0.5-0.3,0.7c-0.2,0.2-0.4,0.3-0.7,0.4c-0.3,0.1-0.6,0-1-0.1c-0.3-0.2-0.7-0.3-1.2-0.3c-0.4-0.1-0.8-0.1-1.3-0.1
		c-0.4,0-0.8,0.1-1.1,0.2c-0.3,0.1-0.6,0.2-0.7,0.4c-0.2,0.2-0.2,0.4-0.2,0.7c0,0.3,0.1,0.5,0.3,0.6c0.2,0.2,0.6,0.3,1.2,0.4
		l2.1,0.5c1.2,0.3,2,0.7,2.6,1.2c0.6,0.6,0.9,1.3,0.9,2.2c0,0.6-0.1,1.2-0.4,1.7c-0.2,0.5-0.6,0.9-1.1,1.3c-0.5,0.3-1,0.6-1.7,0.8
		C1340.9,13.5,1340.2,13.6,1339.3,13.6z M1350.6,13.6c-0.9,0-1.7-0.1-2.2-0.4c-0.6-0.3-1-0.7-1.3-1.2c-0.3-0.6-0.4-1.3-0.4-2.1V6.9
		h-0.6c-0.4,0-0.7-0.1-0.9-0.3c-0.2-0.2-0.3-0.5-0.3-0.9c0-0.4,0.1-0.7,0.3-0.9c0.2-0.2,0.5-0.3,0.9-0.3h0.6V3.4
		c0-0.5,0.1-0.9,0.4-1.2c0.3-0.3,0.7-0.4,1.2-0.4c0.5,0,0.9,0.1,1.2,0.4c0.3,0.3,0.4,0.7,0.4,1.2v1.1h1.5c0.4,0,0.7,0.1,0.9,0.3
		c0.2,0.2,0.3,0.5,0.3,0.9c0,0.4-0.1,0.7-0.3,0.9s-0.5,0.3-0.9,0.3h-1.5v2.8c0,0.4,0.1,0.8,0.3,1c0.2,0.2,0.5,0.3,1,0.3
		c0.2,0,0.3,0,0.5-0.1c0.2,0,0.3-0.1,0.4-0.1c0.2,0,0.3,0,0.5,0.2c0.1,0.1,0.2,0.4,0.2,0.8c0,0.4-0.1,0.7-0.2,0.9
		c-0.1,0.2-0.3,0.4-0.6,0.5c-0.2,0.1-0.4,0.1-0.7,0.1C1351,13.5,1350.8,13.6,1350.6,13.6z M1355.3,13.5c-0.5,0-0.9-0.1-1.2-0.4
		c-0.3-0.3-0.4-0.7-0.4-1.2V6c0-0.5,0.1-0.9,0.4-1.2c0.3-0.3,0.7-0.4,1.2-0.4c0.5,0,0.9,0.1,1.2,0.4c0.3,0.3,0.4,0.7,0.4,1.2v0.7
		h-0.2c0.1-0.7,0.4-1.3,0.9-1.7c0.5-0.4,1.1-0.6,1.9-0.7c0.3,0,0.6,0.1,0.8,0.3c0.2,0.2,0.3,0.5,0.3,1c0,0.4-0.1,0.8-0.3,1
		c-0.2,0.3-0.5,0.4-1,0.5l-0.4,0c-0.6,0.1-1.1,0.2-1.4,0.5c-0.3,0.3-0.4,0.7-0.4,1.3v3c0,0.5-0.1,0.9-0.4,1.2
		S1355.8,13.5,1355.3,13.5z M1366.1,13.6c-1.1,0-2-0.2-2.8-0.6c-0.8-0.4-1.4-0.9-1.8-1.6c-0.4-0.7-0.6-1.5-0.6-2.5
		c0-0.9,0.2-1.7,0.6-2.4c0.4-0.7,1-1.2,1.7-1.6c0.7-0.4,1.5-0.6,2.4-0.6c0.7,0,1.3,0.1,1.8,0.3c0.5,0.2,1,0.5,1.4,0.9
		c0.4,0.4,0.7,0.9,0.9,1.4c0.2,0.6,0.3,1.2,0.3,1.9c0,0.2-0.1,0.4-0.2,0.5c-0.1,0.1-0.3,0.2-0.6,0.2h-5.5V8.1h4l-0.3,0.2
		c0-0.4-0.1-0.8-0.2-1.1s-0.3-0.5-0.5-0.6c-0.2-0.1-0.5-0.2-0.9-0.2c-0.4,0-0.7,0.1-1,0.3c-0.3,0.2-0.5,0.4-0.6,0.8
		s-0.2,0.8-0.2,1.3v0.2c0,0.9,0.2,1.5,0.6,1.8c0.4,0.4,1,0.5,1.8,0.5c0.3,0,0.6,0,0.9-0.1c0.3-0.1,0.7-0.2,1-0.3
		c0.3-0.1,0.6-0.1,0.8-0.1c0.2,0.1,0.4,0.2,0.5,0.4c0.1,0.2,0.2,0.4,0.2,0.6c0,0.2,0,0.5-0.2,0.7c-0.1,0.2-0.3,0.4-0.6,0.5
		c-0.4,0.2-0.9,0.3-1.3,0.4C1367.1,13.5,1366.6,13.6,1366.1,13.6z M1374.4,13.6c-0.7,0-1.3-0.1-1.8-0.4s-0.9-0.6-1.2-1
		c-0.3-0.4-0.4-0.9-0.4-1.5c0-0.6,0.2-1.2,0.5-1.5c0.3-0.4,0.9-0.6,1.6-0.8c0.8-0.2,1.7-0.3,3-0.3h1v1.5h-1c-0.5,0-0.8,0-1.2,0.1
		c-0.3,0.1-0.5,0.2-0.7,0.3c-0.2,0.1-0.2,0.3-0.2,0.5c0,0.3,0.1,0.5,0.3,0.7c0.2,0.2,0.5,0.3,0.9,0.3c0.3,0,0.6-0.1,0.8-0.2
		c0.2-0.1,0.4-0.3,0.6-0.5c0.1-0.2,0.2-0.5,0.2-0.8V7.8c0-0.4-0.1-0.7-0.3-0.9c-0.2-0.2-0.6-0.3-1.1-0.3c-0.3,0-0.6,0-1,0.1
		c-0.4,0.1-0.8,0.2-1.2,0.3c-0.3,0.1-0.6,0.1-0.8,0.1c-0.2-0.1-0.4-0.2-0.5-0.4c-0.1-0.2-0.2-0.4-0.2-0.7c0-0.2,0.1-0.5,0.2-0.7
		c0.2-0.2,0.4-0.4,0.7-0.5c0.6-0.2,1.1-0.4,1.6-0.4c0.5-0.1,0.9-0.1,1.3-0.1c1,0,1.8,0.1,2.4,0.4c0.6,0.3,1.1,0.7,1.4,1.3
		c0.3,0.6,0.5,1.3,0.5,2.2v3.6c0,0.5-0.1,0.9-0.4,1.2c-0.2,0.3-0.6,0.4-1.1,0.4c-0.5,0-0.9-0.1-1.1-0.4c-0.2-0.3-0.4-0.7-0.4-1.2
		v-0.5l0.1,0.3c-0.1,0.4-0.2,0.7-0.4,1c-0.2,0.3-0.5,0.5-0.8,0.6C1375.2,13.5,1374.8,13.6,1374.4,13.6z M1383.1,13.5
		c-0.5,0-0.9-0.1-1.2-0.4c-0.3-0.3-0.4-0.7-0.4-1.2V6c0-0.5,0.1-0.9,0.4-1.2c0.3-0.3,0.7-0.4,1.2-0.4c0.5,0,0.9,0.1,1.2,0.4
		c0.3,0.3,0.4,0.7,0.4,1.2v1l-0.2-0.9c0.2-0.5,0.6-0.9,1.1-1.3c0.5-0.3,1.1-0.5,1.8-0.5c0.6,0,1.2,0.2,1.7,0.5
		c0.5,0.3,0.8,0.8,1,1.4h-0.2c0.3-0.6,0.7-1,1.2-1.4c0.6-0.3,1.2-0.5,1.8-0.5c0.7,0,1.3,0.1,1.7,0.4c0.4,0.3,0.8,0.7,1,1.3
		c0.2,0.6,0.3,1.3,0.3,2.1v3.8c0,0.5-0.2,0.9-0.4,1.2c-0.3,0.3-0.7,0.4-1.2,0.4s-0.9-0.1-1.2-0.4c-0.3-0.3-0.4-0.7-0.4-1.2V8.2
		c0-0.5-0.1-0.9-0.2-1.1c-0.2-0.2-0.4-0.3-0.8-0.3c-0.5,0-0.8,0.2-1,0.5c-0.2,0.3-0.3,0.8-0.3,1.3v3.3c0,0.5-0.1,0.9-0.4,1.2
		c-0.3,0.3-0.7,0.4-1.2,0.4c-0.5,0-0.9-0.1-1.2-0.4c-0.3-0.3-0.4-0.7-0.4-1.2V8.2c0-0.5-0.1-0.9-0.2-1.1s-0.4-0.3-0.8-0.3
		c-0.4,0-0.8,0.2-1,0.5c-0.2,0.3-0.3,0.8-0.3,1.3v3.3C1384.8,13,1384.2,13.5,1383.1,13.5z M1399.3,13.5c-0.5,0-0.9-0.2-1.2-0.5
		c-0.3-0.3-0.4-0.7-0.4-1.3V6.1c0-0.6,0.1-1,0.4-1.3c0.3-0.3,0.7-0.4,1.2-0.4c0.5,0,0.9,0.2,1.2,0.4c0.3,0.3,0.4,0.7,0.4,1.3v5.7
		c0,0.6-0.1,1-0.4,1.3C1400.3,13.4,1399.9,13.5,1399.3,13.5z M1399.3,3.1c-0.6,0-1-0.1-1.3-0.4c-0.3-0.3-0.4-0.6-0.4-1.2
		c0-0.5,0.1-0.9,0.4-1.1c0.3-0.3,0.8-0.4,1.3-0.4c0.6,0,1,0.1,1.3,0.4c0.3,0.3,0.4,0.6,0.4,1.1c0,0.5-0.2,0.9-0.4,1.2
		C1400.4,2.9,1399.9,3.1,1399.3,3.1z M1404.4,13.5c-0.5,0-0.9-0.1-1.2-0.4c-0.3-0.3-0.4-0.7-0.4-1.2V6c0-0.5,0.1-0.9,0.4-1.2
		c0.3-0.3,0.7-0.4,1.2-0.4c0.5,0,0.9,0.1,1.2,0.4c0.3,0.3,0.4,0.7,0.4,1.2v0.8l-0.2-0.7c0.3-0.6,0.7-1,1.2-1.3
		c0.5-0.3,1.2-0.5,1.8-0.5c0.7,0,1.3,0.1,1.7,0.4c0.5,0.3,0.8,0.7,1,1.3c0.2,0.6,0.3,1.3,0.3,2.1v3.8c0,0.5-0.1,0.9-0.4,1.2
		c-0.3,0.3-0.7,0.4-1.2,0.4s-0.9-0.1-1.2-0.4c-0.3-0.3-0.4-0.7-0.4-1.2V8.3c0-0.5-0.1-0.9-0.3-1.2c-0.2-0.2-0.5-0.3-0.8-0.3
		c-0.5,0-0.9,0.2-1.2,0.5c-0.3,0.3-0.4,0.7-0.4,1.2v3.5C1406,13,1405.5,13.5,1404.4,13.5z M1418.1,16.8c-0.7,0-1.3,0-1.8-0.1
		c-0.6-0.1-1.1-0.2-1.5-0.4c-0.3-0.1-0.6-0.3-0.7-0.5c-0.1-0.2-0.2-0.5-0.2-0.7c0-0.3,0.1-0.5,0.2-0.7c0.1-0.2,0.3-0.4,0.5-0.4
		c0.2-0.1,0.4-0.1,0.7,0c0.5,0.2,1,0.4,1.4,0.4c0.4,0.1,0.8,0.1,1.1,0.1c0.7,0,1.3-0.2,1.6-0.5c0.4-0.3,0.6-0.8,0.6-1.4v-1.1h0.1
		c-0.2,0.5-0.5,0.9-1.1,1.2c-0.6,0.3-1.2,0.5-1.8,0.5c-0.8,0-1.5-0.2-2.1-0.5c-0.6-0.4-1.1-0.9-1.4-1.5c-0.3-0.7-0.5-1.4-0.5-2.3
		c0-0.7,0.1-1.3,0.3-1.8c0.2-0.5,0.5-1,0.8-1.4c0.3-0.4,0.8-0.7,1.2-0.9c0.5-0.2,1-0.3,1.6-0.3c0.7,0,1.3,0.2,1.8,0.5
		c0.5,0.3,0.9,0.7,1.1,1.2l-0.2,0.7V6c0-0.5,0.1-0.9,0.4-1.2c0.3-0.3,0.7-0.4,1.2-0.4c0.5,0,0.9,0.1,1.1,0.4
		c0.3,0.3,0.4,0.7,0.4,1.2v6.2c0,1.5-0.4,2.7-1.3,3.5C1421,16.4,1419.7,16.8,1418.1,16.8z M1418.3,10.8c0.4,0,0.7-0.1,0.9-0.2
		c0.3-0.2,0.4-0.4,0.6-0.7c0.1-0.3,0.2-0.7,0.2-1.1c0-0.6-0.1-1.2-0.5-1.5c-0.3-0.4-0.7-0.5-1.3-0.5c-0.3,0-0.6,0.1-0.9,0.3
		c-0.3,0.2-0.5,0.4-0.6,0.7c-0.1,0.3-0.2,0.7-0.2,1.1c0,0.6,0.2,1.2,0.5,1.5C1417.3,10.6,1417.7,10.8,1418.3,10.8z M1358.7,38.4
		c-0.5,0-0.9-0.1-1.2-0.4c-0.3-0.3-0.4-0.7-0.4-1.2v-9.4c0-0.5,0.1-1,0.4-1.2c0.3-0.3,0.7-0.4,1.2-0.4c0.5,0,0.9,0.1,1.2,0.4
		s0.4,0.7,0.4,1.2v8.3h4.4c0.5,0,0.8,0.1,1,0.4c0.3,0.2,0.4,0.6,0.4,1s-0.1,0.8-0.4,1c-0.2,0.2-0.6,0.4-1,0.4H1358.7z M1368.9,38.5
		c-0.5,0-0.9-0.2-1.2-0.5c-0.3-0.3-0.4-0.7-0.4-1.3v-5.7c0-0.6,0.1-1,0.4-1.3c0.3-0.3,0.7-0.4,1.2-0.4c0.5,0,0.9,0.2,1.2,0.4
		c0.3,0.3,0.4,0.7,0.4,1.3v5.7c0,0.6-0.1,1-0.4,1.3C1369.9,38.4,1369.5,38.5,1368.9,38.5z M1368.9,28.1c-0.6,0-1-0.1-1.3-0.4
		c-0.3-0.3-0.4-0.6-0.4-1.2c0-0.5,0.2-0.9,0.4-1.1c0.3-0.3,0.8-0.4,1.3-0.4c0.6,0,1,0.1,1.3,0.4s0.4,0.6,0.4,1.1
		c0,0.5-0.1,0.9-0.4,1.2S1369.5,28.1,1368.9,28.1z M1374,38.5c-0.5,0-0.9-0.1-1.2-0.4c-0.3-0.3-0.4-0.7-0.4-1.2v-6
		c0-0.5,0.1-0.9,0.4-1.2c0.3-0.3,0.7-0.4,1.2-0.4c0.5,0,0.9,0.1,1.2,0.4c0.3,0.3,0.4,0.7,0.4,1.2v0.8l-0.2-0.7
		c0.3-0.6,0.7-1,1.2-1.3c0.5-0.3,1.2-0.5,1.8-0.5c0.7,0,1.3,0.1,1.7,0.4c0.5,0.3,0.8,0.7,1,1.3c0.2,0.6,0.3,1.3,0.3,2.1v3.8
		c0,0.5-0.1,0.9-0.4,1.2c-0.3,0.3-0.7,0.4-1.2,0.4s-0.9-0.1-1.2-0.4c-0.3-0.3-0.4-0.7-0.4-1.2v-3.7c0-0.5-0.1-0.9-0.3-1.2
		c-0.2-0.2-0.4-0.3-0.8-0.3c-0.5,0-0.9,0.2-1.2,0.5c-0.3,0.3-0.4,0.7-0.4,1.2v3.5C1375.6,38,1375.1,38.5,1374,38.5z M1384.9,38.5
		c-0.5,0-0.9-0.1-1.2-0.4c-0.3-0.3-0.4-0.7-0.4-1.2v-9.8c0-0.5,0.1-0.9,0.4-1.2c0.3-0.3,0.7-0.4,1.2-0.4c0.5,0,0.9,0.1,1.2,0.4
		c0.3,0.3,0.4,0.7,0.4,1.2v5.9h0l2.2-2.7c0.3-0.4,0.6-0.6,0.8-0.8c0.3-0.2,0.6-0.3,1.1-0.3c0.4,0,0.8,0.1,1,0.3s0.4,0.5,0.4,0.8
		c0,0.3-0.1,0.6-0.4,1l-2.4,2.8v-1.1l2.7,3.3c0.3,0.3,0.4,0.7,0.3,1c0,0.3-0.2,0.6-0.5,0.8s-0.6,0.3-1,0.3c-0.5,0-0.9-0.1-1.2-0.3
		c-0.3-0.2-0.6-0.5-0.9-0.8l-2.2-2.8h0v2.2C1386.5,38,1386,38.5,1384.9,38.5z M1397.2,38.6c-0.5,0-1.1,0-1.6-0.1
		c-0.5-0.1-1-0.2-1.5-0.4c-0.3-0.1-0.5-0.3-0.6-0.5c-0.1-0.2-0.2-0.4-0.2-0.6c0-0.2,0.1-0.4,0.2-0.6c0.1-0.2,0.3-0.3,0.5-0.4
		c0.2-0.1,0.5-0.1,0.7,0c0.5,0.2,0.9,0.3,1.3,0.4c0.4,0.1,0.8,0.1,1.2,0.1c0.4,0,0.8-0.1,1-0.2c0.2-0.1,0.3-0.3,0.3-0.5
		c0-0.2-0.1-0.3-0.2-0.4c-0.1-0.1-0.3-0.2-0.5-0.2l-2-0.3c-0.7-0.1-1.3-0.4-1.7-0.8c-0.4-0.4-0.6-1-0.6-1.6c0-0.6,0.2-1.2,0.5-1.6
		c0.4-0.5,0.8-0.8,1.4-1c0.6-0.3,1.3-0.4,2.2-0.4c0.5,0,1,0,1.5,0.1c0.5,0.1,0.9,0.2,1.3,0.4c0.3,0.1,0.4,0.3,0.6,0.5
		c0.1,0.2,0.2,0.4,0.1,0.6c0,0.2-0.1,0.4-0.2,0.6c-0.1,0.2-0.3,0.3-0.5,0.4c-0.2,0.1-0.5,0-0.8-0.1c-0.4-0.2-0.8-0.3-1.1-0.3
		c-0.3-0.1-0.6-0.1-0.8-0.1c-0.5,0-0.8,0.1-1,0.2c-0.2,0.1-0.3,0.3-0.3,0.5c0,0.2,0.1,0.3,0.2,0.4c0.1,0.1,0.3,0.2,0.5,0.2l2,0.3
		c0.8,0.1,1.4,0.4,1.8,0.8c0.4,0.4,0.6,0.9,0.6,1.6c0,1-0.4,1.7-1.1,2.3C1399.4,38.3,1398.4,38.6,1397.2,38.6z"/>
	<path class="st1" d="M1487.1,26c-0.5,0-0.9-0.1-1.2-0.4c-0.3-0.3-0.4-0.7-0.4-1.2v-9.5c0-0.5,0.1-1,0.4-1.2
		c0.3-0.3,0.7-0.4,1.2-0.4h4.4c1.4,0,2.6,0.4,3.3,1.1c0.8,0.7,1.2,1.7,1.2,3c0,1.3-0.4,2.3-1.2,3.1c-0.8,0.7-1.9,1.1-3.3,1.1h-2.8
		v2.9c0,0.5-0.1,0.9-0.4,1.2C1488,25.9,1487.6,26,1487.1,26z M1488.7,19h2.2c0.6,0,1.1-0.1,1.4-0.4c0.3-0.3,0.5-0.7,0.5-1.2
		c0-0.6-0.2-1-0.5-1.2c-0.3-0.3-0.8-0.4-1.4-0.4h-2.2V19z M1498.8,26c-0.5,0-0.9-0.1-1.2-0.4c-0.3-0.3-0.4-0.7-0.4-1.2v-6
		c0-0.5,0.1-0.9,0.4-1.2c0.3-0.3,0.7-0.4,1.2-0.4c0.5,0,0.9,0.1,1.2,0.4c0.3,0.3,0.4,0.7,0.4,1.2v0.7h-0.2c0.1-0.7,0.4-1.3,0.9-1.7
		c0.5-0.4,1.1-0.6,1.9-0.7c0.3,0,0.6,0.1,0.8,0.3c0.2,0.2,0.3,0.5,0.3,1c0,0.4-0.1,0.8-0.3,1c-0.2,0.3-0.5,0.4-1,0.5l-0.4,0
		c-0.6,0.1-1.1,0.2-1.4,0.5c-0.3,0.3-0.4,0.7-0.4,1.3v3c0,0.5-0.1,0.9-0.4,1.2C1499.7,25.9,1499.3,26,1498.8,26z M1509.3,26.1
		c-1,0-1.8-0.2-2.6-0.6c-0.7-0.4-1.3-0.9-1.7-1.6c-0.4-0.7-0.6-1.5-0.6-2.5c0-0.7,0.1-1.4,0.3-1.9c0.2-0.6,0.6-1.1,1-1.5
		c0.4-0.4,0.9-0.7,1.5-0.9c0.6-0.2,1.3-0.3,2-0.3c1,0,1.8,0.2,2.6,0.6c0.7,0.4,1.3,0.9,1.7,1.6c0.4,0.7,0.6,1.5,0.6,2.5
		c0,0.7-0.1,1.3-0.3,1.9c-0.2,0.6-0.6,1.1-1,1.5c-0.4,0.4-0.9,0.7-1.5,0.9C1510.7,26,1510,26.1,1509.3,26.1z M1509.3,23.7
		c0.3,0,0.6-0.1,0.9-0.2c0.3-0.2,0.4-0.4,0.6-0.7c0.1-0.3,0.2-0.8,0.2-1.3c0-0.8-0.2-1.4-0.5-1.7c-0.3-0.4-0.7-0.5-1.2-0.5
		c-0.3,0-0.6,0.1-0.9,0.2c-0.3,0.2-0.5,0.4-0.6,0.7c-0.1,0.3-0.2,0.8-0.2,1.3c0,0.8,0.2,1.4,0.5,1.7
		C1508.4,23.5,1508.8,23.7,1509.3,23.7z M1520,29.3c-0.7,0-1.3,0-1.9-0.1c-0.6-0.1-1.1-0.2-1.5-0.4c-0.4-0.1-0.6-0.3-0.7-0.5
		c-0.1-0.2-0.2-0.5-0.2-0.7c0-0.3,0.1-0.5,0.2-0.7c0.1-0.2,0.3-0.4,0.5-0.4c0.2-0.1,0.5-0.1,0.7,0c0.5,0.2,1,0.4,1.4,0.4
		c0.4,0.1,0.8,0.1,1.1,0.1c0.7,0,1.3-0.2,1.6-0.5c0.4-0.3,0.6-0.8,0.6-1.4v-1.1h0.1c-0.2,0.5-0.5,0.9-1.1,1.2
		c-0.5,0.3-1.1,0.5-1.8,0.5c-0.8,0-1.5-0.2-2.1-0.5c-0.6-0.4-1-0.9-1.4-1.5c-0.3-0.7-0.5-1.4-0.5-2.3c0-0.7,0.1-1.3,0.3-1.8
		s0.5-1,0.8-1.4c0.3-0.4,0.8-0.7,1.2-0.9c0.5-0.2,1-0.3,1.6-0.3c0.7,0,1.3,0.2,1.8,0.5c0.5,0.3,0.9,0.7,1.1,1.2l-0.2,0.7v-0.8
		c0-0.5,0.1-0.9,0.4-1.2c0.3-0.3,0.7-0.4,1.2-0.4c0.5,0,0.9,0.1,1.2,0.4c0.3,0.3,0.4,0.7,0.4,1.2v6.2c0,1.5-0.4,2.7-1.3,3.5
		C1522.9,28.9,1521.6,29.3,1520,29.3z M1520.2,23.3c0.4,0,0.7-0.1,0.9-0.2c0.2-0.2,0.4-0.4,0.6-0.7c0.1-0.3,0.2-0.7,0.2-1.1
		c0-0.6-0.2-1.2-0.5-1.5c-0.3-0.4-0.7-0.5-1.3-0.5c-0.3,0-0.6,0.1-0.9,0.3c-0.3,0.2-0.5,0.4-0.6,0.7c-0.1,0.3-0.2,0.7-0.2,1.1
		c0,0.6,0.2,1.2,0.5,1.5C1519.2,23.1,1519.6,23.3,1520.2,23.3z M1528.5,26c-0.5,0-0.9-0.1-1.2-0.4c-0.3-0.3-0.4-0.7-0.4-1.2v-6
		c0-0.5,0.1-0.9,0.4-1.2c0.3-0.3,0.7-0.4,1.2-0.4s0.9,0.1,1.2,0.4c0.3,0.3,0.4,0.7,0.4,1.2v0.7h-0.2c0.1-0.7,0.4-1.3,0.9-1.7
		s1.1-0.6,1.9-0.7c0.3,0,0.6,0.1,0.8,0.3c0.2,0.2,0.3,0.5,0.3,1c0,0.4-0.1,0.8-0.3,1c-0.2,0.3-0.5,0.4-1,0.5l-0.4,0
		c-0.6,0.1-1.1,0.2-1.4,0.5c-0.3,0.3-0.4,0.7-0.4,1.3v3c0,0.5-0.1,0.9-0.4,1.2C1529.5,25.9,1529.1,26,1528.5,26z M1539.4,26.1
		c-1.1,0-2-0.2-2.8-0.6c-0.8-0.4-1.4-0.9-1.8-1.6c-0.4-0.7-0.6-1.5-0.6-2.5c0-0.9,0.2-1.7,0.6-2.4c0.4-0.7,1-1.2,1.7-1.6
		c0.7-0.4,1.5-0.6,2.4-0.6c0.7,0,1.3,0.1,1.8,0.3c0.5,0.2,1,0.5,1.4,0.9c0.4,0.4,0.7,0.9,0.9,1.4c0.2,0.6,0.3,1.2,0.3,1.9
		c0,0.2-0.1,0.4-0.2,0.5c-0.1,0.1-0.3,0.2-0.6,0.2h-5.5v-1.5h4l-0.3,0.2c0-0.4-0.1-0.8-0.2-1.1s-0.3-0.5-0.5-0.6
		c-0.2-0.1-0.5-0.2-0.9-0.2c-0.4,0-0.7,0.1-1,0.3c-0.3,0.2-0.5,0.4-0.6,0.8c-0.2,0.3-0.2,0.8-0.2,1.3v0.2c0,0.9,0.2,1.5,0.6,1.8
		c0.4,0.4,1,0.5,1.8,0.5c0.3,0,0.6,0,0.9-0.1c0.3-0.1,0.7-0.2,1-0.3c0.3-0.1,0.6-0.1,0.8-0.1c0.2,0.1,0.4,0.2,0.5,0.4
		c0.1,0.2,0.2,0.4,0.2,0.6c0,0.2,0,0.5-0.2,0.7c-0.1,0.2-0.3,0.4-0.6,0.5c-0.4,0.2-0.9,0.3-1.3,0.4
		C1540.3,26,1539.9,26.1,1539.4,26.1z M1548.1,26.1c-0.5,0-1.1,0-1.6-0.1c-0.5-0.1-1-0.2-1.5-0.4c-0.3-0.1-0.5-0.3-0.6-0.5
		c-0.1-0.2-0.2-0.4-0.2-0.6c0-0.2,0.1-0.4,0.2-0.6c0.1-0.2,0.3-0.3,0.5-0.4c0.2-0.1,0.5-0.1,0.7,0c0.5,0.2,0.9,0.3,1.3,0.4
		c0.4,0.1,0.8,0.1,1.2,0.1c0.4,0,0.8-0.1,1-0.2c0.2-0.1,0.3-0.3,0.3-0.5c0-0.2-0.1-0.3-0.2-0.4c-0.1-0.1-0.3-0.2-0.5-0.2l-2-0.3
		c-0.7-0.1-1.3-0.4-1.7-0.8c-0.4-0.4-0.6-1-0.6-1.6c0-0.6,0.2-1.2,0.5-1.6c0.4-0.5,0.8-0.8,1.4-1c0.6-0.3,1.3-0.4,2.2-0.4
		c0.5,0,1,0,1.5,0.1c0.5,0.1,0.9,0.2,1.3,0.4c0.3,0.1,0.4,0.3,0.6,0.5c0.1,0.2,0.2,0.4,0.1,0.6c0,0.2-0.1,0.4-0.2,0.6
		c-0.1,0.2-0.3,0.3-0.5,0.4c-0.2,0.1-0.5,0-0.8-0.1c-0.4-0.2-0.8-0.3-1.1-0.3c-0.3-0.1-0.6-0.1-0.8-0.1c-0.5,0-0.8,0.1-1,0.2
		c-0.2,0.1-0.3,0.3-0.3,0.5c0,0.2,0.1,0.3,0.2,0.4c0.1,0.1,0.3,0.2,0.5,0.2l2,0.3c0.8,0.1,1.4,0.4,1.8,0.8c0.4,0.4,0.6,0.9,0.6,1.6
		c0,1-0.4,1.7-1.1,2.3C1550.3,25.8,1549.3,26.1,1548.1,26.1z M1557,26.1c-0.5,0-1.1,0-1.6-0.1c-0.5-0.1-1-0.2-1.5-0.4
		c-0.3-0.1-0.5-0.3-0.7-0.5c-0.1-0.2-0.2-0.4-0.2-0.6c0-0.2,0.1-0.4,0.2-0.6c0.1-0.2,0.3-0.3,0.5-0.4c0.2-0.1,0.5-0.1,0.7,0
		c0.5,0.2,1,0.3,1.3,0.4c0.4,0.1,0.8,0.1,1.2,0.1c0.4,0,0.8-0.1,0.9-0.2c0.2-0.1,0.3-0.3,0.3-0.5c0-0.2-0.1-0.3-0.2-0.4
		c-0.1-0.1-0.3-0.2-0.5-0.2l-2-0.3c-0.7-0.1-1.3-0.4-1.7-0.8c-0.4-0.4-0.6-1-0.6-1.6c0-0.6,0.2-1.2,0.5-1.6c0.4-0.5,0.8-0.8,1.5-1
		c0.6-0.3,1.3-0.4,2.2-0.4c0.5,0,1,0,1.5,0.1c0.4,0.1,0.9,0.2,1.3,0.4c0.3,0.1,0.5,0.3,0.6,0.5c0.1,0.2,0.2,0.4,0.1,0.6
		c0,0.2-0.1,0.4-0.2,0.6c-0.1,0.2-0.3,0.3-0.5,0.4c-0.2,0.1-0.5,0-0.8-0.1c-0.4-0.2-0.8-0.3-1.1-0.3c-0.3-0.1-0.6-0.1-0.8-0.1
		c-0.5,0-0.8,0.1-1,0.2c-0.2,0.1-0.3,0.3-0.3,0.5c0,0.2,0.1,0.3,0.2,0.4c0.1,0.1,0.3,0.2,0.5,0.2l2,0.3c0.8,0.1,1.4,0.4,1.8,0.8
		c0.4,0.4,0.6,0.9,0.6,1.6c0,1-0.4,1.7-1.1,2.3C1559.2,25.8,1558.2,26.1,1557,26.1z M1569.5,25.9c-0.6,0-1-0.1-1.3-0.4
		c-0.3-0.3-0.4-0.7-0.4-1.3v-9.3c0-0.6,0.1-1,0.4-1.3c0.3-0.3,0.7-0.5,1.3-0.5h4.4c0.9,0,1.7,0.1,2.3,0.4c0.7,0.3,1.1,0.6,1.5,1.1
		c0.3,0.5,0.5,1.1,0.5,1.7c0,0.7-0.2,1.4-0.7,1.9c-0.4,0.5-1,0.9-1.7,1.1v-0.3c0.9,0.2,1.5,0.5,2,1c0.5,0.5,0.7,1.2,0.7,2.1
		c0,1.1-0.4,2-1.2,2.6c-0.8,0.6-1.9,1-3.3,1H1569.5z M1570.9,23.4h2.7c0.6,0,1.1-0.1,1.3-0.3c0.3-0.2,0.4-0.6,0.4-1.1
		s-0.1-0.8-0.4-1c-0.3-0.2-0.7-0.3-1.3-0.3h-2.7V23.4z M1570.9,18.2h2.4c0.6,0,1-0.1,1.3-0.3c0.3-0.2,0.4-0.5,0.4-1s-0.1-0.8-0.4-1
		c-0.3-0.2-0.7-0.3-1.3-0.3h-2.4V18.2z M1583.3,26.1c-0.7,0-1.3-0.1-1.8-0.4c-0.5-0.3-0.9-0.6-1.2-1c-0.3-0.4-0.4-0.9-0.4-1.5
		c0-0.6,0.2-1.2,0.5-1.5c0.3-0.4,0.9-0.6,1.6-0.8c0.8-0.2,1.7-0.3,3-0.3h1v1.5h-1c-0.5,0-0.9,0-1.2,0.1c-0.3,0.1-0.5,0.2-0.7,0.3
		c-0.2,0.1-0.2,0.3-0.2,0.5c0,0.3,0.1,0.5,0.3,0.7c0.2,0.2,0.5,0.3,0.9,0.3c0.3,0,0.6-0.1,0.8-0.2c0.2-0.1,0.4-0.3,0.6-0.5
		c0.1-0.2,0.2-0.5,0.2-0.8v-2.1c0-0.4-0.1-0.7-0.4-0.9c-0.2-0.2-0.6-0.3-1.1-0.3c-0.3,0-0.6,0-1,0.1c-0.4,0.1-0.8,0.2-1.2,0.3
		c-0.3,0.1-0.6,0.1-0.8,0.1c-0.2-0.1-0.4-0.2-0.5-0.4c-0.1-0.2-0.2-0.4-0.2-0.7c0-0.2,0.1-0.5,0.2-0.7c0.2-0.2,0.4-0.4,0.7-0.5
		c0.6-0.2,1.1-0.4,1.6-0.4c0.5-0.1,0.9-0.1,1.3-0.1c1,0,1.8,0.1,2.4,0.4c0.7,0.3,1.1,0.7,1.4,1.3c0.3,0.6,0.5,1.3,0.5,2.2v3.6
		c0,0.5-0.1,0.9-0.4,1.2s-0.6,0.4-1.1,0.4c-0.5,0-0.9-0.1-1.1-0.4c-0.2-0.3-0.4-0.7-0.4-1.2v-0.5l0.1,0.3c-0.1,0.4-0.2,0.7-0.4,1
		c-0.2,0.3-0.5,0.5-0.9,0.6C1584.1,26,1583.7,26.1,1583.3,26.1z M1592.1,26c-0.5,0-0.9-0.1-1.2-0.4c-0.3-0.3-0.4-0.7-0.4-1.2v-6
		c0-0.5,0.1-0.9,0.4-1.2c0.3-0.3,0.7-0.4,1.2-0.4s0.9,0.1,1.2,0.4c0.3,0.3,0.4,0.7,0.4,1.2v0.7h-0.2c0.1-0.7,0.4-1.3,0.9-1.7
		s1.1-0.6,1.9-0.7c0.3,0,0.6,0.1,0.8,0.3c0.2,0.2,0.3,0.5,0.3,1c0,0.4-0.1,0.8-0.3,1c-0.2,0.3-0.5,0.4-1,0.5l-0.4,0
		c-0.6,0.1-1.1,0.2-1.4,0.5c-0.3,0.3-0.4,0.7-0.4,1.3v3c0,0.5-0.1,0.9-0.4,1.2C1593,25.9,1592.6,26,1592.1,26z"/>
	<path class="st1" d="M1637,26.1c-1.4,0-2.6-0.3-3.6-0.8s-1.8-1.3-2.3-2.3c-0.5-1-0.8-2.1-0.8-3.5c0-1,0.2-1.9,0.5-2.7
		c0.3-0.8,0.8-1.5,1.3-2.1c0.6-0.6,1.3-1,2.1-1.3c0.8-0.3,1.8-0.5,2.8-0.5c0.6,0,1.1,0.1,1.7,0.2c0.6,0.1,1.1,0.3,1.6,0.6
		c0.3,0.2,0.6,0.4,0.7,0.7s0.2,0.6,0.1,0.8c0,0.3-0.1,0.5-0.3,0.8c-0.2,0.2-0.4,0.4-0.7,0.5c-0.3,0.1-0.6,0-0.9-0.1
		c-0.4-0.2-0.7-0.3-1.1-0.4c-0.4-0.1-0.7-0.1-1.1-0.1c-0.7,0-1.4,0.1-1.9,0.4c-0.5,0.3-0.9,0.7-1.1,1.2c-0.2,0.5-0.4,1.2-0.4,2
		c0,0.8,0.1,1.5,0.4,2c0.3,0.5,0.6,1,1.1,1.2c0.5,0.3,1.1,0.4,1.9,0.4c0.3,0,0.7,0,1-0.1c0.4-0.1,0.7-0.2,1.1-0.4
		c0.4-0.2,0.7-0.2,1-0.1s0.5,0.2,0.7,0.4c0.2,0.2,0.3,0.5,0.3,0.8c0.1,0.3,0,0.6-0.1,0.8c-0.1,0.3-0.3,0.5-0.7,0.7
		c-0.4,0.3-0.9,0.4-1.6,0.6C1638.2,26,1637.6,26.1,1637,26.1z M1646.6,26.1c-1,0-1.8-0.2-2.6-0.6s-1.3-0.9-1.7-1.6
		c-0.4-0.7-0.6-1.5-0.6-2.5c0-0.7,0.1-1.4,0.3-1.9c0.2-0.6,0.6-1.1,1-1.5c0.4-0.4,0.9-0.7,1.6-0.9c0.6-0.2,1.3-0.3,2-0.3
		c1,0,1.9,0.2,2.6,0.6c0.7,0.4,1.3,0.9,1.7,1.6c0.4,0.7,0.6,1.5,0.6,2.5c0,0.7-0.1,1.3-0.3,1.9c-0.2,0.6-0.6,1.1-1,1.5
		c-0.4,0.4-0.9,0.7-1.6,0.9C1648,26,1647.3,26.1,1646.6,26.1z M1646.6,23.7c0.3,0,0.6-0.1,0.9-0.2c0.2-0.2,0.4-0.4,0.6-0.7
		c0.2-0.3,0.2-0.8,0.2-1.3c0-0.8-0.2-1.4-0.5-1.7c-0.3-0.4-0.7-0.5-1.2-0.5c-0.3,0-0.6,0.1-0.9,0.2s-0.4,0.4-0.6,0.7
		c-0.2,0.3-0.2,0.8-0.2,1.3c0,0.8,0.2,1.4,0.5,1.7C1645.7,23.5,1646.1,23.7,1646.6,23.7z M1654.5,26c-0.5,0-0.9-0.1-1.2-0.4
		c-0.3-0.3-0.4-0.7-0.4-1.2v-6c0-0.5,0.1-0.9,0.4-1.2c0.3-0.3,0.7-0.4,1.2-0.4c0.5,0,0.9,0.1,1.2,0.4c0.3,0.3,0.4,0.7,0.4,1.2v0.8
		l-0.2-0.7c0.3-0.6,0.7-1,1.2-1.3c0.5-0.3,1.1-0.5,1.8-0.5c0.7,0,1.3,0.1,1.7,0.4c0.5,0.3,0.8,0.7,1,1.3c0.2,0.6,0.3,1.3,0.3,2.1
		v3.8c0,0.5-0.1,0.9-0.4,1.2c-0.3,0.3-0.7,0.4-1.2,0.4c-0.5,0-0.9-0.1-1.2-0.4s-0.4-0.7-0.4-1.2v-3.7c0-0.5-0.1-0.9-0.3-1.2
		c-0.2-0.2-0.5-0.3-0.8-0.3c-0.5,0-0.9,0.2-1.1,0.5c-0.3,0.3-0.4,0.7-0.4,1.2v3.5C1656.1,25.5,1655.6,26,1654.5,26z M1668.5,26.1
		c-0.9,0-1.6-0.1-2.2-0.4c-0.6-0.3-1-0.7-1.3-1.2c-0.3-0.6-0.4-1.3-0.4-2.1v-2.9h-0.6c-0.4,0-0.7-0.1-0.9-0.3s-0.3-0.5-0.3-0.9
		c0-0.4,0.1-0.7,0.3-0.9c0.2-0.2,0.5-0.3,0.9-0.3h0.6v-1.1c0-0.5,0.1-0.9,0.4-1.2c0.3-0.3,0.7-0.4,1.2-0.4c0.5,0,0.9,0.1,1.2,0.4
		c0.3,0.3,0.4,0.7,0.4,1.2V17h1.5c0.4,0,0.7,0.1,0.9,0.3c0.2,0.2,0.3,0.5,0.3,0.9c0,0.4-0.1,0.7-0.3,0.9c-0.2,0.2-0.5,0.3-0.9,0.3
		h-1.5v2.8c0,0.4,0.1,0.8,0.3,1c0.2,0.2,0.5,0.3,1,0.3c0.2,0,0.3,0,0.5-0.1c0.2,0,0.3-0.1,0.4-0.1c0.2,0,0.3,0,0.5,0.2
		c0.1,0.1,0.2,0.4,0.2,0.8c0,0.4,0,0.7-0.2,0.9c-0.1,0.2-0.3,0.4-0.6,0.5c-0.2,0.1-0.4,0.1-0.7,0.1
		C1668.9,26,1668.7,26.1,1668.5,26.1z M1674.6,26.1c-0.7,0-1.3-0.1-1.8-0.4c-0.5-0.3-0.9-0.6-1.2-1c-0.3-0.4-0.4-0.9-0.4-1.5
		c0-0.6,0.2-1.2,0.5-1.5c0.3-0.4,0.9-0.6,1.6-0.8c0.7-0.2,1.7-0.3,3-0.3h1v1.5h-1c-0.5,0-0.9,0-1.2,0.1c-0.3,0.1-0.5,0.2-0.7,0.3
		c-0.1,0.1-0.2,0.3-0.2,0.5c0,0.3,0.1,0.5,0.3,0.7c0.2,0.2,0.5,0.3,0.9,0.3c0.3,0,0.6-0.1,0.8-0.2c0.2-0.1,0.4-0.3,0.6-0.5
		c0.1-0.2,0.2-0.5,0.2-0.8v-2.1c0-0.4-0.1-0.7-0.3-0.9c-0.2-0.2-0.6-0.3-1.1-0.3c-0.3,0-0.6,0-1,0.1c-0.4,0.1-0.8,0.2-1.2,0.3
		c-0.3,0.1-0.6,0.1-0.8,0.1s-0.4-0.2-0.5-0.4c-0.1-0.2-0.2-0.4-0.2-0.7c0-0.2,0.1-0.5,0.2-0.7c0.2-0.2,0.4-0.4,0.7-0.5
		c0.6-0.2,1.1-0.4,1.6-0.4c0.5-0.1,0.9-0.1,1.4-0.1c1,0,1.8,0.1,2.4,0.4c0.7,0.3,1.1,0.7,1.4,1.3c0.3,0.6,0.5,1.3,0.5,2.2v3.6
		c0,0.5-0.1,0.9-0.4,1.2s-0.6,0.4-1.1,0.4c-0.5,0-0.9-0.1-1.1-0.4s-0.4-0.7-0.4-1.2v-0.5l0.1,0.3c-0.1,0.4-0.2,0.7-0.4,1
		c-0.2,0.3-0.5,0.5-0.8,0.6C1675.4,26,1675,26.1,1674.6,26.1z M1686.3,26.1c-1,0-1.9-0.2-2.6-0.6c-0.7-0.4-1.3-0.9-1.7-1.6
		c-0.4-0.7-0.6-1.5-0.6-2.5c0-0.7,0.1-1.4,0.3-1.9c0.2-0.6,0.6-1.1,1-1.5c0.4-0.4,1-0.7,1.6-0.9c0.6-0.2,1.3-0.3,2-0.3
		c0.3,0,0.7,0,1.1,0.1c0.4,0.1,0.8,0.2,1.2,0.4c0.3,0.1,0.5,0.3,0.6,0.5c0.1,0.2,0.2,0.4,0.1,0.7c0,0.3-0.1,0.5-0.2,0.7
		c-0.1,0.2-0.3,0.3-0.5,0.4c-0.2,0.1-0.5,0-0.7-0.1c-0.2-0.1-0.4-0.2-0.6-0.2c-0.2,0-0.4-0.1-0.6-0.1c-0.3,0-0.6,0-0.9,0.1
		c-0.2,0.1-0.4,0.2-0.6,0.4c-0.2,0.2-0.3,0.4-0.4,0.7c-0.1,0.3-0.1,0.6-0.1,0.9c0,0.7,0.2,1.2,0.5,1.6c0.3,0.4,0.8,0.6,1.5,0.6
		c0.2,0,0.4,0,0.6-0.1c0.2,0,0.4-0.1,0.6-0.2c0.3-0.1,0.5-0.2,0.7-0.1c0.2,0.1,0.4,0.2,0.5,0.4c0.1,0.2,0.2,0.4,0.2,0.7
		c0,0.2,0,0.5-0.2,0.7c-0.1,0.2-0.3,0.4-0.6,0.5c-0.4,0.2-0.8,0.3-1.2,0.4C1687,26,1686.6,26.1,1686.3,26.1z M1695.2,26.1
		c-0.9,0-1.6-0.1-2.2-0.4c-0.6-0.3-1-0.7-1.3-1.2c-0.3-0.6-0.4-1.3-0.4-2.1v-2.9h-0.6c-0.4,0-0.7-0.1-0.9-0.3
		c-0.2-0.2-0.3-0.5-0.3-0.9c0-0.4,0.1-0.7,0.3-0.9c0.2-0.2,0.5-0.3,0.9-0.3h0.6v-1.1c0-0.5,0.1-0.9,0.4-1.2c0.3-0.3,0.7-0.4,1.2-0.4
		c0.5,0,0.9,0.1,1.2,0.4c0.3,0.3,0.4,0.7,0.4,1.2V17h1.5c0.4,0,0.7,0.1,0.9,0.3c0.2,0.2,0.3,0.5,0.3,0.9c0,0.4-0.1,0.7-0.3,0.9
		c-0.2,0.2-0.5,0.3-0.9,0.3h-1.5v2.8c0,0.4,0.1,0.8,0.3,1c0.2,0.2,0.6,0.3,1,0.3c0.2,0,0.3,0,0.5-0.1c0.2,0,0.3-0.1,0.4-0.1
		c0.2,0,0.3,0,0.5,0.2c0.1,0.1,0.2,0.4,0.2,0.8c0,0.4-0.1,0.7-0.2,0.9c-0.1,0.2-0.3,0.4-0.6,0.5c-0.2,0.1-0.4,0.1-0.7,0.1
		C1695.6,26,1695.4,26.1,1695.2,26.1z M1700.5,26.3c-0.1,0.3-0.3,0.5-0.5,0.7c-0.2,0.1-0.4,0.2-0.7,0.2c-0.2,0-0.5-0.1-0.7-0.2
		c-0.2-0.1-0.4-0.3-0.4-0.6c-0.1-0.2-0.1-0.5,0-0.8l4-12.5c0.1-0.3,0.2-0.5,0.5-0.7c0.2-0.1,0.5-0.2,0.7-0.2c0.2,0,0.5,0.1,0.7,0.2
		c0.2,0.1,0.4,0.3,0.5,0.5c0.1,0.2,0.1,0.5,0,0.9L1700.5,26.3z M1710.3,26.1c-0.5,0-1,0-1.5-0.1c-0.5-0.1-1-0.2-1.5-0.3
		c-0.5-0.1-0.9-0.3-1.3-0.5c-0.3-0.2-0.6-0.4-0.7-0.6c-0.1-0.3-0.2-0.5-0.2-0.8c0-0.3,0.1-0.5,0.3-0.8c0.2-0.2,0.4-0.4,0.7-0.4
		c0.3-0.1,0.6,0,0.9,0.1c0.5,0.2,1,0.4,1.6,0.5c0.6,0.1,1.1,0.2,1.6,0.2c0.8,0,1.3-0.1,1.6-0.3c0.3-0.2,0.5-0.5,0.5-0.8
		c0-0.3-0.1-0.5-0.3-0.7c-0.2-0.2-0.6-0.3-1.2-0.4l-2.1-0.4c-1.2-0.2-2-0.7-2.6-1.3c-0.6-0.6-0.8-1.4-0.8-2.3c0-0.6,0.1-1.2,0.4-1.7
		c0.3-0.5,0.6-1,1.1-1.3c0.5-0.4,1-0.6,1.7-0.8c0.7-0.2,1.4-0.3,2.2-0.3c0.6,0,1.2,0.1,1.9,0.2c0.6,0.1,1.2,0.3,1.7,0.6
		c0.3,0.1,0.5,0.3,0.6,0.6c0.1,0.3,0.2,0.5,0.2,0.8c0,0.3-0.1,0.5-0.3,0.7c-0.2,0.2-0.4,0.3-0.7,0.4c-0.3,0.1-0.6,0-0.9-0.1
		c-0.4-0.2-0.8-0.3-1.2-0.3c-0.4-0.1-0.8-0.1-1.3-0.1c-0.4,0-0.8,0.1-1.1,0.2c-0.3,0.1-0.6,0.2-0.7,0.4c-0.2,0.2-0.2,0.4-0.2,0.7
		c0,0.3,0.1,0.5,0.3,0.6c0.2,0.2,0.6,0.3,1.2,0.4l2.1,0.5c1.2,0.3,2,0.7,2.6,1.2c0.6,0.6,0.9,1.3,0.9,2.2c0,0.6-0.1,1.2-0.4,1.7
		s-0.6,0.9-1.1,1.3c-0.5,0.3-1,0.6-1.7,0.8C1711.9,26,1711.1,26.1,1710.3,26.1z M1720.4,26.1c-0.8,0-1.4-0.1-1.9-0.4
		c-0.5-0.3-0.9-0.7-1.1-1.3c-0.2-0.6-0.4-1.3-0.4-2.1v-3.8c0-0.5,0.1-0.9,0.4-1.2c0.3-0.3,0.7-0.4,1.2-0.4c0.5,0,0.9,0.1,1.2,0.4
		c0.3,0.3,0.4,0.7,0.4,1.2v3.9c0,0.4,0.1,0.8,0.3,1c0.2,0.2,0.5,0.3,0.8,0.3c0.4,0,0.8-0.2,1.1-0.5c0.3-0.3,0.4-0.7,0.4-1.2v-3.5
		c0-0.5,0.1-0.9,0.4-1.2c0.3-0.3,0.7-0.4,1.2-0.4c0.5,0,0.9,0.1,1.2,0.4c0.3,0.3,0.4,0.7,0.4,1.2v6c0,1.1-0.5,1.6-1.6,1.6
		c-0.5,0-0.9-0.1-1.2-0.4c-0.3-0.3-0.4-0.7-0.4-1.2v-1l0.3,0.9c-0.3,0.6-0.6,1-1.1,1.4C1721.6,25.9,1721.1,26.1,1720.4,26.1z
		 M1729.5,29.3c-0.5,0-0.9-0.1-1.2-0.4c-0.3-0.3-0.4-0.7-0.4-1.2v-9.2c0-0.5,0.1-0.9,0.4-1.2c0.3-0.3,0.7-0.4,1.2-0.4
		s0.9,0.1,1.2,0.4c0.3,0.3,0.4,0.7,0.4,1.2v1l-0.2-0.9c0.2-0.5,0.5-1,1.1-1.3c0.5-0.3,1.2-0.5,1.8-0.5c0.8,0,1.4,0.2,2,0.6
		c0.6,0.4,1,0.9,1.4,1.6c0.3,0.7,0.5,1.5,0.5,2.5c0,0.9-0.2,1.8-0.5,2.5c-0.3,0.7-0.8,1.2-1.4,1.6c-0.6,0.4-1.2,0.6-2,0.6
		c-0.7,0-1.2-0.2-1.8-0.5c-0.5-0.3-0.9-0.7-1.1-1.2h0.2v3.3c0,0.5-0.2,0.9-0.4,1.2C1730.4,29.1,1730,29.3,1729.5,29.3z M1732.7,23.7
		c0.3,0,0.6-0.1,0.8-0.2c0.2-0.2,0.4-0.4,0.6-0.7c0.1-0.3,0.2-0.8,0.2-1.3c0-0.8-0.2-1.4-0.5-1.7c-0.3-0.4-0.7-0.5-1.2-0.5
		c-0.3,0-0.6,0.1-0.9,0.2s-0.4,0.4-0.6,0.7c-0.2,0.3-0.2,0.8-0.2,1.3c0,0.8,0.2,1.4,0.5,1.7C1731.8,23.5,1732.2,23.7,1732.7,23.7z
		 M1740.7,29.3c-0.5,0-0.9-0.1-1.2-0.4c-0.3-0.3-0.4-0.7-0.4-1.2v-9.2c0-0.5,0.1-0.9,0.4-1.2c0.3-0.3,0.7-0.4,1.2-0.4
		c0.5,0,0.9,0.1,1.2,0.4c0.3,0.3,0.4,0.7,0.4,1.2v1l-0.2-0.9c0.2-0.5,0.5-1,1-1.3c0.5-0.3,1.1-0.5,1.8-0.5c0.8,0,1.4,0.2,2,0.6
		c0.6,0.4,1,0.9,1.4,1.6c0.3,0.7,0.5,1.5,0.5,2.5c0,0.9-0.2,1.8-0.5,2.5c-0.3,0.7-0.8,1.2-1.4,1.6c-0.6,0.4-1.2,0.6-2,0.6
		c-0.7,0-1.3-0.2-1.8-0.5c-0.5-0.3-0.9-0.7-1.1-1.2h0.2v3.3c0,0.5-0.2,0.9-0.4,1.2C1741.6,29.1,1741.2,29.3,1740.7,29.3z
		 M1743.9,23.7c0.3,0,0.6-0.1,0.8-0.2c0.3-0.2,0.5-0.4,0.6-0.7c0.1-0.3,0.2-0.8,0.2-1.3c0-0.8-0.2-1.4-0.5-1.7
		c-0.3-0.4-0.7-0.5-1.2-0.5c-0.3,0-0.6,0.1-0.9,0.2c-0.2,0.2-0.4,0.4-0.6,0.7c-0.1,0.3-0.2,0.8-0.2,1.3c0,0.8,0.2,1.4,0.5,1.7
		C1743,23.5,1743.4,23.7,1743.9,23.7z M1754.7,26.1c-1,0-1.8-0.2-2.6-0.6c-0.7-0.4-1.3-0.9-1.7-1.6c-0.4-0.7-0.6-1.5-0.6-2.5
		c0-0.7,0.1-1.4,0.3-1.9c0.2-0.6,0.6-1.1,1-1.5c0.4-0.4,0.9-0.7,1.6-0.9c0.6-0.2,1.3-0.3,2-0.3c1,0,1.8,0.2,2.6,0.6
		c0.7,0.4,1.3,0.9,1.7,1.6c0.4,0.7,0.6,1.5,0.6,2.5c0,0.7-0.1,1.3-0.3,1.9c-0.2,0.6-0.5,1.1-1,1.5c-0.4,0.4-0.9,0.7-1.5,0.9
		C1756.1,26,1755.4,26.1,1754.7,26.1z M1754.7,23.7c0.3,0,0.6-0.1,0.9-0.2c0.2-0.2,0.4-0.4,0.6-0.7c0.1-0.3,0.2-0.8,0.2-1.3
		c0-0.8-0.2-1.4-0.5-1.7c-0.3-0.4-0.7-0.5-1.2-0.5c-0.3,0-0.6,0.1-0.9,0.2c-0.2,0.2-0.4,0.4-0.6,0.7c-0.1,0.3-0.2,0.8-0.2,1.3
		c0,0.8,0.2,1.4,0.5,1.7C1753.8,23.5,1754.2,23.7,1754.7,23.7z M1762.7,26c-0.5,0-0.9-0.1-1.2-0.4c-0.3-0.3-0.4-0.7-0.4-1.2v-6
		c0-0.5,0.1-0.9,0.4-1.2c0.3-0.3,0.7-0.4,1.2-0.4s0.9,0.1,1.2,0.4c0.3,0.3,0.4,0.7,0.4,1.2v0.7h-0.2c0.1-0.7,0.4-1.3,0.9-1.7
		s1.1-0.6,1.9-0.7c0.3,0,0.6,0.1,0.8,0.3c0.2,0.2,0.3,0.5,0.3,1c0,0.4-0.1,0.8-0.3,1c-0.2,0.3-0.5,0.4-1,0.5l-0.4,0
		c-0.6,0.1-1.1,0.2-1.4,0.5c-0.3,0.3-0.4,0.7-0.4,1.3v3c0,0.5-0.1,0.9-0.4,1.2C1763.6,25.9,1763.2,26,1762.7,26z M1774,26.1
		c-0.9,0-1.6-0.1-2.2-0.4c-0.6-0.3-1-0.7-1.3-1.2c-0.3-0.6-0.4-1.3-0.4-2.1v-2.9h-0.6c-0.4,0-0.7-0.1-0.9-0.3
		c-0.2-0.2-0.3-0.5-0.3-0.9c0-0.4,0.1-0.7,0.3-0.9c0.2-0.2,0.5-0.3,0.9-0.3h0.6v-1.1c0-0.5,0.1-0.9,0.4-1.2c0.3-0.3,0.7-0.4,1.2-0.4
		c0.5,0,0.9,0.1,1.2,0.4s0.4,0.7,0.4,1.2V17h1.5c0.4,0,0.7,0.1,0.9,0.3c0.2,0.2,0.3,0.5,0.3,0.9c0,0.4-0.1,0.7-0.3,0.9
		c-0.2,0.2-0.5,0.3-0.9,0.3h-1.5v2.8c0,0.4,0.1,0.8,0.3,1c0.2,0.2,0.6,0.3,1,0.3c0.2,0,0.3,0,0.5-0.1c0.2,0,0.3-0.1,0.4-0.1
		c0.2,0,0.3,0,0.5,0.2c0.1,0.1,0.2,0.4,0.2,0.8c0,0.4-0.1,0.7-0.2,0.9c-0.1,0.2-0.3,0.4-0.6,0.5c-0.2,0.1-0.4,0.1-0.7,0.1
		C1774.4,26,1774.2,26.1,1774,26.1z"/>
	<path class="st2" d="M216.8,79.4h1506c33.1,0,60,26.9,60,60l0,0c0,33.1-26.9,60-60,60h-1506c-33.1,0-60-26.9-60-60l0,0
		C156.8,106.2,183.6,79.4,216.8,79.4z"/>
	<circle class="st3" cx="240.8" cy="139.4" r="36"/>
	<circle class="st3" cx="402.8" cy="139.4" r="36"/>
	<circle class="st3" cx="564.8" cy="139.4" r="36"/>
	<circle class="st4" cx="726.8" cy="139.4" r="36"/>
	<circle class="st4" cx="888.8" cy="139.4" r="36"/>
	<circle class="st4" cx="1050.8" cy="139.4" r="36"/>
	<circle class="st3" cx="1212.8" cy="139.4" r="36"/>
	<circle class="st4" cx="1374.8" cy="139.4" r="36"/>
	<circle class="st3" cx="1536.8" cy="139.4" r="36"/>
	<circle class="st4" cx="1698.8" cy="139.4" r="36"/>
	<circle class="st4" cx="240.8" cy="286.4" r="36"/>
	<circle class="st4" cx="402.8" cy="286.4" r="36"/>
	<circle class="st4" cx="564.8" cy="286.4" r="36"/>
	<circle class="st4" cx="726.8" cy="286.4" r="36"/>
	<circle class="st4" cx="888.8" cy="286.4" r="36"/>
	<circle class="st3" cx="1050.8" cy="286.4" r="36"/>
	<circle class="st4" cx="1212.8" cy="286.4" r="36"/>
	<circle class="st4" cx="1374.8" cy="286.4" r="36"/>
	<circle class="st3" cx="1536.8" cy="286.4" r="36"/>
	<circle class="st4" cx="1698.8" cy="286.4" r="36"/>
	<path class="st2" d="M216.8,373.4h1506c33.1,0,60,26.9,60,60l0,0c0,33.1-26.9,60-60,60h-1506c-33.1,0-60-26.9-60-60l0,0
		C156.8,400.2,183.6,373.4,216.8,373.4z"/>
	<circle class="st4" cx="240.8" cy="433.4" r="36"/>
	<circle class="st4" cx="402.8" cy="433.4" r="36"/>
	<circle class="st4" cx="564.8" cy="433.4" r="36"/>
	<circle class="st4" cx="726.8" cy="433.4" r="36"/>
	<circle class="st4" cx="888.8" cy="433.4" r="36"/>
	<circle class="st3" cx="1050.8" cy="433.4" r="36"/>
	<circle class="st4" cx="1212.8" cy="433.4" r="36"/>
	<circle class="st4" cx="1374.8" cy="433.4" r="36"/>
	<circle class="st3" cx="1536.8" cy="433.4" r="36"/>
	<circle class="st4" cx="1698.8" cy="433.4" r="36"/>
	<circle class="st3" cx="240.8" cy="580.4" r="36"/>
	<circle class="st3" cx="402.8" cy="580.4" r="36"/>
	<circle class="st4" cx="564.8" cy="580.4" r="36"/>
	<circle class="st3" cx="726.8" cy="580.4" r="36"/>
	<circle class="st4" cx="888.8" cy="580.4" r="36"/>
	<circle class="st3" cx="1050.8" cy="580.4" r="36"/>
	<circle class="st4" cx="1212.8" cy="580.4" r="36"/>
	<circle class="st3" cx="1374.8" cy="580.4" r="36"/>
	<circle class="st3" cx="1536.8" cy="580.4" r="36"/>
	<circle class="st4" cx="1698.8" cy="580.4" r="36"/>
</g>
</svg>
