<?xml version="1.0" encoding="utf-8"?>
<!-- Generator: Adobe Illustrator 24.3.0, SVG Export Plug-In . SVG Version: 6.00 Build 0)  -->
<svg version="1.1" id="Layer_1" xmlns="http://www.w3.org/2000/svg" xmlns:xlink="http://www.w3.org/1999/xlink" x="0px" y="0px"
	 viewBox="0 0 302.3 21.1" style="enable-background:new 0 0 302.3 21.1;" xml:space="preserve">
<style type="text/css">
	.st0{fill:#FFFFFF;}
	.st1{fill:none;}
	.st2{fill:none;stroke:#000000;stroke-width:5;stroke-miterlimit:10;}
</style>
<g>
	<path class="st0" d="M6.6,0.5c2.1,0,3.4,0.6,4.8,2.2c2.1,2.4,3.2,6.3,3.2,9.4c0,2.3-0.6,4.6-2.2,6.3c-1.4,1.6-3,2-5.1,2H0V11
		c2-0.7,2.6-3,2.6-4.9c0-1.3-0.2-2.3-1.4-3V0.5H6.6z M9.1,7.8c0-1-0.3-3.7-1.7-3.7c-1,0-1,2.1-1,2.7c0,0.7,0,1.4,0.1,2.1
		c0,0.7,0.1,1.9,1,1.9C8.8,10.8,9.1,8.9,9.1,7.8z"/>
	<path class="st0" d="M28.2,3.3c-0.5,0.2-0.6,0.6-0.6,1.1c0,2.5,1.9,5.8,4.3,6.7v9.4h-7.8v-9.4c0.7-0.2,0.9-0.6,0.9-1.4
		c0-0.5-0.1-1.2-0.8-1.2c-0.9,0-1.7,1.1-1.7,1.9c0,0.5,0.6,0.6,1,0.6v9.4h-7.8V11c2.5-1.1,4.2-3.9,4.2-6.6c0-0.5-0.1-0.9-0.6-1.2
		V0.5h8.9V3.3z M24.3,5.6c0-0.2-0.2-1.1-0.5-1.1c-0.5,0-0.8,1.7-0.9,2.2C23.3,6.4,24.3,6,24.3,5.6z"/>
	<path class="st0" d="M46,3.3c-1.7,0.2-2.3,2.2-2.8,3.5c-0.8,2-1.1,4.2-1.3,6.4c-0.2,2-0.3,4-1.4,5.6c-0.7,1-1.8,1.7-3,1.7H33v-9.4
		c0.8,0.1,1.7,0.3,2.5,0.3c1.1,0,2.1-0.4,2.1-1.7s-1.1-4-1.6-5.1c-0.4-0.8-0.7-1.3-1.6-1.4V0.5h5.5v2.8c-0.2,0.1-0.6,0.1-0.6,0.4
		s0.8,1.7,0.9,2L41,3.9c0-0.1,0-0.1,0-0.2c0-0.4-0.3-0.5-0.6-0.5V0.5H46V3.3z"/>
	<path class="st0" d="M53.1,0.5c2.1,0,3.4,0.6,4.8,2.2c2.1,2.4,3.2,6.3,3.2,9.4c0,2.3-0.6,4.6-2.2,6.3c-1.4,1.6-3,2-5.1,2h-7.4V11
		c2-0.7,2.6-3,2.6-4.9c0-1.3-0.2-2.3-1.4-3V0.5H53.1z M55.6,7.8c0-1-0.3-3.7-1.7-3.7c-1,0-1,2.1-1,2.7c0,0.7,0,1.4,0.1,2.1
		c0,0.7,0.1,1.9,1,1.9C55.4,10.8,55.6,8.9,55.6,7.8z"/>
	<path class="st0" d="M70.6,0.5c2,0,3.6,0.9,3.6,3.1c0,1.8-0.8,2.6-2.4,3.3c1.5,0.4,1.9,1.2,2.3,2.5c0.5,1.5,1.2,1.6,2.7,1.6v9.4
		h-4.2c-1.5,0-2.4-0.7-2.4-2.3V10c0-0.6-0.2-1.3-0.9-1.3c-0.6,0-1.1,0.6-1.1,1.2c0,0.8,0.5,1.2,1.3,1.3v9.4h-7.2v-9.4
		c1.7-1,2.2-2.9,2.2-4.8c0-1.3-0.2-2.2-1.4-2.9v-3H70.6z M69.2,5.6c0.6-0.3,1.2-0.7,1.2-1.5c0-0.4-0.4-0.8-0.8-0.8
		c-1.2,0-1.3,1.3-1.3,2.2v0.6C68.6,5.9,68.9,5.8,69.2,5.6z"/>
	<path class="st0" d="M90.4,4.6h-2.9c-0.2-0.7-0.6-1.1-1.3-1.1c-1.4,0-1.6,1.9-1.6,2.9c0.6-0.6,1.3-1.2,2.1-1.2
		c0.8,0,1.5,0.7,1.5,1.5c0,1.3-0.8,1.6-1.9,1.6c-0.9,0-1.6,1.1-1.6,1.9c0,0.7,0.4,1.3,1.1,1.3c1.4,0,1.5-1.3,1.5-2.3h3.1v11.3H78.3
		v-9.4c1.8-1,2.3-2.9,2.3-4.9c0-1.3-0.1-2.2-1.4-2.9V0.5h11.2V4.6z"/>
	<path class="st0" d="M104.4,3.3c-0.5,0.2-0.6,0.6-0.6,1.1c0,2.5,1.9,5.8,4.3,6.7v9.4h-7.8v-9.4c0.7-0.2,0.9-0.6,0.9-1.4
		c0-0.5-0.2-1.2-0.8-1.2c-0.9,0-1.7,1.1-1.7,1.9c0,0.5,0.6,0.6,1,0.6v9.4h-7.8V11c2.5-1.1,4.2-3.9,4.2-6.6c0-0.5-0.1-0.9-0.6-1.2
		V0.5h8.9V3.3z M100.5,5.6c0-0.2-0.2-1.1-0.5-1.1c-0.5,0-0.8,1.7-0.9,2.2C99.5,6.4,100.5,6,100.5,5.6z"/>
	<path class="st0" d="M125.1,3.3c-1.2,0.7-1.3,1.7-1.3,3c0,1.9,0.6,3.9,2.4,4.8v9.4h-8v-9.4c1.6,0,1.9-1.6,1.9-2.9
		c0-0.2,0-0.4,0-0.5c-1.1,0.7-1.4,1.3-1.4,2.6H117c-0.1-1.3-0.3-1.9-1.4-2.6c0,0.2,0,0.4,0,0.6c0,1.3,0.3,2.9,1.9,2.9v9.4h-8v-9.4
		c1.8-1,2.3-2.9,2.3-4.9c0-1.4-0.2-2.2-1.4-2.9V0.5h5.5c0.2,1.6,0.9,2.9,1.9,4.2c1-1.3,1.6-2.6,1.9-4.2h5.4
		C125.1,0.5,125.1,3.3,125.1,3.3z"/>
	<path class="st0" d="M146.1,4.9h-2.4c0-0.1,0.1-0.3,0.1-0.4c0-0.3-0.2-0.8-0.6-0.8c-0.8,0-0.7,1.8-0.7,2.3c0,2.2,0.4,4,2.5,5.1v9.4
		h-8.7v-9.4c2.1-1.1,2.5-2.9,2.5-5.1c0-0.5,0.1-2.3-0.7-2.3c-0.4,0-0.6,0.4-0.6,0.8c0,0.1,0,0.3,0.1,0.4h-2.4V0.5h11v4.4H146.1z"/>
	<path class="st0" d="M154,3.3c-1.2,0.6-1.4,1.7-1.4,2.9c0,2,0.6,3.9,2.4,4.9v9.4h-8.3v-9.4c1.7-1,2.2-2.9,2.2-4.8
		c0-1.3-0.1-2.3-1.4-3V0.5h6.5V3.3z"/>
	<path class="st0" d="M172.3,3.3c-1.2,0.7-1.4,1.7-1.4,3c0,1.9,0.6,3.9,2.4,4.8v9.4h-8v-9.4c1.6,0,1.9-1.6,1.9-2.9
		c0-0.2,0-0.4,0-0.5c-1.1,0.7-1.4,1.3-1.4,2.6h-1.5c-0.1-1.3-0.3-1.9-1.4-2.6c0,0.2,0,0.4,0,0.6c0,1.3,0.3,2.9,1.9,2.9v9.4h-8v-9.4
		c1.8-1,2.3-2.9,2.3-4.9c0-1.4-0.2-2.2-1.4-2.9V0.5h5.5c0.2,1.6,0.9,2.9,1.9,4.2c1-1.3,1.6-2.6,1.9-4.2h5.4L172.3,3.3L172.3,3.3z"/>
	<path class="st0" d="M187.1,4.6h-2.9c-0.2-0.7-0.6-1.1-1.3-1.1c-1.4,0-1.6,1.9-1.7,2.9c0.6-0.6,1.3-1.2,2.1-1.2s1.5,0.7,1.5,1.5
		c0,1.3-0.8,1.6-1.9,1.6c-0.9,0-1.6,1.1-1.6,1.9c0,0.7,0.4,1.3,1.1,1.3c1.3,0,1.5-1.3,1.5-2.3h3.1v11.3h-12.2v-9.4
		c1.8-1,2.3-2.9,2.3-4.9c0-1.3-0.2-2.2-1.3-2.9V0.5H187L187.1,4.6L187.1,4.6z"/>
	<path class="st0" d="M212.7,3.3c-1.2,0.7-1.3,1.7-1.3,3c0,1.9,0.6,3.9,2.4,4.8v9.4h-8v-9.4c1.6,0,1.9-1.6,1.9-2.9
		c0-0.2,0-0.4,0-0.5c-1.1,0.7-1.4,1.3-1.4,2.6h-1.5c-0.1-1.3-0.3-1.9-1.4-2.6c0,0.2,0,0.4,0,0.6c0,1.3,0.3,2.9,1.9,2.9v9.4h-8v-9.4
		c1.8-1,2.3-2.9,2.3-4.9c0-1.4-0.2-2.2-1.4-2.9V0.5h5.5c0.2,1.6,0.9,2.9,1.9,4.2c1-1.3,1.6-2.6,1.9-4.2h5.4v2.8H212.7z"/>
	<path class="st0" d="M227.6,3.3c-0.5,0.2-0.6,0.6-0.6,1.1c0,2.5,1.9,5.8,4.3,6.7v9.4h-7.8v-9.4c0.7-0.2,0.9-0.6,0.9-1.4
		c0-0.5-0.1-1.2-0.8-1.2c-0.9,0-1.7,1.1-1.7,1.9c0,0.5,0.6,0.6,1,0.6v9.4h-7.8V11c2.5-1.1,4.2-3.9,4.2-6.6c0-0.5-0.1-0.9-0.6-1.2
		V0.5h8.9L227.6,3.3L227.6,3.3z M223.8,5.6c0-0.2-0.2-1.1-0.5-1.1c-0.5,0-0.8,1.7-0.9,2.2C222.7,6.4,223.8,6,223.8,5.6z"/>
	<path class="st0" d="M244.8,20.1c-1.8,0.7-2.7,1-4.7,1c-5.4,0-7.8-4.2-7.8-9.1c0-1.6,0.2-3.2,0.7-4.7c1-3.3,3.6-7.2,7.4-7.2
		c2.5,0,4.9,2.1,4.9,4.7c0,1.4-0.8,2.8-2.4,2.8c-1.1,0-2-0.9-2-2c0-1,0.8-1.2,0.8-1.7c0-0.3-0.3-0.5-0.6-0.5c-0.4,0-0.8,0.4-1,0.7
		c-0.7,0.8-1.3,2.2-1.3,3.3c0,2.3,1.9,3.7,4.1,3.7c0.8,0,1.3-0.1,2-0.4L244.8,20.1L244.8,20.1z"/>
	<path class="st0" d="M261,0.5v2.8c-1.1,0.7-1.4,1.6-1.4,2.9c0,2.1,0.7,4.1,2.8,4.9v9.4h-7.6v-9.4c0.9-0.3,1-1.1,1-1.9V7.6L254,8.7
		c-0.5,0.3-1,0.8-1,1.4s0.4,0.9,1,1v9.4h-7.6v-9.4c2-0.8,2.5-2.8,2.5-4.8c0-1.3-0.2-2.4-1.4-3V0.5h6.4v2.8c-0.7,0.2-0.9,0.6-0.9,1.4
		v1.6l1.5-0.9c0.4-0.2,0.9-0.6,0.9-1.1s-0.4-0.8-0.9-0.9V0.5H261z"/>
	<path class="st0" d="M271.3,3.3C270.1,3.9,270,5,270,6.2c0,2,0.6,3.9,2.4,4.9v9.4H264v-9.4c1.7-1,2.2-2.9,2.2-4.8
		c0-1.3-0.2-2.3-1.4-3V0.5h6.5L271.3,3.3L271.3,3.3z"/>
	<path class="st0" d="M287.5,3.3c-1.1,0.7-1.4,1.7-1.4,3c0,2,0.6,3.8,2.4,4.8v9.4h-7v-9.4c0.5,0,1.1,0,1.1-0.6c0-1-2-2.9-2.8-3.5
		c0,0.6,0,1.2,0.1,1.9c0.1,0.8,0.1,1.9,1,2.2v9.4h-7v-9.4c1.8-1,2.3-2.9,2.3-4.8c0-1.3-0.2-2.2-1.4-3V0.5h4.3
		c0.8,1.5,1.6,2.9,2.9,3.9V0.5h5.5V3.3z"/>
	<path class="st0" d="M302.3,4.6h-2.9c-0.2-0.7-0.6-1.1-1.3-1.1c-1.4,0-1.6,1.9-1.7,2.9c0.6-0.6,1.3-1.2,2.1-1.2
		c0.8,0,1.5,0.7,1.5,1.5c0,1.3-0.8,1.6-1.9,1.6c-0.9,0-1.6,1.1-1.6,1.9c0,0.7,0.4,1.3,1.1,1.3c1.3,0,1.5-1.3,1.5-2.3h3.1v11.3H290
		v-9.4c1.8-1,2.3-2.9,2.3-4.9c0-1.3-0.2-2.2-1.3-2.9V0.5h11.2L302.3,4.6L302.3,4.6z"/>
</g>
<rect x="538.3" y="-150" class="st1" width="172.4" height="145.9"/>
<text transform="matrix(1 0 0 1 541.4568 -124.0045)" style="font-family:'Bottleneck'; font-size:39px;">DAYDREAM</text>
<text transform="matrix(1 0 0 1 707.4568 -124.0045)" style="font-family:'Bottleneck'; font-size:30px;"> </text>
<text transform="matrix(1 0 0 1 540.5568 -98.0045)" style="font-family:'Bottleneck'; font-size:30px;">TIME MACHINE</text>
<g>
	<g>
		<g>
			<path d="M618.9,135.2c-3.1,0.3-4.7,0.5-7.9,1c0.1-0.3,0.3-0.7,0.3-0.9c0.1-0.8-0.6-1.6-1.8-1.3c-2.6,0.5-2.7,4.5-2.8,5.7
				c-0.4,5,1,8.8,7.7,10.6c0,8.9,0.3,13.2,1.4,21.2c-10.6,1.1-16,2.6-26.1,6.8c-2.2-7.8-2.8-11.9-3.1-20.3c6.3-5.3,7.6-9.8,8.1-14.7
				c0.1-1.1,0.8-5.2-1.6-4.2c-1.2,0.5-2,1.7-2.1,2.5c0,0.3,0,0.6,0.1,0.8c-3,1.3-4.4,2-7.3,3.6c0.5-3.8,0.9-5.6,1.8-9.3
				c10.5-6.2,22.3-10.2,34.4-11.4C619.4,129.1,619.2,131.1,618.9,135.2z"/>
			<path d="M644.3,133.8c-3.6,0.4-4.4,2.8-4.5,5.7c-0.2,4.8,1.5,9.4,6.9,13.8c-0.4,8.9-0.5,13.1-0.8,21.1
				c-9.4-3.1-14.5-3.7-24.7-3.3c-0.8-8.1-1.1-12.4-1-21.3c5.7-2.6,7.3-7.1,7.6-11.5c0.2-3.1-0.1-5.6-4-7.1c0.2-2.5,0.4-3.8,0.6-6.3
				c8.3-0.3,12.5,0.2,20.2,2.6C644.5,130,644.4,131.2,644.3,133.8z"/>
			<path d="M696.5,156.8c-3.5,0.6-3.8,2.7-3.9,5.6c-0.1,4.4,1.2,9.8,6.4,13.1c-1,8.6-2,12.7-4.6,20.2c-8.9-2.5-13.1-4.7-21.6-9
				c1.5-7.5,2.1-11.6,2.8-20.2c4.7,2.3,5.6-1.1,5.8-4.2c0-0.4,0-0.9,0-1.3c-3.4,0.1-4,1.2-4.4,4.2c-1.7-0.8-2.6-1.2-4.3-2.1
				c0-3.2-0.6-4.8-3.8-8.2c-0.1,0.4-0.1,0.9-0.1,1.3c-0.1,3.1,0.4,7.1,5,9.3c-0.7,8.6-1.2,12.7-2.7,20.2c-8.4-4.2-12.5-6.6-20.9-10
				c0.4-7.9,0.7-12.1,1.1-21c5.2-0.4,6.9-3.9,7-8.6c0.1-3.1-0.4-5.4-3.7-8.6c0.1-2.5,0.1-3.8,0.2-6.3c6,2.9,9,4.6,15,7.9
				c0.6,3.7,2.7,7.8,5.5,12c2.7-1.5,4.6-3.5,5.2-6.5c6.1,2.9,9.2,4.2,15.5,5.7C696.3,153.1,696.4,154.3,696.5,156.8z"/>
			<path d="M742.5,150.3c-3.3,2.2-5.1,3.1-8.7,4.8c-0.6-1.5-1.9-1.9-4.1-1c-4.3,1.8-4.7,6.7-5,9.4c1.9-2,4-4.3,6.6-5.4
				c2.6-1.1,4.7-0.2,4.7,2c0,3.4-2.7,5.4-6,6.7c-2.9,1.1-5.2,4.4-5.5,6.4c-0.2,1.7,0.7,2.9,3,2.2c4.3-1.3,5.2-5,5.6-7.8
				c3.9-1.6,5.7-2.5,9.3-4.6c-0.5,9.6-3.5,20.5-7.9,29c-11.3,5.2-23.5,7.6-35.8,4.8c2.9-7.6,3.9-11.7,5-20.4
				c5.8-1.6,7.9-6.6,7.9-11.3c0-3.2-0.6-5-4.4-6.8c-0.2-2.6-0.3-3.8-0.7-6.3c12.3,0,24.4-5.3,34.2-12.5
				C741.8,143.8,742.1,145.9,742.5,150.3z"/>
		</g>
	</g>
	<g>
		<g>
			<path d="M610.2,184.4c-1.5,1.9-1.3,4.7-0.7,7.9c0.9,4.9,2.9,9.8,5.6,12.5c2.1,9.5,3.5,14.1,6.6,22.6c-3.1-1.7-4.7-2.7-7.6-4.7
				c-4.1-7.1-5.9-11-8.9-19.1c2,0.2,1.1-3.4,0.2-6.5c-0.1-0.4-0.3-0.8-0.4-1.3c-1.1,1.7-0.9,3.1,0,6c-0.7-0.1-1.1-0.1-1.8-0.1
				c-1.1-2.9-1.8-4.1-3.8-5.6c0.1,0.4,0.3,0.8,0.4,1.2c1,2.8,2.6,6,4.6,6.2c3,8,4.9,11.8,9,18.8c-2.9-2.1-4.3-3.1-6.9-5.5
				c-5.2-5.1-7.5-8-11.4-14.2c0.9-1.6-0.1-5-1.7-8.8c-1.1-2.6-1.9-4.3-4-5.2c-0.8-2.1-1.1-3.2-1.8-5.4c3.1-1.3,4.6-1.9,7.8-3
				c1,3.6,2.8,6.3,4.8,8.9c0.6-3.2,1-6.5,0.8-10.6c3.2-0.8,4.8-1.2,8-1.7C609.6,179.9,609.8,181.4,610.2,184.4z"/>
			<path d="M631.8,184.6c-0.7,0.6-0.8,1.6-0.8,3.2c0.2,7.6,3.5,17.7,6.7,21c0.6,10.9,1.2,16.2,2.4,26.2c-3.5-1-5.1-1.6-8.4-2.9
				c-2-9.7-2.8-14.8-4.1-25.4c0.8-0.5,1-1.6,0.8-3.6c-0.1-1.6-0.5-3.5-1.4-3.6c-1.2-0.2-2,2.9-1.7,5.2c0.2,1.5,1,1.8,1.5,1.9
				c1.3,10.6,2.2,15.6,4.2,25.3c-3.3-1.3-4.9-2.1-8-3.8c-2.9-8.7-4.2-13.4-6.2-23.1c2.5-2.4,3.8-9.9,3.1-17.8
				c-0.1-1.6-0.3-2.7-1.1-3.4c-0.2-3.2-0.3-4.8-0.5-8.1c5.4-0.3,8.1-0.3,13.3,0.2C631.7,179.5,631.7,181.2,631.8,184.6z
				 M626.6,190.9c0-0.7-0.4-3.1-0.9-3.2c-0.7-0.1-0.8,5-0.9,6.2C625.3,193.2,626.6,192.1,626.6,190.9z"/>
			<path d="M655.5,237.1c-2,1.5-3.4,2.3-5.3,1.8c-8.5-2.4-10.6-18.9-11.1-27.2c-0.2-4.6-0.2-9.3,0.3-13.8
				c1.1-9.5,5.3-21.1,10.3-19.1c3.3,1.3,6.1,9,5.9,16.5c-0.1,4.1-1.2,7.8-3.2,7.1c-1.4-0.4-2.6-3.3-2.6-6.6c0-2.8,1-3.1,1-4.6
				c0-1-0.3-1.7-0.7-1.9c-0.5-0.2-1.1,0.8-1.4,1.6c-1,2.2-1.7,6.1-1.7,9.4c0,6.8,2.5,11.3,5.2,12c1,0.3,1.6,0.1,2.5-0.4
				C654.9,222.5,655,227.5,655.5,237.1z"/>
			<path d="M676.4,192.9c-0.1,2.7-0.2,4-0.3,6.7c-1.6,1.1-2,3.2-2.1,6.3c-0.2,5,0.5,9.9,3.1,12.1c-0.3,8.2-0.5,12.2-0.8,19.6
				c-3.5,0.5-5.3,0.7-8.9,0.8c-0.1-8.4-0.1-12.9,0.1-22.2c1.1-0.5,1.3-2.5,1.3-4.5c0-1.5,0.1-2.3,0.1-3.9c-0.9,0.8-1.3,1.2-2.2,2.1
				c-0.7,0.7-1.3,1.6-1.4,3.3s0.5,2.5,1.3,2.7c-0.1,9.4-0.1,13.9,0,22.4c-3.6,0.1-5.5,0.1-9.1-0.2c-0.4-9.4-0.5-14.3-0.5-24.5
				c2.5-1.6,3.3-6.8,3.4-12.2c0.1-3.6-0.1-6.6-1.6-9.1c0.1-3.1,0.2-4.7,0.3-7.9c3.3,1.6,5,2.4,8.3,4c-0.1,3-0.2,4.5-0.3,7.4
				c-0.9,0.1-1.3,1.2-1.3,3.1c0,1.7-0.1,2.5-0.1,4.2c0.8-0.7,1.2-1,2-1.6c0.6-0.4,1.2-1,1.3-2.4c0-1.4-0.5-2.3-1.1-2.9
				c0.1-2.9,0.2-4.4,0.3-7.3C671.4,190.5,673,191.3,676.4,192.9z"/>
			<path d="M689.6,204c-1.7,0.8-2,2.9-2.2,5.4c-0.3,4,0.1,7.7,2.2,9.7c-0.8,6.8-1.2,10-2,16c-3.6,1.1-5.5,1.5-9.3,2.2
				c0.4-7.2,0.6-11,1-19c2.3-1.8,3.1-5.7,3.4-9.7c0.2-2.8,0.1-5.1-1.4-7.2c0.1-2.5,0.2-3.7,0.3-6.3c3.4,1.5,5.1,2.2,8.6,3.3
				C689.9,200.7,689.8,201.8,689.6,204z"/>
			<path d="M711.6,206c-1.8,1.1-2.5,2.8-3,4.5c-0.8,2.9-0.8,5.3,0.9,5.9c-1.9,4.9-2.9,7.2-5.3,11.4c-2.7,1.6-4.1,2.3-7,3.6
				c1.6-4.9,2.3-7.5,3.7-13.1c0.6-0.1,1.3-0.2,1.5-1c0.4-1.5-1.6-4.1-2.4-5.1c-0.2,1-0.3,2-0.5,3c-0.2,1.2-0.5,3,0.5,3.3
				c-1.3,5.7-2,8.3-3.5,13.3c-2.9,1.3-4.4,1.8-7.4,2.8c1-5.8,1.4-8.9,2.3-15.5c2.4-1.7,3.6-5,4-8.3c0.3-2.3,0.2-4-1.2-5.6
				c0.2-2.1,0.3-3.1,0.5-5.3c2.3,0.6,3.5,0.9,5.9,1.3c0.7,2.7,1.5,5.3,3,6.8c0.5-2.5,0.7-3.7,1.1-6.3c3.1,0.3,4.6,0.3,7.8,0.1
				C712.2,203.5,712,204.4,711.6,206z"/>
			<path d="M731.5,200.9c-1.5,0.8-2.3,1.2-3.9,1.9c0.2-0.7-0.1-1-1-0.6c-1.9,0.8-3.4,3.3-4.1,4.7c1.1-1,2.4-2.2,3.6-2.7
				c1.1-0.5,1.5,0,0.9,1c-0.9,1.6-2.2,2.4-3.5,3.1c-1.1,0.5-2.7,2.2-3.3,3.2c-0.5,0.8-0.5,1.3,0.4,0.9c1.6-0.8,2.7-2.4,3.6-3.7
				c1.5-0.8,2.3-1.2,3.7-2c-3.8,5.3-6,7.8-10.9,12.3c-4.1,3.6-6.3,5.2-11,8.1c2.5-4.1,3.6-6.3,5.7-11.1c2.8-2.1,4.5-4.7,5.6-7.3
				c0.7-1.7,0.9-2.8-0.4-3.4c0.5-1.5,0.7-2.3,1.2-3.9c6.7-1.2,10.2-2.5,16.4-5.4C733.2,197.9,732.7,198.9,731.5,200.9z"/>
		</g>
	</g>
	<g>
		<g>
			<path d="M611.9,91.3c1.6-1.3,1.7-1.2,1.2,0.6c-0.9,2.7-3,9-5.1,15.3c-1.5,4.5-3.4,9.6-6.1,14c-2.5,4.1-4.7,5.8-7.3,6.9
				c-3.7,1.6-5.5,2.6-9,4.7c2.1-8.1,3.7-12,7.7-19.1c2.7-2.7,5.8-7.3,8.1-10.6c1.6-2.2,2.7-3.7,2.7-4.1c1.5-1.8,2.3-2.6,4-4.3
				C609.6,93.3,610.4,92.6,611.9,91.3z M605.6,101.9c1-1.8,3.6-6.2,2.4-5.4c-0.9,0.6-3.4,4.2-4,5.3c-0.8,1.2-1.5,2.4-2.1,3.7
				c-0.6,1.2-1.7,3.5-0.8,2.9C602.6,107.6,604.5,103.9,605.6,101.9z"/>
			<path d="M627.8,85.1c-0.6,0.6-0.9,1.2-1.2,2.2c-1.4,4.6-0.7,10.6,1.8,12.2c-1.1,8-1.5,12.4-1.7,21.4c-4.1,0-6.2,0.2-10.3,0.7
				c0.6-8.6,1.3-12.7,3-20.3c0.9-0.7,1.3-1.6,1.7-3c0.3-1.1,0.4-2.3-0.3-2.1c-1,0.3-2.5,2.8-3,4.4c-0.3,1.1,0.4,1,0.8,0.9
				c-1.8,7.6-2.5,11.6-3.1,20.2c-4.2,0.6-6.2,1.1-10.3,2.3c1.1-8.3,2.1-12.2,4.6-19.5c3.5-3.3,7.1-9.3,9.2-14.1
				c0.4-0.9,0.7-1.6,0.4-1.7c0.9-1.9,1.4-2.8,2.4-4.5c2.9-1.8,4.5-2.6,7.6-4C628.8,82.2,628.4,83.1,627.8,85.1z M622.6,90.7
				c0.1-0.4,0.5-1.8,0.2-1.7c-0.5,0.2-2,3.5-2.3,4.3C621,92.6,622.4,91.5,622.6,90.7z"/>
			<path d="M645.5,80.7c-1.7,0.7-2.8,5-3.5,8.1c-1.1,4.6-1.9,9.7-2.3,14.9c-0.4,4.7-0.6,9.8-2,13.9c-0.8,2.5-2.3,3.9-3.9,3.8
				c-2.3-0.3-3.5-0.3-5.8-0.4c0.2-9.1,0.5-13.5,1.6-21.6c0.9,0.2,1.9,0.5,2.9,0.4c1.3-0.1,2.6-1.1,2.8-3.9c0.3-2.8-0.2-8.3-0.4-10.4
				c-0.1-1.5-0.3-2.3-1.1-2.3c0.4-2.1,0.7-3.1,1.2-5.1c2-0.8,3-1.1,5.1-1.7c-0.3,2.1-0.5,3.2-0.8,5.4c-0.3,0.2-0.6,0.4-0.7,1
				c-0.1,0.5,0.3,3.3,0.4,4c0.5-1.6,0.8-2.4,1.3-3.9c0-0.1,0.1-0.3,0.1-0.4c0.1-0.8-0.2-0.9-0.5-0.9c0.3-2.2,0.4-3.3,0.8-5.5
				c2.1-0.6,3.1-0.9,5.3-1.3C645.7,77.1,645.6,78.3,645.5,80.7z"/>
			<path d="M652.9,73.6c2.1-0.3,3.4,1,4.9,5c2.3,6.2,3.8,17.2,4,26.8c0.1,6.8-0.5,13.8-2.1,18.4c-1.5,4.3-3.3,4.5-5.7,3.4
				c-3.3-1.6-5-2.3-8.6-3.4c-0.2-10.4-0.2-15.4,0-24.7c2.3-1.5,3.1-7.2,3.2-11.7c0.1-3.1-0.1-5.4-1.2-6.8c0.1-2.5,0.2-3.7,0.3-6
				C649.7,74,650.8,73.9,652.9,73.6z M655.5,91.8c0-2.6-0.4-9.7-1.9-9.7c-1,0-1.1,5.3-1.1,6.8c0,1.8,0,3.5,0.1,5.3
				c0,1.7,0.1,5.1,1.2,5.3C655.3,99.9,655.5,94.7,655.5,91.8z"/>
			<path d="M670.7,73.4c2,0.2,3.8,3,4.4,9.7c0.4,5.4-0.3,7.9-1.9,9.7c1.7,1.7,2.2,4.2,3,8.6c0.8,5.1,1.6,5.8,3.3,6.4
				c0.5,11,0.7,22,0.8,33c-1.9-0.9-2.9-1.4-4.8-2.4c-1.8-0.9-2.7-4-2.8-9.3c-0.1-11.3-0.3-16.8-0.7-27.3c-0.1-2-0.4-4.2-1.2-4.4
				c-0.7-0.2-1.1,1.4-1.1,3.3c0.1,2.5,0.7,4,1.6,4.5c0.4,10.5,0.5,20.9,0.6,31.4c-3.3-1.8-4.9-2.7-8.2-4.4
				c-0.1-9.8-0.3-19.6-0.5-29.5c1.9-2.6,2.3-8.2,2.1-13.6c-0.1-3.7-0.5-6.4-1.8-8.4c-0.1-3.1-0.2-4.6-0.3-7.6
				C666.2,73,667.7,73.1,670.7,73.4z M670.1,87.9c0.6-0.9,1.2-1.8,1.1-4.1c-0.1-1.3-0.5-2.3-1-2.3c-1.2-0.2-1.2,3.5-1,6.2
				c0,0.7,0,1.1,0.1,1.8C669.6,88.8,669.8,88.4,670.1,87.9z"/>
			<path d="M691.9,90.5c-1.2-0.4-1.8-0.6-3-0.9c-0.4-2.2-1-3.6-1.7-3.8c-1.4-0.4-0.9,5.7-0.6,9.1c0.4-1.7,0.9-3.5,1.8-3.2
				c0.9,0.3,1.8,2.8,2.2,5.5c0.5,4.2-0.3,5-1.5,4.6c-1-0.3-1.4,3.2-1.2,5.9c0.2,2.3,0.7,4.5,1.5,4.7c1.5,0.5,1.3-4,1-7.6
				c1.3,0.4,2,0.6,3.4,1c1.5,13.6,2.1,27.2,2.4,40.8c-5.9-1.4-8.8-2.6-14.5-5.2c-0.1-11.1-0.4-22.1-0.9-33.2
				c1.8-2.9,1.9-9.2,1.4-15.5c-0.4-4.3-0.8-7-2.3-9.6c-0.3-3.5-0.5-5.2-0.9-8.5c4.4,0.9,6.5,1.5,10.6,3
				C690.7,82.6,691.2,85.2,691.9,90.5z"/>
			<path d="M704.6,91.3c-0.2,0.5-0.1,1.5,0.3,3c2,7.6,6.1,18.5,9.4,21.5c2.2,9.9,3.7,20.4,4.3,30.6c-4.1,1.2-6.2,1.5-10.1,1.6
				c-0.6-11.1-1.6-22-2.9-33c0.7-0.7,0.7-2,0.3-4.3c-0.3-1.8-0.8-4-1.6-4.1c-1-0.2-1.3,3.3-0.9,6.1c0.3,1.8,1,2.2,1.4,2.2
				c1.3,11.1,2.3,22,2.8,33.2c-4,0.1-5.9-0.2-9.7-0.9c-0.3-11.5-0.9-22.7-1.9-34.1c2.4-3.2,3-12.2,1.4-20.9c-0.3-1.7-0.6-3-1.3-3.9
				c-0.7-3.5-1.1-5.3-1.8-8.6c3.2,1.4,4.7,2.1,7.7,3.8C703.1,86.4,703.6,88,704.6,91.3z M702.6,97c-0.2-0.8-0.9-3.3-1.2-3.5
				c-0.5-0.2,0.3,5.3,0.5,6.6C702.1,99.4,702.9,98.3,702.6,97z"/>
			<path d="M722.2,99.9c0,0.6,1.4,2.7,3,5.2c2.5,3.9,5.2,8.3,8,10c4.1,7.6,5.7,11.8,7.6,20.5c-3.6,2.6-5.5,3.8-9.4,5.8
				c-1.5-10.7-2.8-15.9-6.2-25.6c1.7-0.1,0.4-4-1.1-7.1c-0.2-0.4-0.4-0.9-0.6-1.3c-0.3,1.4,0.2,3,1.4,6.3c-0.6,0-0.9,0-1.5,0
				c-1.3-3.5-2.1-4.9-4-7c0.2,0.5,0.4,1,0.5,1.5c1.3,3.5,3,7.7,4.6,7.6c3.4,9.8,4.6,15.1,6.1,26c-3.9,2-6,2.8-10.2,4.1
				c-0.7-10-2.3-20.3-4.6-30c1.3-3.1,0.3-8.3-1.6-13.8c-1.3-3.7-2.4-6-4.2-8.5c-1.2-3-1.8-4.5-3-7.3c1.7,1.2,2.6,1.8,4.3,3
				c2.2,3.7,4.5,7.3,6.8,10.6c-0.7-2.7-1.9-5.2-4-8.3c1.6,1.3,2.4,2,3.8,3.4C719.7,96.9,720.6,97.9,722.2,99.9z"/>
		</g>
	</g>
</g>
<circle class="st2" cx="662.8" cy="156.4" r="86.9"/>
</svg>
