<svg id="Layer_1" data-name="Layer 1" xmlns="http://www.w3.org/2000/svg" viewBox="0 0 64 64"><defs><style>.cls-1{fill:#fff;}.cls-2{fill:#0acf83;}.cls-3{fill:#a259ff;}.cls-4{fill:#f24e1e;}.cls-5{fill:#ff7262;}.cls-6{fill:#1abcfe;}</style></defs><path class="cls-1" d="M57.77,6.23C52.78.92,42.39.16,32,0,21.61.16,11.22.92,6.23,6.23.92,11.22.16,21.61,0,32,.16,42.39.92,52.78,6.23,57.77c5,5.31,15.38,6.07,25.77,6.23,10.39-.16,20.78-.92,25.77-6.23,5.31-5,6.07-15.38,6.23-25.77C63.84,21.61,63.08,11.22,57.77,6.23Z"/><path id="path0_fill" data-name="path0 fill" class="cls-2" d="M26.67,48A5.33,5.33,0,0,0,32,42.67V37.33H26.67a5.34,5.34,0,1,0,0,10.67Z"/><path id="path1_fill" data-name="path1 fill" class="cls-3" d="M21.33,32a5.34,5.34,0,0,1,5.34-5.33H32V37.33H26.67A5.34,5.34,0,0,1,21.33,32Z"/><path id="path1_fill-2" data-name="path1 fill" class="cls-4" d="M21.33,21.33A5.34,5.34,0,0,1,26.67,16H32V26.67H26.67A5.34,5.34,0,0,1,21.33,21.33Z"/><path id="path2_fill" data-name="path2 fill" class="cls-5" d="M32,16h5.33a5.34,5.34,0,1,1,0,10.67H32Z"/><path id="path3_fill" data-name="path3 fill" class="cls-6" d="M42.67,32a5.34,5.34,0,1,1-5.34-5.33A5.34,5.34,0,0,1,42.67,32Z"/></svg>