<svg id="Layer_1" data-name="Layer 1" xmlns="http://www.w3.org/2000/svg" xmlns:xlink="http://www.w3.org/1999/xlink" viewBox="0 0 64 64"><defs><style>.cls-1{fill:none;}.cls-2{fill:#fff;}.cls-3{clip-path:url(#clip-path);}.cls-4{fill:#fbbc05;}.cls-5{fill:#ea4335;}.cls-6{fill:#34a853;}.cls-7{fill:#4285f4;}</style><clipPath id="clip-path"><path class="cls-1" d="M47.63,29H32.37v6.33h8.78c-.82,4-4.24,6.32-8.78,6.32a9.67,9.67,0,0,1,0-19.34,9.46,9.46,0,0,1,6,2.15l4.76-4.76A16.36,16.36,0,1,0,32.37,48.37C40.56,48.37,48,42.42,48,32A13.81,13.81,0,0,0,47.63,29Z"/></clipPath></defs><path class="cls-2" d="M57.77,6.23C52.78.92,42.39.16,32,0,21.61.16,11.22.92,6.23,6.23.92,11.22.16,21.61,0,32,.16,42.39.92,52.78,6.23,57.77c5,5.31,15.38,6.07,25.77,6.23,10.39-.16,20.78-.92,25.77-6.23,5.31-5,6.07-15.38,6.23-25.77C63.84,21.61,63.08,11.22,57.77,6.23Z"/><g class="cls-3"><path class="cls-4" d="M14.51,41.67V22.33L27.16,32Z"/></g><g class="cls-3"><path class="cls-5" d="M14.51,22.33,27.16,32l5.21-4.54,17.86-2.9V14.14H14.51Z"/></g><g class="cls-3"><path class="cls-6" d="M14.51,41.67,36.84,24.56l5.88.74,7.51-11.16V49.86H14.51Z"/></g><g class="cls-3"><path class="cls-7" d="M50.23,49.86,27.16,32l-3-2.23,26-7.44Z"/></g></svg>