<svg id="Layer_1" data-name="Layer 1" xmlns="http://www.w3.org/2000/svg" viewBox="0 0 64 64"><defs><style>.cls-1{fill:#4a8cff;}.cls-2{fill:#fff;}</style></defs><path class="cls-1" d="M57.77,6.23C52.78.92,42.39.16,32,0,21.61.16,11.22.92,6.23,6.23.92,11.22.16,21.61,0,32,.16,42.39.92,52.78,6.23,57.77c5,5.31,15.38,6.07,25.77,6.23,10.39-.16,20.78-.92,25.77-6.23,5.31-5,6.07-15.38,6.23-25.77C63.84,21.61,63.08,11.22,57.77,6.23Z"/><path class="cls-2" d="M41.1,28.26l8.15-6c.72-.59,1.26-.45,1.26.62V41.1c0,1.2-.68,1.07-1.26.63l-8.15-6ZM13.49,23V36.52A5.55,5.55,0,0,0,19.07,42H38.83a1,1,0,0,0,1-1V27.48A5.55,5.55,0,0,0,34.27,22H14.5A1,1,0,0,0,13.49,23Z"/></svg>