<svg id="Layer_1" data-name="Layer 1" xmlns="http://www.w3.org/2000/svg" viewBox="0 0 64 64"><defs><style>.cls-1{fill:#300;}.cls-2{fill:#ff9a00;}</style></defs><path class="cls-1" d="M57.77,6.23C52.78.92,42.39.16,32,0,21.61.16,11.22.92,6.23,6.23.92,11.22.16,21.61,0,32,.16,42.39.92,52.78,6.23,57.77c5,5.31,15.38,6.07,25.77,6.23,10.39-.16,20.78-.92,25.77-6.23,5.31-5,6.07-15.38,6.23-25.77C63.84,21.61,63.08,11.22,57.77,6.23Z"/><g id="Outlined_Mnemonics_Logos" data-name="Outlined Mnemonics Logos"><g id="Ai"><path class="cls-2" d="M31,38.24H21.09l-2,6.27a.47.47,0,0,1-.51.37h-5c-.3,0-.38-.16-.3-.48l8.59-24.72c.08-.27.16-.56.27-.88a9.94,9.94,0,0,0,.16-1.73.27.27,0,0,1,.21-.3h6.91c.21,0,.32.08.34.22l9.74,27.46c.08.3,0,.43-.27.43H33.63a.4.4,0,0,1-.43-.29Zm-8.37-5.41h6.77c-.16-.56-.37-1.23-.61-1.92s-.48-1.5-.72-2.3-.51-1.62-.77-2.45-.51-1.6-.72-2.37-.4-1.44-.59-2.08H26A34.3,34.3,0,0,1,25,25.15c-.4,1.28-.8,2.61-1.23,3.94s-.77,2.62-1.17,3.74Z"/><path class="cls-2" d="M45.28,21.33a3.29,3.29,0,0,1-2.37-.93A3.43,3.43,0,0,1,42,18a3.14,3.14,0,0,1,1-2.38,3.42,3.42,0,0,1,2.37-.93,3.22,3.22,0,0,1,2.43.93A3.35,3.35,0,0,1,48.64,18a3.37,3.37,0,0,1-.93,2.45A3.12,3.12,0,0,1,45.28,21.33Zm-3,23.15V24c0-.27.11-.38.35-.38h5.28c.24,0,.35.14.35.38V44.48c0,.29-.11.43-.35.43H42.69A.38.38,0,0,1,42.29,44.48Z"/></g></g></svg>