<?xml version="1.0" encoding="utf-8"?>
<!-- Generator: Adobe Illustrator 24.3.0, SVG Export Plug-In . SVG Version: 6.00 Build 0)  -->
<svg version="1.1" id="Layer_1" xmlns="http://www.w3.org/2000/svg" xmlns:xlink="http://www.w3.org/1999/xlink" x="0px" y="0px"
	 viewBox="0 0 265 50" style="enable-background:new 0 0 265 50;" xml:space="preserve">
<style type="text/css">
	.st0{fill:#0093FF;}
	.st1{fill:#FF406E;}
	.st2{fill:#FFFFFF;}
</style>
<path class="st0" d="M31.1,20.8c4.1,0,6.6-2.7,6.6-7c0-4.2-4.5-10.7-5-11.4L31.1,0l-1.6,2.4c-0.5,0.7-5,7.3-5,11.4
	C24.5,18.1,27,20.8,31.1,20.8z M31.1,7.2c1.3,2.3,2.6,5,2.6,6.6c0,2.1-0.8,3-2.6,3c-1.9,0-2.6-0.9-2.6-3
	C28.4,12.3,29.7,9.5,31.1,7.2z"/>
<path class="st1" d="M59.4,28.8c-2.6-0.5-5.3-0.8-7.8-0.8c0-0.3,0-0.6,0-0.9v-9.1h-2c-8.2,0-15.2,4.1-18.5,10.1
	c-3.3-5.9-10.4-10.1-18.5-10.1h-2v9.1c0,0.3,0,0.6,0,0.9c-2.7-0.1-5.5,0.2-8.2,0.8L0,29.4l3.3,7.3c3.6,7.7,11.5,12.3,21.2,12.3
	c0.3,0,0.5,0,0.8,0c1.2,0.2,2.4,0.3,3.8,0.4h4c1.3-0.1,2.6-0.2,3.7-0.3c0.2,0,0.3,0,0.5,0c9.7,0,17.6-4.6,21.2-12.3l3.3-7.3
	L59.4,28.8z M7,34.9l-1.2-2.6c1.7-0.2,3.5-0.3,5.2-0.3c0.5,3.8,1.6,7.6,3.9,10.7C11.8,41.3,8.8,38.9,7,34.9z M14.6,27.1v-4.9
	c8.2,0.8,14.5,6.6,14.5,13.5v9.6C19.2,45,14.6,39.2,14.6,27.1z M33.1,35.7c0-7,6.4-12.7,14.5-13.5v4.9c0,12-4.6,17.8-14.5,18.1V35.7
	z M54.9,34.9c-1.8,3.8-4.5,6.2-7.3,7.6c2.2-3,3.3-6.8,3.8-10.5c1.6-0.1,3.2,0.1,4.8,0.3L54.9,34.9z"/>
<path class="st2" d="M94.6,48.9h-8.9c-0.5-0.3-1.2-1.4-1.5-2.3l-3.1-8.4c-0.2-0.5-0.4-0.8-1.2-1h-1.6v11.5h-8.4V21.9h12.3
	c6,0,10.5,3.2,10.5,7.8c0,4.1-3.7,7-8.7,7.5c3.1,0.2,6.1,1.4,7.2,4.3l1.5,4.5C93.1,47.1,93.8,48.4,94.6,48.9z M78.2,36.6H80
	c2.4,0,4-2.7,4-6.9s-1.6-6.9-4-6.9h-1.8V36.6z"/>
<path class="st2" d="M93.7,39.3c0-5.7,4.7-10,10.8-10c6.2,0,10.9,4.3,10.9,10c0,5.7-4.7,10-10.9,10C98.3,49.3,93.7,45,93.7,39.3z
	 M106.8,39.3c0-5.9-0.8-9.2-2.2-9.2c-1.5,0-2.2,3.3-2.2,9.2c0,5.9,0.8,9.2,2.2,9.2C106,48.5,106.8,45.2,106.8,39.3z"/>
<path class="st2" d="M116.1,43.9h0.8c0,2.5,2.7,4.3,6.3,4.3c2.2,0,3.9-0.5,3.9-1.9c0-1.1-1.1-1.8-3.9-3.3c-2.1-1.1-7.1-2.7-7.1-7.4
	c0-3.9,3.3-6.4,8.5-6.4c4.2,0,7.4,2.1,7.4,4.9h-0.7c0-2.2-2.3-3.9-5.5-3.9c-2.3,0-3.7,0.7-3.7,2c0,1.3,1,1.9,3.8,3.2
	c2.7,1.4,7.1,2.8,7.1,7.3c0,3.8-3,6.5-8.6,6.5C119.7,49.3,116.1,46.9,116.1,43.9z"/>
<path class="st2" d="M152.1,45h0.9c-1.2,2.5-4.6,4.3-8.4,4.3c-6.7,0-11.5-4.3-11.5-10.1c0-5.7,4.7-9.9,10.5-9.9c5.8,0,10,4.2,10,9.8
	h-11.8c0.2,6.4,2,8.9,5.3,8.9C149.1,47.9,150.9,46.9,152.1,45z M141.7,38.2l4.1,0.1c-0.1-5.2-0.7-8.2-2-8.2
	C142.4,30.1,141.7,33.7,141.7,38.2z"/>
<path class="st2" d="M192.1,22l-11.8,26.9h-2.6l-6.4-14.6L165,48.9h-2.6L150.6,22h9l8,18.6l3.3-7.4L166,22h9l8,18.6l8.1-18.6H192.1z
	"/>
<path class="st2" d="M210,36.8v12.1h-8.4v-2.5c-1.2,1.7-3.6,2.9-6.2,2.9c-3.7,0-6.5-2.4-6.5-5.4c0-3.2,3.4-5.6,7.8-5.6
	c2,0,3.9,0.5,4.8,1.2v-4.7c0-2.7-1.7-4.2-4.7-4.2c-2.9,0-5.4,1.8-5.4,4.2h-0.8c0-3.1,3.8-5.4,8.9-5.4C205.5,29.3,210,32.5,210,36.8z
	 M201.5,45.4v-5.1c-0.3-0.4-0.9-0.6-1.5-0.6c-1.5,0-2.6,1.4-2.6,3.6c0,2,0.8,3.4,2.1,3.4C200.4,46.7,201,46.3,201.5,45.4z"/>
<path class="st2" d="M225.5,45.7c0,2-2.7,3.6-6.2,3.6c-4.1,0-7-2.4-7-5.6V30.4h-2.1v-0.8h2.1v-4l8.4-1.6v5.6h4.1v0.8h-4.1V45
	c0,1.4,0.8,2.4,1.9,2.4c1.1,0,2-0.8,2-1.8L225.5,45.7L225.5,45.7z"/>
<path class="st2" d="M243.6,45h0.9c-1.2,2.5-4.6,4.3-8.4,4.3c-6.7,0-11.5-4.3-11.5-10.1c0-5.7,4.7-9.9,10.5-9.9c5.8,0,10,4.2,10,9.8
	h-11.8c0.2,6.4,2,8.9,5.3,8.9C240.5,47.9,242.4,46.9,243.6,45z M233.1,38.2l4.1,0.1c-0.1-5.2-0.7-8.2-2-8.2
	C233.9,30.1,233.1,33.7,233.1,38.2z"/>
<path class="st2" d="M264.1,33.8h-0.8c0-2.3-1.4-3.7-3.5-3.7c-2.3,0-4.1,1.6-4.9,4.3v14.5h-8.4V30.7l8.4-1.2v3.1
	c1-2,2.7-3.3,4.8-3.3C262.4,29.3,264.1,31,264.1,33.8z"/>
</svg>
