<?xml version="1.0" encoding="utf-8"?>
<!-- Generator: Adobe Illustrator 24.3.0, SVG Export Plug-In . SVG Version: 6.00 Build 0)  -->
<svg version="1.1" id="Layer_1" xmlns="http://www.w3.org/2000/svg" xmlns:xlink="http://www.w3.org/1999/xlink" x="0px" y="0px"
	 viewBox="0 0 1123 308.7" style="enable-background:new 0 0 1123 308.7;" xml:space="preserve">
<style type="text/css">
	.st0{opacity:0.1;}
	.st1{fill:#BFDDFF;}
	.st2{fill:#FF52FF;}
	.st3{fill:#B2B6CC;}
	.st4{fill:#4E54FD;}
</style>
<g>
	<g class="st0">
		
			<rect x="1002.2" y="150.1" transform="matrix(0.7071 -0.7071 0.7071 0.7071 167.3587 800.9999)" class="st1" width="96.7" height="96.7"/>
	</g>
	<g>
		<path class="st1" d="M1050.6,268.3l-69.8-69.8l69.8-69.8l69.8,69.8L1050.6,268.3z M983.6,198.5l67,67l67-67l-67-67L983.6,198.5z"
			/>
	</g>
	<g>
		<path class="st1" d="M1029,200.6l-0.9-2.2h-2.8l-0.8,2.2h-0.9l2.8-7.2h0.8l2.8,7.2H1029z M1027,195.4c0-0.1-0.1-0.2-0.1-0.3
			s-0.1-0.3-0.1-0.4c0-0.2-0.1-0.3-0.1-0.3c0,0.2-0.1,0.4-0.2,0.6c-0.1,0.2-0.1,0.4-0.1,0.5l-0.8,2.2h2.3L1027,195.4z"/>
		<path class="st1" d="M1032.7,200.7c-0.7,0-1.2-0.2-1.6-0.7c-0.4-0.5-0.6-1.2-0.6-2.1c0-0.9,0.2-1.6,0.6-2.1s0.9-0.7,1.6-0.7
			c0.4,0,0.8,0.1,1,0.2c0.3,0.2,0.5,0.3,0.6,0.6h0.1c0-0.1,0-0.2,0-0.4s0-0.3,0-0.4V193h0.9v7.6h-0.7l-0.1-0.7h0
			c-0.2,0.2-0.4,0.4-0.6,0.6C1033.5,200.6,1033.2,200.7,1032.7,200.7z M1032.9,200c0.6,0,1-0.2,1.2-0.5c0.2-0.3,0.3-0.8,0.3-1.4
			v-0.2c0-0.7-0.1-1.2-0.3-1.5c-0.2-0.4-0.6-0.5-1.2-0.5c-0.5,0-0.8,0.2-1.1,0.6c-0.2,0.4-0.4,0.9-0.4,1.5c0,0.6,0.1,1.1,0.4,1.5
			C1032,199.8,1032.4,200,1032.9,200z"/>
		<path class="st1" d="M1038.9,200.7c-0.7,0-1.2-0.2-1.6-0.7c-0.4-0.5-0.6-1.2-0.6-2.1c0-0.9,0.2-1.6,0.6-2.1s0.9-0.7,1.6-0.7
			c0.4,0,0.8,0.1,1,0.2c0.3,0.2,0.5,0.3,0.6,0.6h0.1c0-0.1,0-0.2,0-0.4s0-0.3,0-0.4V193h0.9v7.6h-0.7l-0.1-0.7h0
			c-0.2,0.2-0.4,0.4-0.6,0.6C1039.7,200.6,1039.4,200.7,1038.9,200.7z M1039.1,200c0.6,0,1-0.2,1.2-0.5c0.2-0.3,0.3-0.8,0.3-1.4
			v-0.2c0-0.7-0.1-1.2-0.3-1.5c-0.2-0.4-0.6-0.5-1.2-0.5c-0.5,0-0.8,0.2-1.1,0.6c-0.2,0.4-0.4,0.9-0.4,1.5c0,0.6,0.1,1.1,0.4,1.5
			C1038.2,199.8,1038.6,200,1039.1,200z"/>
		<path class="st1" d="M1047.6,200c0.1,0,0.3,0,0.4,0c0.1,0,0.3,0,0.3-0.1v0.7c-0.1,0-0.2,0.1-0.4,0.1c-0.2,0-0.3,0-0.5,0
			c-0.3,0-0.5,0-0.8-0.1s-0.4-0.3-0.6-0.5s-0.2-0.6-0.2-1v-3.1h-0.8v-0.4l0.8-0.4l0.4-1.1h0.5v1.2h1.5v0.7h-1.5v3.1
			c0,0.3,0.1,0.6,0.2,0.7C1047.1,199.9,1047.3,200,1047.6,200z"/>
		<path class="st1" d="M1054.1,197.9c0,0.9-0.2,1.6-0.7,2.1s-1.1,0.7-1.8,0.7c-0.5,0-0.9-0.1-1.3-0.3s-0.7-0.5-0.9-1
			c-0.2-0.4-0.3-0.9-0.3-1.5c0-0.9,0.2-1.6,0.7-2c0.4-0.5,1.1-0.7,1.8-0.7c0.5,0,0.9,0.1,1.3,0.3s0.7,0.5,0.9,0.9
			S1054.1,197.3,1054.1,197.9z M1050,197.9c0,0.6,0.1,1.1,0.4,1.5c0.2,0.4,0.6,0.6,1.2,0.6c0.5,0,0.9-0.2,1.2-0.6
			c0.3-0.4,0.4-0.9,0.4-1.5c0-0.6-0.1-1.1-0.4-1.5c-0.3-0.4-0.7-0.5-1.2-0.5c-0.5,0-0.9,0.2-1.2,0.5
			C1050.2,196.8,1050,197.3,1050,197.9z"/>
		<path class="st1" d="M1060.2,200.7c-0.5,0-0.9-0.1-1.3-0.3c-0.4-0.2-0.7-0.5-0.9-0.9s-0.3-0.9-0.3-1.6c0-0.7,0.1-1.2,0.3-1.6
			s0.5-0.7,0.9-0.9c0.4-0.2,0.8-0.3,1.3-0.3c0.3,0,0.5,0,0.8,0.1c0.3,0.1,0.5,0.1,0.6,0.2l-0.3,0.7c-0.2-0.1-0.3-0.1-0.6-0.2
			c-0.2-0.1-0.4-0.1-0.6-0.1c-1.1,0-1.6,0.7-1.6,2c0,0.6,0.1,1.1,0.4,1.5c0.3,0.3,0.6,0.5,1.1,0.5c0.3,0,0.6,0,0.8-0.1
			c0.2-0.1,0.4-0.1,0.6-0.2v0.8c-0.2,0.1-0.4,0.2-0.6,0.2C1060.8,200.7,1060.5,200.7,1060.2,200.7z"/>
		<path class="st1" d="M1065.1,195.1c0.7,0,1.1,0.1,1.5,0.4c0.3,0.3,0.5,0.7,0.5,1.4v3.6h-0.6l-0.2-0.8h0c-0.2,0.3-0.5,0.5-0.7,0.6
			c-0.3,0.1-0.6,0.2-1.1,0.2c-0.5,0-0.9-0.1-1.2-0.4c-0.3-0.3-0.5-0.7-0.5-1.2c0-0.5,0.2-0.9,0.6-1.2c0.4-0.3,1.1-0.4,1.9-0.5l0.9,0
			V197c0-0.4-0.1-0.8-0.3-0.9c-0.2-0.2-0.5-0.3-0.8-0.3c-0.3,0-0.5,0-0.8,0.1c-0.3,0.1-0.5,0.2-0.7,0.3l-0.3-0.7
			c0.2-0.1,0.5-0.2,0.8-0.3C1064.4,195.2,1064.7,195.1,1065.1,195.1z M1065.3,198c-0.7,0-1.1,0.1-1.4,0.3c-0.3,0.2-0.4,0.4-0.4,0.8
			c0,0.3,0.1,0.5,0.3,0.7c0.2,0.1,0.4,0.2,0.7,0.2c0.5,0,0.8-0.1,1.1-0.4c0.3-0.2,0.4-0.6,0.4-1.2V198L1065.3,198z"/>
		<path class="st1" d="M1071.2,195.1c0.1,0,0.2,0,0.3,0c0.1,0,0.2,0,0.3,0l-0.1,0.8c-0.1,0-0.2,0-0.3,0c-0.1,0-0.2,0-0.3,0
			c-0.3,0-0.5,0.1-0.8,0.2c-0.2,0.1-0.4,0.4-0.6,0.6c-0.1,0.3-0.2,0.6-0.2,0.9v2.9h-0.9v-5.4h0.7l0.1,1h0c0.2-0.3,0.4-0.5,0.7-0.8
			C1070.5,195.2,1070.8,195.1,1071.2,195.1z"/>
		<path class="st1" d="M1075.1,200c0.1,0,0.3,0,0.4,0c0.1,0,0.3,0,0.3-0.1v0.7c-0.1,0-0.2,0.1-0.4,0.1c-0.2,0-0.3,0-0.5,0
			c-0.3,0-0.5,0-0.8-0.1s-0.4-0.3-0.6-0.5s-0.2-0.6-0.2-1v-3.1h-0.8v-0.4l0.8-0.4l0.4-1.1h0.5v1.2h1.5v0.7h-1.5v3.1
			c0,0.3,0.1,0.6,0.2,0.7C1074.6,199.9,1074.8,200,1075.1,200z"/>
		<path class="st1" d="M1077.5,198.3c0-0.3,0-0.5,0.1-0.7c0.1-0.2,0.1-0.4,0.3-0.5c0.1-0.2,0.3-0.3,0.5-0.5c0.3-0.2,0.5-0.4,0.6-0.5
			c0.1-0.1,0.2-0.3,0.3-0.4c0.1-0.1,0.1-0.3,0.1-0.5c0-0.3-0.1-0.6-0.3-0.7c-0.2-0.2-0.5-0.3-0.9-0.3c-0.3,0-0.6,0-0.9,0.1
			c-0.3,0.1-0.5,0.2-0.7,0.3l-0.3-0.7c0.3-0.1,0.6-0.3,0.9-0.3c0.3-0.1,0.7-0.1,1.1-0.1c0.6,0,1.1,0.2,1.5,0.5
			c0.3,0.3,0.5,0.7,0.5,1.3c0,0.3,0,0.6-0.1,0.8s-0.2,0.4-0.4,0.6c-0.2,0.2-0.4,0.4-0.6,0.6c-0.2,0.2-0.4,0.3-0.5,0.5
			c-0.1,0.1-0.2,0.3-0.2,0.4s-0.1,0.3-0.1,0.5v0.2h-0.7V198.3z M1077.3,200.1c0-0.2,0.1-0.4,0.2-0.5c0.1-0.1,0.3-0.2,0.4-0.2
			c0.2,0,0.3,0,0.4,0.2c0.1,0.1,0.2,0.3,0.2,0.5c0,0.2-0.1,0.4-0.2,0.5c-0.1,0.1-0.3,0.2-0.4,0.2c-0.2,0-0.3-0.1-0.4-0.2
			C1077.3,200.5,1077.3,200.3,1077.3,200.1z"/>
	</g>
	<g class="st0">
		
			<rect x="567" y="190.5" transform="matrix(0.7071 -0.7071 0.7071 0.7071 11.3104 505.071)" class="st1" width="96.7" height="96.7"/>
	</g>
	<g>
		<path class="st1" d="M615.3,308.7l-69.8-69.8l69.8-69.8l69.8,69.8L615.3,308.7z M548.4,238.9l67,67l67-67l-67-67L548.4,238.9z"/>
	</g>
	<g>
		<path class="st1" d="M582.3,241l-0.9-2.2h-2.8l-0.8,2.2h-0.9l2.8-7.2h0.8l2.8,7.2H582.3z M580.4,235.8c0-0.1-0.1-0.2-0.1-0.3
			s-0.1-0.3-0.1-0.4c0-0.2-0.1-0.3-0.1-0.3c0,0.2-0.1,0.4-0.2,0.6c-0.1,0.2-0.1,0.4-0.1,0.5l-0.8,2.2h2.3L580.4,235.8z"/>
		<path class="st1" d="M586.1,241.1c-0.7,0-1.2-0.2-1.6-0.7c-0.4-0.5-0.6-1.2-0.6-2.1s0.2-1.6,0.6-2.1s0.9-0.7,1.6-0.7
			c0.4,0,0.8,0.1,1,0.2c0.3,0.2,0.5,0.3,0.6,0.6h0.1c0-0.1,0-0.2,0-0.4s0-0.3,0-0.4v-2.1h0.9v7.6h-0.7l-0.1-0.7h0
			c-0.2,0.2-0.4,0.4-0.6,0.6C586.8,241,586.5,241.1,586.1,241.1z M586.2,240.4c0.6,0,1-0.2,1.2-0.5c0.2-0.3,0.3-0.8,0.3-1.4v-0.2
			c0-0.7-0.1-1.2-0.3-1.5c-0.2-0.4-0.6-0.5-1.2-0.5c-0.5,0-0.8,0.2-1.1,0.6c-0.2,0.4-0.4,0.9-0.4,1.5c0,0.6,0.1,1.1,0.4,1.5
			C585.4,240.2,585.7,240.4,586.2,240.4z"/>
		<path class="st1" d="M592.3,241.1c-0.7,0-1.2-0.2-1.6-0.7c-0.4-0.5-0.6-1.2-0.6-2.1s0.2-1.6,0.6-2.1s0.9-0.7,1.6-0.7
			c0.4,0,0.8,0.1,1,0.2c0.3,0.2,0.5,0.3,0.6,0.6h0.1c0-0.1,0-0.2,0-0.4s0-0.3,0-0.4v-2.1h0.9v7.6h-0.7l-0.1-0.7h0
			c-0.2,0.2-0.4,0.4-0.6,0.6C593.1,241,592.7,241.1,592.3,241.1z M592.4,240.4c0.6,0,1-0.2,1.2-0.5c0.2-0.3,0.3-0.8,0.3-1.4v-0.2
			c0-0.7-0.1-1.2-0.3-1.5c-0.2-0.4-0.6-0.5-1.2-0.5c-0.5,0-0.8,0.2-1.1,0.6c-0.2,0.4-0.4,0.9-0.4,1.5c0,0.6,0.1,1.1,0.4,1.5
			C591.6,240.2,592,240.4,592.4,240.4z"/>
		<path class="st1" d="M605,235.5c0.6,0,1.1,0.2,1.4,0.5c0.3,0.3,0.5,0.8,0.5,1.5v3.5H606v-3.5c0-0.8-0.4-1.3-1.1-1.3
			c-0.5,0-0.9,0.1-1.1,0.5c-0.2,0.3-0.3,0.7-0.3,1.3v3h-0.9v-3.5c0-0.8-0.4-1.3-1.1-1.3c-0.5,0-0.9,0.2-1.1,0.5
			c-0.2,0.3-0.3,0.8-0.3,1.4v2.8h-0.9v-5.4h0.7l0.1,0.7h0c0.2-0.3,0.4-0.5,0.7-0.6s0.6-0.2,0.9-0.2c0.8,0,1.4,0.3,1.6,0.9h0
			c0.2-0.3,0.4-0.5,0.7-0.7C604.4,235.6,604.7,235.5,605,235.5z"/>
		<path class="st1" d="M613.2,238.3c0,0.9-0.2,1.6-0.7,2.1s-1.1,0.7-1.8,0.7c-0.5,0-0.9-0.1-1.3-0.3s-0.7-0.5-0.9-1
			c-0.2-0.4-0.3-0.9-0.3-1.5c0-0.9,0.2-1.6,0.7-2c0.4-0.5,1.1-0.7,1.8-0.7c0.5,0,0.9,0.1,1.3,0.3s0.7,0.5,0.9,0.9
			S613.2,237.7,613.2,238.3z M609.2,238.3c0,0.6,0.1,1.1,0.4,1.5c0.2,0.4,0.6,0.6,1.2,0.6c0.5,0,0.9-0.2,1.2-0.6
			c0.3-0.4,0.4-0.9,0.4-1.5c0-0.6-0.1-1.1-0.4-1.5c-0.3-0.4-0.7-0.5-1.2-0.5c-0.5,0-0.9,0.2-1.2,0.5
			C609.3,237.2,609.2,237.7,609.2,238.3z"/>
		<path class="st1" d="M617.1,235.5c0.1,0,0.2,0,0.3,0c0.1,0,0.2,0,0.3,0l-0.1,0.8c-0.1,0-0.2,0-0.3,0c-0.1,0-0.2,0-0.3,0
			c-0.3,0-0.5,0.1-0.8,0.2c-0.2,0.1-0.4,0.4-0.6,0.6c-0.1,0.3-0.2,0.6-0.2,0.9v2.9h-0.9v-5.4h0.7l0.1,1h0c0.2-0.3,0.4-0.5,0.7-0.8
			C616.4,235.6,616.8,235.5,617.1,235.5z"/>
		<path class="st1" d="M620.9,235.5c0.5,0,0.9,0.1,1.2,0.3c0.3,0.2,0.6,0.5,0.8,0.8c0.2,0.4,0.3,0.8,0.3,1.3v0.5h-3.7
			c0,0.6,0.2,1.1,0.5,1.4s0.7,0.5,1.2,0.5c0.3,0,0.6,0,0.9-0.1c0.3-0.1,0.5-0.2,0.8-0.3v0.8c-0.3,0.1-0.5,0.2-0.8,0.3
			s-0.6,0.1-1,0.1c-0.5,0-1-0.1-1.3-0.3c-0.4-0.2-0.7-0.5-0.9-0.9s-0.3-0.9-0.3-1.5c0-0.6,0.1-1.1,0.3-1.5c0.2-0.4,0.5-0.7,0.8-1
			S620.4,235.5,620.9,235.5z M620.9,236.3c-0.4,0-0.8,0.1-1,0.4c-0.2,0.3-0.4,0.6-0.4,1.1h2.7c0-0.5-0.1-0.8-0.3-1.1
			C621.6,236.4,621.3,236.3,620.9,236.3z"/>
		<path class="st1" d="M627.5,233.6c0.1,0,0.3,0,0.4,0.1c0.1,0.1,0.2,0.2,0.2,0.4c0,0.2-0.1,0.3-0.2,0.4c-0.1,0.1-0.2,0.1-0.4,0.1
			c-0.1,0-0.3,0-0.4-0.1c-0.1-0.1-0.1-0.2-0.1-0.4c0-0.2,0-0.3,0.1-0.4C627.2,233.7,627.3,233.6,627.5,233.6z M627.9,235.6v5.4H627
			v-5.4H627.9z"/>
		<path class="st1" d="M631.5,240.4c0.1,0,0.3,0,0.4,0c0.1,0,0.3,0,0.3-0.1v0.7c-0.1,0-0.2,0.1-0.4,0.1c-0.2,0-0.3,0-0.5,0
			c-0.3,0-0.5,0-0.8-0.1s-0.4-0.3-0.6-0.5s-0.2-0.6-0.2-1v-3.1h-0.8v-0.4l0.8-0.4l0.4-1.1h0.5v1.2h1.5v0.7h-1.5v3.1
			c0,0.3,0.1,0.6,0.2,0.7C631.1,240.3,631.3,240.4,631.5,240.4z"/>
		<path class="st1" d="M635.4,235.5c0.5,0,0.9,0.1,1.2,0.3c0.3,0.2,0.6,0.5,0.8,0.8c0.2,0.4,0.3,0.8,0.3,1.3v0.5H634
			c0,0.6,0.2,1.1,0.5,1.4s0.7,0.5,1.2,0.5c0.3,0,0.6,0,0.9-0.1c0.3-0.1,0.5-0.2,0.8-0.3v0.8c-0.3,0.1-0.5,0.2-0.8,0.3
			s-0.6,0.1-1,0.1c-0.5,0-1-0.1-1.3-0.3c-0.4-0.2-0.7-0.5-0.9-0.9s-0.3-0.9-0.3-1.5c0-0.6,0.1-1.1,0.3-1.5c0.2-0.4,0.5-0.7,0.8-1
			S635,235.5,635.4,235.5z M635.4,236.3c-0.4,0-0.8,0.1-1,0.4c-0.2,0.3-0.4,0.6-0.4,1.1h2.7c0-0.5-0.1-0.8-0.3-1.1
			C636.2,236.4,635.9,236.3,635.4,236.3z"/>
		<path class="st1" d="M645,235.5c0.6,0,1.1,0.2,1.4,0.5c0.3,0.3,0.5,0.8,0.5,1.5v3.5h-0.9v-3.5c0-0.8-0.4-1.3-1.1-1.3
			c-0.5,0-0.9,0.1-1.1,0.5c-0.2,0.3-0.3,0.7-0.3,1.3v3h-0.9v-3.5c0-0.8-0.4-1.3-1.1-1.3c-0.5,0-0.9,0.2-1.1,0.5
			c-0.2,0.3-0.3,0.8-0.3,1.4v2.8h-0.9v-5.4h0.7l0.1,0.7h0c0.2-0.3,0.4-0.5,0.7-0.6s0.6-0.2,0.9-0.2c0.8,0,1.4,0.3,1.6,0.9h0
			c0.2-0.3,0.4-0.5,0.7-0.7C644.3,235.6,644.6,235.5,645,235.5z"/>
		<path class="st1" d="M652,239.5c0,0.5-0.2,0.9-0.6,1.2s-0.9,0.4-1.6,0.4c-0.4,0-0.7,0-1-0.1c-0.3-0.1-0.5-0.1-0.7-0.2V240
			c0.2,0.1,0.5,0.2,0.8,0.3s0.6,0.1,0.9,0.1c0.4,0,0.8-0.1,1-0.2c0.2-0.1,0.3-0.3,0.3-0.6c0-0.1,0-0.3-0.1-0.4s-0.2-0.2-0.4-0.3
			c-0.2-0.1-0.5-0.2-0.8-0.4c-0.3-0.1-0.6-0.3-0.9-0.4c-0.2-0.1-0.4-0.3-0.6-0.5c-0.1-0.2-0.2-0.4-0.2-0.7c0-0.5,0.2-0.8,0.6-1
			c0.4-0.2,0.9-0.4,1.5-0.4c0.3,0,0.6,0,0.9,0.1c0.3,0.1,0.5,0.2,0.8,0.3l-0.3,0.7c-0.2-0.1-0.5-0.2-0.7-0.2
			c-0.2-0.1-0.5-0.1-0.8-0.1c-0.4,0-0.6,0.1-0.8,0.2c-0.2,0.1-0.3,0.3-0.3,0.5c0,0.1,0,0.3,0.1,0.4c0.1,0.1,0.2,0.2,0.4,0.3
			s0.5,0.2,0.8,0.3c0.3,0.1,0.6,0.3,0.9,0.4c0.2,0.1,0.4,0.3,0.6,0.5C651.9,239,652,239.2,652,239.5z"/>
		<path class="st1" d="M653.7,238.7c0-0.3,0-0.5,0.1-0.7c0.1-0.2,0.1-0.4,0.3-0.5c0.1-0.2,0.3-0.3,0.5-0.5c0.3-0.2,0.5-0.4,0.6-0.5
			c0.1-0.1,0.2-0.3,0.3-0.4c0.1-0.1,0.1-0.3,0.1-0.5c0-0.3-0.1-0.6-0.3-0.7c-0.2-0.2-0.5-0.3-0.9-0.3c-0.3,0-0.6,0-0.9,0.1
			c-0.3,0.1-0.5,0.2-0.7,0.3l-0.3-0.7c0.3-0.1,0.6-0.3,0.9-0.3c0.3-0.1,0.7-0.1,1.1-0.1c0.6,0,1.1,0.2,1.5,0.5
			c0.3,0.3,0.5,0.7,0.5,1.3c0,0.3,0,0.6-0.1,0.8s-0.2,0.4-0.4,0.6c-0.2,0.2-0.4,0.4-0.6,0.6c-0.2,0.2-0.4,0.3-0.5,0.5
			c-0.1,0.1-0.2,0.3-0.2,0.4s-0.1,0.3-0.1,0.5v0.2h-0.7V238.7z M653.4,240.5c0-0.2,0.1-0.4,0.2-0.5c0.1-0.1,0.3-0.2,0.4-0.2
			c0.2,0,0.3,0,0.4,0.2c0.1,0.1,0.2,0.3,0.2,0.5c0,0.2-0.1,0.4-0.2,0.5c-0.1,0.1-0.3,0.2-0.4,0.2c-0.2,0-0.3-0.1-0.4-0.2
			C653.5,240.9,653.4,240.7,653.4,240.5z"/>
	</g>
	<g class="st0">
		<rect x="186" y="34.2" class="st2" width="140" height="50"/>
	</g>
	<g>
		<path class="st2" d="M327,85.2H185v-52h142V85.2z M187,83.2h138v-48H187V83.2z"/>
	</g>
	<g>
		<path class="st2" d="M235.1,62.3h-0.9V59h-3.7v3.3h-0.9v-7.1h0.9v3h3.7v-3h0.9V62.3z"/>
		<path class="st2" d="M241.6,59.7c0,0.9-0.2,1.6-0.7,2.1s-1.1,0.7-1.8,0.7c-0.5,0-0.9-0.1-1.3-0.3s-0.7-0.5-0.9-1s-0.3-0.9-0.3-1.5
			c0-0.9,0.2-1.6,0.7-2c0.4-0.5,1.1-0.7,1.8-0.7c0.5,0,0.9,0.1,1.3,0.3c0.4,0.2,0.7,0.5,0.9,0.9S241.6,59.1,241.6,59.7z M237.6,59.7
			c0,0.6,0.1,1.1,0.4,1.5c0.2,0.4,0.6,0.6,1.2,0.6c0.5,0,0.9-0.2,1.2-0.6c0.3-0.4,0.4-0.9,0.4-1.5c0-0.6-0.1-1.1-0.4-1.5
			c-0.3-0.4-0.7-0.5-1.2-0.5c-0.5,0-0.9,0.2-1.2,0.5C237.7,58.5,237.6,59,237.6,59.7z"/>
		<path class="st2" d="M249,56.9c0.6,0,1.1,0.2,1.4,0.5c0.3,0.3,0.5,0.8,0.5,1.5v3.5h-0.9v-3.5c0-0.8-0.4-1.3-1.1-1.3
			c-0.5,0-0.9,0.1-1.1,0.5c-0.2,0.3-0.3,0.7-0.3,1.3v3h-0.9v-3.5c0-0.8-0.4-1.3-1.1-1.3c-0.5,0-0.9,0.2-1.1,0.5
			c-0.2,0.3-0.3,0.8-0.3,1.4v2.8h-0.9V57h0.7l0.1,0.7h0.1c0.2-0.3,0.4-0.5,0.7-0.6c0.3-0.1,0.6-0.2,0.9-0.2c0.8,0,1.4,0.3,1.6,0.9h0
			c0.2-0.3,0.4-0.5,0.7-0.7S248.6,56.9,249,56.9z"/>
		<path class="st2" d="M254.5,56.9c0.5,0,0.9,0.1,1.2,0.3s0.6,0.5,0.8,0.8c0.2,0.4,0.3,0.8,0.3,1.3v0.5h-3.7c0,0.6,0.2,1.1,0.5,1.4
			c0.3,0.3,0.7,0.5,1.2,0.5c0.3,0,0.6,0,0.9-0.1c0.3-0.1,0.5-0.2,0.8-0.3v0.8c-0.3,0.1-0.5,0.2-0.8,0.3s-0.6,0.1-1,0.1
			c-0.5,0-1-0.1-1.3-0.3c-0.4-0.2-0.7-0.5-0.9-0.9s-0.3-0.9-0.3-1.5c0-0.6,0.1-1.1,0.3-1.5c0.2-0.4,0.5-0.7,0.8-1
			C253.7,57,254.1,56.9,254.5,56.9z M254.5,57.6c-0.4,0-0.8,0.1-1,0.4c-0.2,0.3-0.4,0.6-0.4,1.1h2.7c0-0.5-0.1-0.8-0.3-1.1
			C255.3,57.7,255,57.6,254.5,57.6z"/>
		<path class="st2" d="M262.7,55.2c0.9,0,1.6,0.2,2,0.5c0.4,0.4,0.6,0.9,0.6,1.5c0,0.4-0.1,0.8-0.3,1.1c-0.2,0.3-0.5,0.6-0.9,0.8
			c-0.4,0.2-1,0.3-1.7,0.3h-0.8v2.8h-0.9v-7.1H262.7z M262.6,56h-0.9v2.8h0.7c0.7,0,1.2-0.1,1.5-0.3s0.5-0.6,0.5-1.1
			c0-0.5-0.1-0.8-0.4-1S263.3,56,262.6,56z"/>
		<path class="st2" d="M268.7,56.9c0.7,0,1.1,0.1,1.5,0.4c0.3,0.3,0.5,0.7,0.5,1.4v3.7H270l-0.2-0.8h0c-0.2,0.3-0.5,0.5-0.7,0.6
			c-0.3,0.1-0.6,0.2-1.1,0.2c-0.5,0-0.9-0.1-1.2-0.4s-0.5-0.7-0.5-1.2c0-0.5,0.2-0.9,0.6-1.2s1.1-0.4,1.9-0.5l0.9,0v-0.3
			c0-0.4-0.1-0.8-0.3-0.9c-0.2-0.2-0.5-0.3-0.8-0.3c-0.3,0-0.5,0-0.8,0.1c-0.3,0.1-0.5,0.2-0.7,0.3l-0.3-0.7
			c0.2-0.1,0.5-0.2,0.8-0.3C268,56.9,268.3,56.9,268.7,56.9z M269,59.8c-0.7,0-1.1,0.1-1.4,0.3c-0.3,0.2-0.4,0.4-0.4,0.8
			c0,0.3,0.1,0.5,0.3,0.7c0.2,0.1,0.4,0.2,0.7,0.2c0.5,0,0.8-0.1,1.1-0.4s0.5-0.6,0.5-1.2v-0.5L269,59.8z"/>
		<path class="st2" d="M274.2,56.9c0.4,0,0.7,0.1,1,0.2c0.3,0.1,0.5,0.3,0.7,0.6h0l0.1-0.7h0.7v5.5c0,0.8-0.2,1.3-0.6,1.7
			c-0.4,0.4-1,0.6-1.8,0.6c-0.8,0-1.4-0.1-1.9-0.3v-0.8c0.5,0.3,1.2,0.4,2,0.4c0.5,0,0.8-0.1,1.1-0.4c0.3-0.3,0.4-0.6,0.4-1.1v-0.2
			c0-0.1,0-0.2,0-0.3c0-0.2,0-0.3,0-0.3h0c-0.4,0.5-0.9,0.8-1.7,0.8c-0.7,0-1.2-0.2-1.6-0.7c-0.4-0.5-0.6-1.2-0.6-2
			c0-0.9,0.2-1.5,0.6-2C273,57.1,273.6,56.9,274.2,56.9z M274.4,57.6c-0.4,0-0.8,0.2-1,0.5c-0.2,0.4-0.4,0.9-0.4,1.5
			s0.1,1.2,0.4,1.5c0.2,0.3,0.6,0.5,1.1,0.5c0.5,0,0.9-0.1,1.2-0.4s0.4-0.8,0.4-1.4v-0.2c0-0.7-0.1-1.3-0.4-1.6
			S274.9,57.6,274.4,57.6z"/>
		<path class="st2" d="M280.6,56.9c0.5,0,0.9,0.1,1.2,0.3s0.6,0.5,0.8,0.8c0.2,0.4,0.3,0.8,0.3,1.3v0.5h-3.7c0,0.6,0.2,1.1,0.5,1.4
			c0.3,0.3,0.7,0.5,1.2,0.5c0.3,0,0.6,0,0.9-0.1c0.3-0.1,0.5-0.2,0.8-0.3v0.8c-0.3,0.1-0.5,0.2-0.8,0.3s-0.6,0.1-1,0.1
			c-0.5,0-1-0.1-1.3-0.3c-0.4-0.2-0.7-0.5-0.9-0.9s-0.3-0.9-0.3-1.5c0-0.6,0.1-1.1,0.3-1.5c0.2-0.4,0.5-0.7,0.8-1
			C279.7,57,280.1,56.9,280.6,56.9z M280.6,57.6c-0.4,0-0.8,0.1-1,0.4c-0.2,0.3-0.4,0.6-0.4,1.1h2.7c0-0.5-0.1-0.8-0.3-1.1
			C281.4,57.7,281.1,57.6,280.6,57.6z"/>
	</g>
	<g class="st0">
		<rect x="584" y="34.2" class="st2" width="140" height="50"/>
	</g>
	<g>
		<path class="st2" d="M725,85.2H583v-52h142V85.2z M585,83.2h138v-48H585V83.2z"/>
	</g>
	<g>
		<path class="st2" d="M644.5,62.3l-2.4-6.3h0c0,0.2,0,0.5,0,0.8c0,0.3,0,0.7,0,1.1v4.3h-0.8v-7.1h1.3l2.2,5.8h0l2.2-5.8h1.3v7.1
			h-0.9V58c0-0.3,0-0.7,0-1s0-0.6,0-0.8h0l-2.4,6.2H644.5z"/>
		<path class="st2" d="M652.4,56.9c0.5,0,0.9,0.1,1.2,0.3c0.3,0.2,0.6,0.5,0.8,0.8c0.2,0.4,0.3,0.8,0.3,1.3v0.5H651
			c0,0.6,0.2,1.1,0.5,1.4s0.7,0.5,1.2,0.5c0.3,0,0.6,0,0.9-0.1c0.3-0.1,0.5-0.2,0.8-0.3v0.8c-0.3,0.1-0.5,0.2-0.8,0.3
			s-0.6,0.1-1,0.1c-0.5,0-1-0.1-1.3-0.3c-0.4-0.2-0.7-0.5-0.9-0.9s-0.3-0.9-0.3-1.5c0-0.6,0.1-1.1,0.3-1.5c0.2-0.4,0.5-0.7,0.8-1
			S652,56.9,652.4,56.9z M652.4,57.6c-0.4,0-0.8,0.1-1,0.4c-0.2,0.3-0.4,0.6-0.4,1.1h2.7c0-0.5-0.1-0.8-0.3-1.1
			C653.2,57.7,652.9,57.6,652.4,57.6z"/>
		<path class="st2" d="M658.7,56.9c0.6,0,1.1,0.2,1.5,0.5c0.3,0.3,0.5,0.8,0.5,1.5v3.5h-0.9v-3.4c0-0.9-0.4-1.3-1.2-1.3
			c-0.6,0-1,0.2-1.2,0.5c-0.2,0.3-0.3,0.8-0.3,1.4v2.8h-0.9V57h0.7l0.1,0.7h0c0.2-0.3,0.4-0.5,0.7-0.6S658.3,56.9,658.7,56.9z"/>
		<path class="st2" d="M666.8,57v5.4H666l-0.1-0.7h0c-0.2,0.3-0.4,0.5-0.7,0.6s-0.6,0.2-1,0.2c-0.6,0-1.1-0.2-1.5-0.5
			c-0.3-0.3-0.5-0.8-0.5-1.5V57h0.9v3.5c0,0.9,0.4,1.3,1.2,1.3c0.6,0,1-0.2,1.2-0.5c0.2-0.3,0.3-0.8,0.3-1.4V57H666.8z"/>
	</g>
	<g class="st0">
		<rect x="759.8" y="215.8" class="st2" width="140" height="50"/>
	</g>
	<g>
		<path class="st2" d="M900.8,266.8h-142v-52h142V266.8z M760.8,264.8h138v-48h-138V264.8z"/>
	</g>
	<g>
		<path class="st2" d="M823.6,237.4c-0.8,0-1.4,0.3-1.8,0.8c-0.4,0.5-0.7,1.2-0.7,2.1c0,0.9,0.2,1.6,0.6,2.1s1,0.8,1.8,0.8
			c0.3,0,0.6,0,0.9-0.1c0.3-0.1,0.6-0.1,0.8-0.2v0.8c-0.3,0.1-0.5,0.2-0.8,0.2c-0.3,0-0.6,0.1-1,0.1c-0.7,0-1.3-0.1-1.8-0.4
			c-0.5-0.3-0.9-0.7-1.1-1.3c-0.2-0.6-0.4-1.2-0.4-2c0-0.7,0.1-1.4,0.4-1.9c0.3-0.5,0.7-1,1.2-1.3c0.5-0.3,1.1-0.5,1.9-0.5
			c0.8,0,1.4,0.1,2,0.4l-0.4,0.8c-0.2-0.1-0.5-0.2-0.7-0.3C824.3,237.5,824,237.4,823.6,237.4z"/>
		<path class="st2" d="M828.9,238.4c0.7,0,1.1,0.1,1.5,0.4c0.3,0.3,0.5,0.7,0.5,1.4v3.7h-0.6l-0.2-0.8h0c-0.2,0.3-0.5,0.5-0.7,0.6
			c-0.3,0.1-0.6,0.2-1.1,0.2c-0.5,0-0.9-0.1-1.2-0.4c-0.3-0.3-0.5-0.7-0.5-1.2c0-0.5,0.2-0.9,0.6-1.2s1.1-0.4,1.9-0.5l0.9,0v-0.3
			c0-0.4-0.1-0.8-0.3-0.9c-0.2-0.2-0.5-0.3-0.8-0.3c-0.3,0-0.5,0-0.8,0.1c-0.3,0.1-0.5,0.2-0.7,0.3l-0.3-0.7
			c0.2-0.1,0.5-0.2,0.8-0.3C828.3,238.5,828.6,238.4,828.9,238.4z M829.2,241.3c-0.7,0-1.1,0.1-1.4,0.3c-0.3,0.2-0.4,0.4-0.4,0.8
			c0,0.3,0.1,0.5,0.3,0.7c0.2,0.1,0.4,0.2,0.7,0.2c0.5,0,0.8-0.1,1.1-0.4c0.3-0.2,0.4-0.6,0.4-1.2v-0.5L829.2,241.3z"/>
		<path class="st2" d="M835,238.4c0.1,0,0.2,0,0.3,0c0.1,0,0.2,0,0.3,0l-0.1,0.8c-0.1,0-0.2,0-0.3,0c-0.1,0-0.2,0-0.3,0
			c-0.3,0-0.5,0.1-0.8,0.2c-0.2,0.1-0.4,0.4-0.6,0.6c-0.1,0.3-0.2,0.6-0.2,0.9v2.9h-0.9v-5.4h0.7l0.1,1h0c0.2-0.3,0.4-0.5,0.7-0.8
			C834.4,238.5,834.7,238.4,835,238.4z"/>
		<path class="st2" d="M838.9,243.3c0.1,0,0.3,0,0.4,0c0.1,0,0.3,0,0.3-0.1v0.7c-0.1,0-0.2,0.1-0.4,0.1c-0.2,0-0.3,0-0.5,0
			c-0.3,0-0.5,0-0.8-0.1s-0.4-0.3-0.6-0.5s-0.2-0.6-0.2-1v-3.1h-0.8v-0.4l0.8-0.4l0.4-1.1h0.5v1.2h1.5v0.7h-1.5v3.1
			c0,0.3,0.1,0.6,0.2,0.7C838.5,243.2,838.7,243.3,838.9,243.3z"/>
	</g>
	<g class="st0">
		<rect x="128" y="215.8" class="st2" width="140" height="50"/>
	</g>
	<g>
		<path class="st2" d="M269,266.8H127v-52h142V266.8z M129,264.8h138v-48H129V264.8z"/>
	</g>
	<g>
		<path class="st2" d="M158.5,240.3c0,0.7-0.1,1.4-0.4,1.9c-0.2,0.6-0.6,1-1.1,1.3c-0.5,0.3-1.1,0.5-1.8,0.5c-0.7,0-1.4-0.2-1.8-0.5
			c-0.5-0.3-0.9-0.7-1.1-1.3c-0.2-0.6-0.4-1.2-0.4-1.9c0-0.7,0.1-1.4,0.4-1.9c0.2-0.5,0.6-1,1.1-1.3c0.5-0.3,1.1-0.5,1.9-0.5
			c0.7,0,1.3,0.2,1.8,0.5c0.5,0.3,0.9,0.7,1.1,1.3S158.5,239.6,158.5,240.3z M152.9,240.3c0,0.9,0.2,1.6,0.6,2.1
			c0.4,0.5,1,0.8,1.8,0.8c0.8,0,1.4-0.3,1.8-0.8c0.4-0.5,0.6-1.2,0.6-2.1s-0.2-1.6-0.6-2.1c-0.4-0.5-1-0.8-1.8-0.8
			c-0.8,0-1.4,0.3-1.8,0.8C153,238.7,152.9,239.4,152.9,240.3z M162.6,238.4c0.1,0,0.2,0,0.3,0c0.1,0,0.2,0,0.3,0l-0.1,0.8
			c-0.1,0-0.2,0-0.3-0.1c-0.1,0-0.2,0-0.3,0c-0.3,0-0.5,0.1-0.8,0.2c-0.2,0.1-0.4,0.4-0.6,0.6c-0.1,0.3-0.2,0.6-0.2,0.9v2.9h-0.9
			v-5.4h0.7l0.1,1h0c0.2-0.3,0.4-0.5,0.7-0.8C161.9,238.5,162.2,238.4,162.6,238.4z M166.2,244c-0.7,0-1.2-0.2-1.6-0.7
			c-0.4-0.5-0.6-1.2-0.6-2.1s0.2-1.6,0.6-2.1c0.4-0.5,0.9-0.7,1.6-0.7c0.4,0,0.8,0.1,1,0.2c0.3,0.2,0.5,0.3,0.6,0.6h0.1
			c0-0.1,0-0.2,0-0.4c0-0.2,0-0.3,0-0.4v-2.1h0.9v7.6H168l-0.1-0.7h0c-0.2,0.2-0.4,0.4-0.6,0.6C166.9,243.9,166.6,244,166.2,244z
			 M166.3,243.3c0.6,0,1-0.2,1.2-0.5c0.2-0.3,0.3-0.8,0.3-1.4v-0.2c0-0.7-0.1-1.2-0.3-1.5c-0.2-0.4-0.6-0.5-1.2-0.5
			c-0.5,0-0.8,0.2-1.1,0.6c-0.2,0.4-0.4,0.9-0.4,1.5c0,0.6,0.1,1.1,0.4,1.5C165.5,243.1,165.8,243.3,166.3,243.3z M172.5,238.4
			c0.5,0,0.9,0.1,1.2,0.3s0.6,0.5,0.8,0.8c0.2,0.4,0.3,0.8,0.3,1.3v0.5h-3.7c0,0.6,0.2,1.1,0.5,1.4c0.3,0.3,0.7,0.5,1.2,0.5
			c0.3,0,0.6,0,0.9-0.1c0.3-0.1,0.5-0.2,0.8-0.3v0.8c-0.3,0.1-0.5,0.2-0.8,0.3c-0.3,0.1-0.6,0.1-0.9,0.1c-0.5,0-1-0.1-1.3-0.3
			c-0.4-0.2-0.7-0.5-0.9-0.9c-0.2-0.4-0.3-0.9-0.3-1.5c0-0.6,0.1-1.1,0.3-1.5c0.2-0.4,0.5-0.7,0.8-1
			C171.6,238.6,172.1,238.4,172.5,238.4z M172.5,239.2c-0.4,0-0.8,0.1-1,0.4c-0.2,0.3-0.4,0.6-0.4,1.1h2.7c0-0.5-0.1-0.8-0.3-1.1
			C173.3,239.3,173,239.2,172.5,239.2z M178.7,238.4c0.1,0,0.2,0,0.3,0c0.1,0,0.2,0,0.3,0l-0.1,0.8c-0.1,0-0.2,0-0.3-0.1
			c-0.1,0-0.2,0-0.3,0c-0.3,0-0.5,0.1-0.8,0.2c-0.2,0.1-0.4,0.4-0.6,0.6c-0.1,0.3-0.2,0.6-0.2,0.9v2.9h-0.9v-5.4h0.7l0.1,1h0
			c0.2-0.3,0.4-0.5,0.7-0.8C178,238.5,178.3,238.4,178.7,238.4z M186.1,237.4c-0.8,0-1.4,0.3-1.8,0.8c-0.4,0.5-0.7,1.2-0.7,2.1
			c0,0.9,0.2,1.6,0.6,2.1c0.4,0.5,1,0.8,1.8,0.8c0.3,0,0.6,0,0.9-0.1c0.3-0.1,0.6-0.1,0.8-0.2v0.8c-0.3,0.1-0.5,0.2-0.8,0.2
			c-0.3,0-0.6,0.1-1,0.1c-0.7,0-1.3-0.1-1.8-0.4c-0.5-0.3-0.9-0.7-1.1-1.3c-0.2-0.6-0.4-1.2-0.4-2c0-0.7,0.1-1.4,0.4-1.9
			c0.3-0.6,0.7-1,1.2-1.3c0.5-0.3,1.1-0.5,1.9-0.5c0.8,0,1.4,0.1,2,0.4l-0.4,0.8c-0.2-0.1-0.5-0.2-0.7-0.3
			C186.7,237.5,186.4,237.4,186.1,237.4z M193.8,241.2c0,0.9-0.2,1.6-0.7,2.1c-0.5,0.5-1.1,0.7-1.8,0.7c-0.5,0-0.9-0.1-1.3-0.3
			c-0.4-0.2-0.7-0.5-0.9-1c-0.2-0.4-0.3-0.9-0.3-1.5c0-0.9,0.2-1.6,0.7-2.1c0.4-0.5,1.1-0.7,1.8-0.7c0.5,0,0.9,0.1,1.3,0.3
			c0.4,0.2,0.7,0.5,0.9,0.9C193.7,240.1,193.8,240.6,193.8,241.2z M189.8,241.2c0,0.6,0.1,1.1,0.4,1.5c0.2,0.4,0.6,0.6,1.2,0.6
			c0.5,0,0.9-0.2,1.2-0.6c0.3-0.4,0.4-0.9,0.4-1.5c0-0.6-0.1-1.1-0.4-1.5c-0.3-0.4-0.7-0.5-1.2-0.5c-0.5,0-0.9,0.2-1.2,0.5
			C189.9,240.1,189.8,240.6,189.8,241.2z M197.8,238.4c0.6,0,1.1,0.2,1.5,0.5c0.3,0.3,0.5,0.8,0.5,1.5v3.5h-0.9v-3.4
			c0-0.9-0.4-1.3-1.2-1.3c-0.6,0-1,0.2-1.2,0.5c-0.2,0.3-0.3,0.8-0.3,1.4v2.8h-0.9v-5.4h0.7l0.1,0.7h0.1c0.2-0.3,0.4-0.5,0.7-0.6
			C197.2,238.5,197.5,238.4,197.8,238.4z M204,239.2h-1.4v4.7h-0.9v-4.7h-0.9v-0.4l0.9-0.3v-0.3c0-0.7,0.2-1.2,0.5-1.5
			c0.3-0.3,0.7-0.5,1.3-0.5c0.2,0,0.4,0,0.6,0.1c0.2,0,0.3,0.1,0.5,0.1l-0.2,0.7c-0.1,0-0.2-0.1-0.4-0.1c-0.1,0-0.3-0.1-0.4-0.1
			c-0.3,0-0.5,0.1-0.7,0.3c-0.1,0.2-0.2,0.5-0.2,0.9v0.4h1.4V239.2z M205.4,236.5c0.1,0,0.3,0,0.4,0.1c0.1,0.1,0.2,0.2,0.2,0.4
			c0,0.2-0.1,0.3-0.2,0.4c-0.1,0.1-0.2,0.1-0.4,0.1c-0.1,0-0.3,0-0.4-0.1c-0.1-0.1-0.1-0.2-0.1-0.4c0-0.2,0.1-0.3,0.1-0.4
			C205.2,236.6,205.3,236.5,205.4,236.5z M205.9,238.5v5.4H205v-5.4H205.9z M210.1,238.4c0.1,0,0.2,0,0.3,0c0.1,0,0.2,0,0.3,0
			l-0.1,0.8c-0.1,0-0.2,0-0.3-0.1c-0.1,0-0.2,0-0.3,0c-0.3,0-0.5,0.1-0.8,0.2c-0.2,0.1-0.4,0.4-0.6,0.6c-0.1,0.3-0.2,0.6-0.2,0.9
			v2.9h-0.9v-5.4h0.7l0.1,1h0c0.2-0.3,0.4-0.5,0.7-0.8C209.4,238.5,209.7,238.4,210.1,238.4z M217.8,238.4c0.6,0,1.1,0.2,1.4,0.5
			c0.3,0.3,0.4,0.8,0.4,1.5v3.5h-0.9v-3.4c0-0.8-0.4-1.3-1.1-1.3c-0.5,0-0.9,0.2-1.1,0.4c-0.2,0.3-0.3,0.7-0.3,1.3v3h-0.9v-3.4
			c0-0.8-0.4-1.3-1.1-1.3c-0.5,0-0.9,0.2-1.1,0.5c-0.2,0.3-0.3,0.8-0.3,1.4v2.8h-0.9v-5.4h0.7l0.1,0.7h0.1c0.2-0.3,0.4-0.5,0.7-0.6
			c0.3-0.1,0.6-0.2,0.9-0.2c0.8,0,1.4,0.3,1.6,0.9h0c0.2-0.3,0.4-0.5,0.7-0.7C217.1,238.5,217.4,238.4,217.8,238.4z M223.3,238.4
			c0.7,0,1.1,0.1,1.4,0.4c0.3,0.3,0.5,0.7,0.5,1.4v3.7h-0.6l-0.2-0.8h0c-0.2,0.3-0.5,0.5-0.7,0.6c-0.3,0.1-0.6,0.2-1.1,0.2
			c-0.5,0-0.9-0.1-1.2-0.4c-0.3-0.3-0.5-0.7-0.5-1.2c0-0.5,0.2-0.9,0.6-1.2c0.4-0.3,1.1-0.4,1.9-0.5l0.9,0v-0.3
			c0-0.4-0.1-0.8-0.3-0.9c-0.2-0.2-0.5-0.3-0.8-0.3c-0.3,0-0.5,0-0.8,0.1c-0.3,0.1-0.5,0.2-0.7,0.3l-0.3-0.7
			c0.2-0.1,0.5-0.2,0.8-0.3C222.6,238.5,222.9,238.4,223.3,238.4z M223.5,241.3c-0.7,0-1.1,0.1-1.4,0.3c-0.3,0.2-0.4,0.5-0.4,0.8
			c0,0.3,0.1,0.5,0.3,0.7c0.2,0.1,0.4,0.2,0.7,0.2c0.5,0,0.8-0.1,1.1-0.4s0.4-0.6,0.4-1.2v-0.5L223.5,241.3z M228.7,243.3
			c0.1,0,0.3,0,0.4,0c0.1,0,0.3,0,0.3-0.1v0.7c-0.1,0-0.2,0.1-0.4,0.1c-0.2,0-0.3,0-0.5,0c-0.3,0-0.5,0-0.8-0.1
			c-0.2-0.1-0.4-0.3-0.6-0.5c-0.1-0.2-0.2-0.6-0.2-1v-3.1h-0.8v-0.4l0.8-0.4l0.4-1.1h0.5v1.2h1.6v0.7h-1.6v3.1
			c0,0.3,0.1,0.6,0.2,0.7C228.3,243.2,228.5,243.3,228.7,243.3z M231.1,236.5c0.1,0,0.3,0,0.4,0.1c0.1,0.1,0.2,0.2,0.2,0.4
			c0,0.2-0.1,0.3-0.2,0.4c-0.1,0.1-0.2,0.1-0.4,0.1c-0.1,0-0.3,0-0.4-0.1c-0.1-0.1-0.1-0.2-0.1-0.4c0-0.2,0.1-0.3,0.1-0.4
			C230.8,236.6,231,236.5,231.1,236.5z M231.5,238.5v5.4h-0.9v-5.4H231.5z M237.9,241.2c0,0.9-0.2,1.6-0.7,2.1
			c-0.5,0.5-1.1,0.7-1.8,0.7c-0.5,0-0.9-0.1-1.3-0.3c-0.4-0.2-0.7-0.5-0.9-1c-0.2-0.4-0.3-0.9-0.3-1.5c0-0.9,0.2-1.6,0.7-2.1
			c0.4-0.5,1.1-0.7,1.8-0.7c0.5,0,0.9,0.1,1.3,0.3c0.4,0.2,0.7,0.5,0.9,0.9C237.8,240.1,237.9,240.6,237.9,241.2z M233.9,241.2
			c0,0.6,0.1,1.1,0.4,1.5c0.2,0.4,0.6,0.6,1.2,0.6c0.5,0,0.9-0.2,1.2-0.6c0.3-0.4,0.4-0.9,0.4-1.5c0-0.6-0.1-1.1-0.4-1.5
			c-0.3-0.4-0.7-0.5-1.2-0.5c-0.5,0-0.9,0.2-1.2,0.5C234,240.1,233.9,240.6,233.9,241.2z M242,238.4c0.6,0,1.1,0.2,1.5,0.5
			c0.3,0.3,0.5,0.8,0.5,1.5v3.5H243v-3.4c0-0.9-0.4-1.3-1.2-1.3c-0.6,0-1,0.2-1.2,0.5c-0.2,0.3-0.3,0.8-0.3,1.4v2.8h-0.9v-5.4h0.7
			l0.1,0.7h0.1c0.2-0.3,0.4-0.5,0.7-0.6C241.3,238.5,241.6,238.4,242,238.4z"/>
	</g>
	<g class="st0">
		<rect x="982" y="34.2" class="st2" width="140" height="50"/>
	</g>
	<g>
		<path class="st2" d="M1123,85.2H981v-52h142V85.2z M983,83.2h138v-48H983V83.2z"/>
	</g>
	<g>
		<path class="st2" d="M1017.1,62.3l-2.4-6.3h0c0,0.2,0,0.5,0,0.8c0,0.3,0,0.7,0,1.1v4.3h-0.8v-7.1h1.3l2.2,5.8h0l2.2-5.8h1.3v7.1
			h-0.9V58c0-0.3,0-0.7,0-1s0-0.6,0-0.8h0l-2.4,6.2H1017.1z"/>
		<path class="st2" d="M1025.1,56.9c0.5,0,0.9,0.1,1.2,0.3c0.3,0.2,0.6,0.5,0.8,0.8c0.2,0.4,0.3,0.8,0.3,1.3v0.5h-3.7
			c0,0.6,0.2,1.1,0.5,1.4s0.7,0.5,1.2,0.5c0.3,0,0.6,0,0.9-0.1c0.3-0.1,0.5-0.2,0.8-0.3v0.8c-0.3,0.1-0.5,0.2-0.8,0.3
			s-0.6,0.1-1,0.1c-0.5,0-1-0.1-1.3-0.3c-0.4-0.2-0.7-0.5-0.9-0.9s-0.3-0.9-0.3-1.5c0-0.6,0.1-1.1,0.3-1.5c0.2-0.4,0.5-0.7,0.8-1
			S1024.6,56.9,1025.1,56.9z M1025.1,57.6c-0.4,0-0.8,0.1-1,0.4c-0.2,0.3-0.4,0.6-0.4,1.1h2.7c0-0.5-0.1-0.8-0.3-1.1
			C1025.8,57.7,1025.5,57.6,1025.1,57.6z"/>
		<path class="st2" d="M1031.3,56.9c0.6,0,1.1,0.2,1.5,0.5c0.3,0.3,0.5,0.8,0.5,1.5v3.5h-0.9v-3.4c0-0.9-0.4-1.3-1.2-1.3
			c-0.6,0-1,0.2-1.2,0.5c-0.2,0.3-0.3,0.8-0.3,1.4v2.8h-0.9V57h0.7l0.1,0.7h0c0.2-0.3,0.4-0.5,0.7-0.6S1030.9,56.9,1031.3,56.9z"/>
		<path class="st2" d="M1039.4,57v5.4h-0.7l-0.1-0.7h0c-0.2,0.3-0.4,0.5-0.7,0.6s-0.6,0.2-1,0.2c-0.6,0-1.1-0.2-1.5-0.5
			c-0.3-0.3-0.5-0.8-0.5-1.5V57h0.9v3.5c0,0.9,0.4,1.3,1.2,1.3c0.6,0,1-0.2,1.2-0.5c0.2-0.3,0.3-0.8,0.3-1.4V57H1039.4z"/>
		<path class="st2" d="M1045.8,62.3h-2.6v-0.5l0.8-0.2v-5.7l-0.8-0.2v-0.5h2.6v0.5l-0.8,0.2v5.7l0.8,0.2V62.3z"/>
		<path class="st2" d="M1048.8,61.7c0.1,0,0.3,0,0.4,0c0.1,0,0.3,0,0.3-0.1v0.7c-0.1,0-0.2,0.1-0.4,0.1c-0.2,0-0.3,0-0.5,0
			c-0.3,0-0.5,0-0.8-0.1s-0.4-0.3-0.6-0.5s-0.2-0.6-0.2-1v-3.1h-0.8v-0.4l0.8-0.4l0.4-1.1h0.5V57h1.5v0.7h-1.5v3.1
			c0,0.3,0.1,0.6,0.2,0.7C1048.4,61.6,1048.6,61.7,1048.8,61.7z"/>
		<path class="st2" d="M1052.8,56.9c0.5,0,0.9,0.1,1.2,0.3c0.3,0.2,0.6,0.5,0.8,0.8c0.2,0.4,0.3,0.8,0.3,1.3v0.5h-3.7
			c0,0.6,0.2,1.1,0.5,1.4s0.7,0.5,1.2,0.5c0.3,0,0.6,0,0.9-0.1c0.3-0.1,0.5-0.2,0.8-0.3v0.8c-0.3,0.1-0.5,0.2-0.8,0.3
			s-0.6,0.1-1,0.1c-0.5,0-1-0.1-1.3-0.3c-0.4-0.2-0.7-0.5-0.9-0.9s-0.3-0.9-0.3-1.5c0-0.6,0.1-1.1,0.3-1.5c0.2-0.4,0.5-0.7,0.8-1
			S1052.3,56.9,1052.8,56.9z M1052.7,57.6c-0.4,0-0.8,0.1-1,0.4c-0.2,0.3-0.4,0.6-0.4,1.1h2.7c0-0.5-0.1-0.8-0.3-1.1
			C1053.5,57.7,1053.2,57.6,1052.7,57.6z"/>
		<path class="st2" d="M1062.3,56.9c0.6,0,1.1,0.2,1.4,0.5c0.3,0.3,0.5,0.8,0.5,1.5v3.5h-0.9v-3.5c0-0.8-0.4-1.3-1.1-1.3
			c-0.5,0-0.9,0.1-1.1,0.5c-0.2,0.3-0.3,0.7-0.3,1.3v3h-0.9v-3.5c0-0.8-0.4-1.3-1.1-1.3c-0.5,0-0.9,0.2-1.1,0.5
			c-0.2,0.3-0.3,0.8-0.3,1.4v2.8h-0.9V57h0.7l0.1,0.7h0c0.2-0.3,0.4-0.5,0.7-0.6s0.6-0.2,0.9-0.2c0.8,0,1.4,0.3,1.6,0.9h0
			c0.2-0.3,0.4-0.5,0.7-0.7C1061.6,57,1061.9,56.9,1062.3,56.9z"/>
		<path class="st2" d="M1070.4,55.2c0.9,0,1.6,0.2,2,0.5c0.4,0.4,0.6,0.9,0.6,1.5c0,0.4-0.1,0.8-0.3,1.1c-0.2,0.3-0.5,0.6-0.9,0.8
			c-0.4,0.2-1,0.3-1.7,0.3h-0.8v2.8h-0.9v-7.1H1070.4z M1070.3,56h-0.9v2.8h0.7c0.7,0,1.2-0.1,1.5-0.3c0.3-0.2,0.5-0.6,0.5-1.1
			c0-0.5-0.1-0.8-0.4-1S1070.9,56,1070.3,56z"/>
		<path class="st2" d="M1076.3,56.9c0.7,0,1.1,0.1,1.5,0.4c0.3,0.3,0.5,0.7,0.5,1.4v3.7h-0.6l-0.2-0.8h0c-0.2,0.3-0.5,0.5-0.7,0.6
			c-0.3,0.1-0.6,0.2-1.1,0.2c-0.5,0-0.9-0.1-1.2-0.4c-0.3-0.3-0.5-0.7-0.5-1.2c0-0.5,0.2-0.9,0.6-1.2s1.1-0.4,1.9-0.5l0.9,0v-0.3
			c0-0.4-0.1-0.8-0.3-0.9c-0.2-0.2-0.5-0.3-0.8-0.3c-0.3,0-0.5,0-0.8,0.1c-0.3,0.1-0.5,0.2-0.7,0.3l-0.3-0.7
			c0.2-0.1,0.5-0.2,0.8-0.3C1075.6,56.9,1076,56.9,1076.3,56.9z M1076.6,59.8c-0.7,0-1.1,0.1-1.4,0.3c-0.3,0.2-0.4,0.4-0.4,0.8
			c0,0.3,0.1,0.5,0.3,0.7c0.2,0.1,0.4,0.2,0.7,0.2c0.5,0,0.8-0.1,1.1-0.4c0.3-0.2,0.4-0.6,0.4-1.2v-0.5L1076.6,59.8z"/>
		<path class="st2" d="M1081.9,56.9c0.4,0,0.7,0.1,1,0.2c0.3,0.1,0.5,0.3,0.7,0.6h0.1l0.1-0.7h0.7v5.5c0,0.8-0.2,1.3-0.6,1.7
			c-0.4,0.4-1,0.6-1.8,0.6c-0.8,0-1.4-0.1-1.9-0.3v-0.8c0.5,0.3,1.2,0.4,2,0.4c0.5,0,0.8-0.1,1.1-0.4c0.3-0.3,0.4-0.6,0.4-1.1v-0.2
			c0-0.1,0-0.2,0-0.3c0-0.2,0-0.3,0-0.3h0c-0.4,0.5-0.9,0.8-1.7,0.8c-0.7,0-1.2-0.2-1.6-0.7c-0.4-0.5-0.6-1.2-0.6-2
			c0-0.9,0.2-1.5,0.6-2C1080.7,57.1,1081.2,56.9,1081.9,56.9z M1082,57.6c-0.4,0-0.8,0.2-1,0.5c-0.2,0.4-0.4,0.9-0.4,1.5
			s0.1,1.2,0.4,1.5c0.2,0.3,0.6,0.5,1.1,0.5c0.5,0,0.9-0.1,1.2-0.4c0.2-0.3,0.4-0.8,0.4-1.4v-0.2c0-0.7-0.1-1.3-0.4-1.6
			C1082.9,57.8,1082.5,57.6,1082,57.6z"/>
		<path class="st2" d="M1088.2,56.9c0.5,0,0.9,0.1,1.2,0.3c0.3,0.2,0.6,0.5,0.8,0.8c0.2,0.4,0.3,0.8,0.3,1.3v0.5h-3.7
			c0,0.6,0.2,1.1,0.5,1.4s0.7,0.5,1.2,0.5c0.3,0,0.6,0,0.9-0.1c0.3-0.1,0.5-0.2,0.8-0.3v0.8c-0.3,0.1-0.5,0.2-0.8,0.3
			s-0.6,0.1-1,0.1c-0.5,0-1-0.1-1.3-0.3c-0.4-0.2-0.7-0.5-0.9-0.9s-0.3-0.9-0.3-1.5c0-0.6,0.1-1.1,0.3-1.5c0.2-0.4,0.5-0.7,0.8-1
			S1087.8,56.9,1088.2,56.9z M1088.2,57.6c-0.4,0-0.8,0.1-1,0.4c-0.2,0.3-0.4,0.6-0.4,1.1h2.7c0-0.5-0.1-0.8-0.3-1.1
			C1089,57.7,1088.7,57.6,1088.2,57.6z"/>
	</g>
	<g>
		<rect x="113.5" y="56" class="st3" width="55.6" height="2"/>
	</g>
	<g>
		<path class="st3" d="M177.5,57l-13.9-5.1c0,0,5.5,5.1,0,10.1L177.5,57"/>
	</g>
	<g>
		<rect x="326.5" y="56" class="st3" width="55.6" height="2"/>
	</g>
	<g>
		<path class="st3" d="M390.5,57l-13.9-5.1c0,0,5.5,5.1,0,10.1L390.5,57"/>
	</g>
	<g>
		<rect x="511.5" y="56" class="st3" width="55.6" height="2"/>
	</g>
	<g>
		<path class="st3" d="M575.5,57l-13.9-5.1c0,0,5.5,5.1,0,10.1L575.5,57"/>
	</g>
	<g>
		<rect x="724.5" y="56" class="st3" width="55.6" height="2"/>
	</g>
	<g>
		<path class="st3" d="M788.5,57l-13.9-5.1c0,0,5.5,5.1,0,10.1L788.5,57"/>
	</g>
	<g>
		<rect x="916.6" y="237.6" class="st3" width="55.6" height="2"/>
	</g>
	<g>
		<path class="st3" d="M908.3,238.6l13.9,5.1c0,0-5.5-5.1,0-10.1L908.3,238.6"/>
	</g>
	<g>
		<rect x="703.6" y="237.6" class="st3" width="55.6" height="2"/>
	</g>
	<g>
		<path class="st3" d="M695.3,238.6l13.9,5.1c0,0-5.5-5.1,0-10.1L695.3,238.6"/>
	</g>
	<g>
		<rect x="469.9" y="237.6" class="st3" width="55.6" height="2"/>
	</g>
	<g>
		<path class="st3" d="M461.5,238.6l13.9,5.1c0,0-5.5-5.1,0-10.1L461.5,238.6"/>
	</g>
	<g>
		<rect x="284.9" y="237.6" class="st3" width="55.6" height="2"/>
	</g>
	<g>
		<path class="st3" d="M276.5,238.6l13.9,5.1c0,0-5.5-5.1,0-10.1L276.5,238.6"/>
	</g>
	<g>
		<rect x="909.5" y="56" class="st3" width="55.6" height="2"/>
	</g>
	<g>
		<path class="st3" d="M973.5,57l-13.9-5.1c0,0,5.5,5.1,0,10.1L973.5,57"/>
	</g>
	<g>
		<rect x="1051" y="84.8" class="st3" width="2" height="23.6"/>
	</g>
	<g>
		<path class="st3" d="M1052,116.7l5.1-13.9c0,0-5.1,5.5-10.1,0L1052,116.7"/>
	</g>
	<g class="st0">
		<path class="st4" d="M57,113c30.9,0,56-25.1,56-56S87.9,1,57,1S1,26.1,1,57S26.1,113,57,113"/>
	</g>
	<g>
		<path class="st4" d="M57,114C25.6,114,0,88.4,0,57S25.6,0,57,0s57,25.6,57,57S88.4,114,57,114z M57,2C26.7,2,2,26.7,2,57
			s24.7,55,55,55s55-24.7,55-55S87.3,2,57,2z"/>
	</g>
	<g>
		<path class="st4" d="M40.4,54.8c0,0.7-0.1,1.4-0.4,1.9c-0.2,0.5-0.6,1-1.1,1.3c-0.5,0.3-1.1,0.5-1.8,0.5c-0.7,0-1.4-0.2-1.8-0.5
			c-0.5-0.3-0.9-0.7-1.1-1.3c-0.2-0.6-0.4-1.2-0.4-1.9c0-0.7,0.1-1.4,0.4-1.9c0.2-0.5,0.6-1,1.1-1.3c0.5-0.3,1.1-0.5,1.9-0.5
			c0.7,0,1.3,0.2,1.8,0.5c0.5,0.3,0.9,0.7,1.1,1.3C40.3,53.4,40.4,54,40.4,54.8z M34.7,54.8c0,0.9,0.2,1.6,0.6,2.1s1,0.8,1.8,0.8
			c0.8,0,1.4-0.3,1.8-0.8s0.6-1.2,0.6-2.1s-0.2-1.6-0.6-2.1c-0.4-0.5-1-0.8-1.8-0.8s-1.4,0.3-1.8,0.8C34.9,53.2,34.7,53.9,34.7,54.8
			z"/>
		<path class="st4" d="M44.5,52.9c0.7,0,1.2,0.2,1.6,0.7c0.4,0.5,0.6,1.2,0.6,2.1c0,0.9-0.2,1.6-0.6,2.1c-0.4,0.5-0.9,0.7-1.6,0.7
			c-0.4,0-0.8-0.1-1-0.2c-0.3-0.2-0.5-0.3-0.6-0.5h-0.1c0,0.1,0,0.3,0,0.4c0,0.2,0,0.3,0,0.5v2.2H42V53h0.7l0.1,0.7h0
			c0.2-0.2,0.4-0.4,0.6-0.6C43.7,53,44.1,52.9,44.5,52.9z M44.3,53.6c-0.5,0-0.9,0.2-1.2,0.5c-0.2,0.3-0.3,0.8-0.4,1.4v0.2
			c0,0.7,0.1,1.2,0.3,1.5c0.2,0.4,0.6,0.5,1.2,0.5c0.3,0,0.6-0.1,0.8-0.3c0.2-0.2,0.4-0.4,0.5-0.7c0.1-0.3,0.2-0.7,0.2-1.1
			c0-0.6-0.1-1.1-0.4-1.5S44.8,53.6,44.3,53.6z"/>
		<path class="st4" d="M50.3,52.9c0.5,0,0.9,0.1,1.2,0.3s0.6,0.5,0.8,0.8c0.2,0.4,0.3,0.8,0.3,1.3v0.5h-3.7c0,0.6,0.2,1.1,0.5,1.4
			c0.3,0.3,0.7,0.5,1.2,0.5c0.3,0,0.6,0,0.9-0.1c0.3-0.1,0.5-0.2,0.8-0.3v0.8c-0.3,0.1-0.5,0.2-0.8,0.3s-0.6,0.1-1,0.1
			c-0.5,0-1-0.1-1.3-0.3c-0.4-0.2-0.7-0.5-0.9-0.9s-0.3-0.9-0.3-1.5c0-0.6,0.1-1.1,0.3-1.5c0.2-0.4,0.5-0.7,0.8-1
			C49.4,53,49.8,52.9,50.3,52.9z M50.2,53.6c-0.4,0-0.8,0.1-1,0.4c-0.2,0.3-0.4,0.6-0.4,1.1h2.7c0-0.5-0.1-0.8-0.3-1.1
			C51,53.7,50.7,53.6,50.2,53.6z"/>
		<path class="st4" d="M56.5,52.9c0.6,0,1.1,0.2,1.4,0.5c0.3,0.3,0.5,0.8,0.5,1.5v3.5h-0.9v-3.4c0-0.9-0.4-1.3-1.2-1.3
			c-0.6,0-1,0.2-1.2,0.5c-0.2,0.3-0.3,0.8-0.3,1.4v2.8h-0.9V53h0.7l0.1,0.7h0.1c0.2-0.3,0.4-0.5,0.7-0.6S56.1,52.9,56.5,52.9z"/>
		<path class="st4" d="M67.3,58.3l-0.9-2.2h-2.8l-0.8,2.2h-0.9l2.8-7.2h0.8l2.8,7.2H67.3z M65.3,53.2c0-0.1-0.1-0.2-0.1-0.3
			s-0.1-0.3-0.1-0.4c0-0.2-0.1-0.3-0.1-0.3c0,0.2-0.1,0.4-0.2,0.6c-0.1,0.2-0.1,0.4-0.1,0.5l-0.8,2.2h2.3L65.3,53.2z"/>
		<path class="st4" d="M71.8,52.9c0.7,0,1.2,0.2,1.6,0.7c0.4,0.5,0.6,1.2,0.6,2.1c0,0.9-0.2,1.6-0.6,2.1c-0.4,0.5-0.9,0.7-1.6,0.7
			c-0.4,0-0.8-0.1-1-0.2c-0.3-0.2-0.5-0.3-0.6-0.5h-0.1c0,0.1,0,0.3,0,0.4c0,0.2,0,0.3,0,0.5v2.2h-0.9V53H70l0.1,0.7h0
			c0.2-0.2,0.4-0.4,0.6-0.6C71.1,53,71.4,52.9,71.8,52.9z M71.7,53.6c-0.5,0-0.9,0.2-1.2,0.5c-0.2,0.3-0.3,0.8-0.4,1.4v0.2
			c0,0.7,0.1,1.2,0.3,1.5c0.2,0.4,0.6,0.5,1.2,0.5c0.3,0,0.6-0.1,0.8-0.3c0.2-0.2,0.4-0.4,0.5-0.7c0.1-0.3,0.2-0.7,0.2-1.1
			c0-0.6-0.1-1.1-0.4-1.5S72.2,53.6,71.7,53.6z"/>
		<path class="st4" d="M78,52.9c0.7,0,1.2,0.2,1.6,0.7c0.4,0.5,0.6,1.2,0.6,2.1c0,0.9-0.2,1.6-0.6,2.1c-0.4,0.5-0.9,0.7-1.6,0.7
			c-0.4,0-0.8-0.1-1-0.2c-0.3-0.2-0.5-0.3-0.6-0.5h-0.1c0,0.1,0,0.3,0,0.4c0,0.2,0,0.3,0,0.5v2.2h-0.9V53h0.7l0.1,0.7h0
			c0.2-0.2,0.4-0.4,0.6-0.6C77.3,53,77.6,52.9,78,52.9z M77.9,53.6c-0.5,0-0.9,0.2-1.2,0.5c-0.2,0.3-0.3,0.8-0.4,1.4v0.2
			c0,0.7,0.1,1.2,0.3,1.5c0.2,0.4,0.6,0.5,1.2,0.5c0.3,0,0.6-0.1,0.8-0.3c0.2-0.2,0.4-0.4,0.5-0.7c0.1-0.3,0.2-0.7,0.2-1.1
			c0-0.6-0.1-1.1-0.4-1.5S78.4,53.6,77.9,53.6z"/>
	</g>
	<g class="st0">
		<path class="st4" d="M455,113c30.9,0,56-25.1,56-56S485.9,1,455,1s-56,25.1-56,56S424.1,113,455,113"/>
	</g>
	<g>
		<path class="st4" d="M455,114c-31.4,0-57-25.6-57-57s25.6-57,57-57s57,25.6,57,57S486.4,114,455,114z M455,2
			c-30.3,0-55,24.7-55,55s24.7,55,55,55s55-24.7,55-55S485.3,2,455,2z"/>
	</g>
	<g>
		<path class="st4" d="M434.8,51.2l-2.5,7.1h-0.9l-2.5-7.1h0.9l1.6,4.6c0.1,0.3,0.2,0.6,0.3,0.8c0.1,0.3,0.1,0.5,0.2,0.7
			c0-0.2,0.1-0.5,0.2-0.7s0.2-0.5,0.3-0.8l1.6-4.6H434.8z"/>
		<path class="st4" d="M436.4,51c0.1,0,0.3,0,0.4,0.1c0.1,0.1,0.2,0.2,0.2,0.4c0,0.2-0.1,0.3-0.2,0.4c-0.1,0.1-0.2,0.1-0.4,0.1
			c-0.1,0-0.3,0-0.4-0.1c-0.1-0.1-0.1-0.2-0.1-0.4c0-0.2,0-0.3,0.1-0.4C436.1,51,436.3,51,436.4,51z M436.8,53v5.4H436V53H436.8z"/>
		<path class="st4" d="M440.6,52.9c0.5,0,0.9,0.1,1.2,0.3c0.3,0.2,0.6,0.5,0.8,0.8c0.2,0.4,0.3,0.8,0.3,1.3v0.5h-3.7
			c0,0.6,0.2,1.1,0.5,1.4s0.7,0.5,1.2,0.5c0.3,0,0.6,0,0.9-0.1c0.3-0.1,0.5-0.2,0.8-0.3v0.8c-0.3,0.1-0.5,0.2-0.8,0.3
			s-0.6,0.1-1,0.1c-0.5,0-1-0.1-1.3-0.3c-0.4-0.2-0.7-0.5-0.9-0.9s-0.3-0.9-0.3-1.5c0-0.6,0.1-1.1,0.3-1.5c0.2-0.4,0.5-0.7,0.8-1
			S440.2,52.9,440.6,52.9z M440.6,53.6c-0.4,0-0.8,0.1-1,0.4c-0.2,0.3-0.4,0.6-0.4,1.1h2.7c0-0.5-0.1-0.8-0.3-1.1
			C441.4,53.7,441.1,53.6,440.6,53.6z"/>
		<path class="st4" d="M447.8,55.3c-0.1-0.3-0.2-0.5-0.2-0.8s-0.1-0.5-0.1-0.6h0c0,0.1-0.1,0.4-0.1,0.6c-0.1,0.3-0.1,0.5-0.2,0.8
			l-1,3h-1l-1.5-5.4h0.9l0.7,2.9c0.1,0.3,0.1,0.6,0.2,0.9c0.1,0.3,0.1,0.5,0.1,0.7h0c0-0.1,0.1-0.3,0.1-0.4c0-0.2,0.1-0.3,0.1-0.5
			c0-0.2,0.1-0.3,0.1-0.5l1-3h1l0.9,3c0.1,0.2,0.1,0.5,0.2,0.7c0.1,0.3,0.1,0.5,0.1,0.7h0c0-0.2,0.1-0.4,0.1-0.7
			c0.1-0.3,0.1-0.6,0.2-0.9l0.8-2.9h0.9l-1.5,5.4h-1L447.8,55.3z"/>
		<path class="st4" d="M458,58.3l-2.4-6.3h0c0,0.2,0,0.5,0,0.8c0,0.3,0,0.7,0,1.1v4.3h-0.8v-7.1h1.3l2.2,5.8h0l2.2-5.8h1.3v7.1h-0.9
			V54c0-0.3,0-0.7,0-1s0-0.6,0-0.8h0l-2.4,6.2H458z"/>
		<path class="st4" d="M466,52.9c0.5,0,0.9,0.1,1.2,0.3c0.3,0.2,0.6,0.5,0.8,0.8c0.2,0.4,0.3,0.8,0.3,1.3v0.5h-3.7
			c0,0.6,0.2,1.1,0.5,1.4s0.7,0.5,1.2,0.5c0.3,0,0.6,0,0.9-0.1c0.3-0.1,0.5-0.2,0.8-0.3v0.8c-0.3,0.1-0.5,0.2-0.8,0.3
			s-0.6,0.1-1,0.1c-0.5,0-1-0.1-1.3-0.3c-0.4-0.2-0.7-0.5-0.9-0.9s-0.3-0.9-0.3-1.5c0-0.6,0.1-1.1,0.3-1.5c0.2-0.4,0.5-0.7,0.8-1
			S465.5,52.9,466,52.9z M466,53.6c-0.4,0-0.8,0.1-1,0.4c-0.2,0.3-0.4,0.6-0.4,1.1h2.7c0-0.5-0.1-0.8-0.3-1.1
			C466.7,53.7,466.4,53.6,466,53.6z"/>
		<path class="st4" d="M472.2,52.9c0.6,0,1.1,0.2,1.5,0.5c0.3,0.3,0.5,0.8,0.5,1.5v3.5h-0.9v-3.4c0-0.9-0.4-1.3-1.2-1.3
			c-0.6,0-1,0.2-1.2,0.5c-0.2,0.3-0.3,0.8-0.3,1.4v2.8h-0.9V53h0.7l0.1,0.7h0c0.2-0.3,0.4-0.5,0.7-0.6S471.8,52.9,472.2,52.9z"/>
		<path class="st4" d="M480.3,53v5.4h-0.7l-0.1-0.7h0c-0.2,0.3-0.4,0.5-0.7,0.6s-0.6,0.2-1,0.2c-0.6,0-1.1-0.2-1.5-0.5
			c-0.3-0.3-0.5-0.8-0.5-1.5V53h0.9v3.5c0,0.9,0.4,1.3,1.2,1.3c0.6,0,1-0.2,1.2-0.5c0.2-0.3,0.3-0.8,0.3-1.4V53H480.3z"/>
	</g>
	<g class="st0">
		<path class="st4" d="M397,294.6c30.9,0,56-25.1,56-56s-25.1-56-56-56s-56,25.1-56,56S366.1,294.6,397,294.6"/>
	</g>
	<g>
		<path class="st4" d="M397,295.6c-31.4,0-57-25.6-57-57s25.6-57,57-57s57,25.6,57,57S428.4,295.6,397,295.6z M397,183.6
			c-30.3,0-55,24.7-55,55s24.7,55,55,55s55-24.7,55-55S427.3,183.6,397,183.6z"/>
	</g>
	<g>
		<path class="st4" d="M363.8,225.3c0.9,0,1.6,0.2,2,0.5c0.4,0.4,0.6,0.9,0.6,1.5c0,0.4-0.1,0.8-0.3,1.1c-0.2,0.3-0.5,0.6-0.9,0.8
			c-0.4,0.2-1,0.3-1.7,0.3h-0.8v2.8h-0.9v-7.1H363.8z M363.7,226h-0.9v2.8h0.7c0.7,0,1.2-0.1,1.5-0.3c0.3-0.2,0.5-0.6,0.5-1.1
			c0-0.5-0.1-0.8-0.4-1S364.3,226,363.7,226z"/>
		<path class="st4" d="M372.3,227v5.4h-0.7l-0.1-0.7h0c-0.2,0.3-0.4,0.5-0.7,0.6s-0.6,0.2-1,0.2c-0.6,0-1.1-0.2-1.5-0.5
			c-0.3-0.3-0.5-0.8-0.5-1.5V227h0.9v3.5c0,0.9,0.4,1.3,1.2,1.3c0.6,0,1-0.2,1.2-0.5c0.2-0.3,0.3-0.8,0.3-1.4V227H372.3z"/>
		<path class="st4" d="M375.9,231.8c0.1,0,0.3,0,0.4,0c0.1,0,0.3,0,0.3-0.1v0.7c-0.1,0-0.2,0.1-0.4,0.1c-0.2,0-0.3,0-0.5,0
			c-0.3,0-0.5,0-0.8-0.1s-0.4-0.3-0.6-0.5s-0.2-0.6-0.2-1v-3.1h-0.8v-0.4l0.8-0.4l0.4-1.1h0.5v1.2h1.5v0.7h-1.5v3.1
			c0,0.3,0.1,0.6,0.2,0.7C375.5,231.7,375.7,231.8,375.9,231.8z"/>
		<path class="st4" d="M380.8,225c0.1,0,0.3,0,0.4,0.1c0.1,0.1,0.2,0.2,0.2,0.4c0,0.2-0.1,0.3-0.2,0.4c-0.1,0.1-0.2,0.1-0.4,0.1
			c-0.1,0-0.3,0-0.4-0.1c-0.1-0.1-0.1-0.2-0.1-0.4c0-0.2,0-0.3,0.1-0.4C380.5,225.1,380.7,225,380.8,225z M381.2,227v5.4h-0.9V227
			H381.2z"/>
		<path class="st4" d="M385.5,226.9c0.6,0,1.1,0.2,1.5,0.5c0.3,0.3,0.5,0.8,0.5,1.5v3.5h-0.9V229c0-0.9-0.4-1.3-1.2-1.3
			c-0.6,0-1,0.2-1.2,0.5c-0.2,0.3-0.3,0.8-0.3,1.4v2.8h-0.9V227h0.7l0.1,0.7h0c0.2-0.3,0.4-0.5,0.7-0.6S385.2,226.9,385.5,226.9z"/>
		<path class="st4" d="M394.3,226.9c0.7,0,1.2,0.2,1.6,0.7c0.4,0.5,0.6,1.2,0.6,2.1c0,0.9-0.2,1.6-0.6,2.1c-0.4,0.5-0.9,0.7-1.6,0.7
			c-0.4,0-0.8-0.1-1-0.2c-0.3-0.2-0.5-0.3-0.6-0.5h-0.1c0,0.1,0,0.3,0,0.4c0,0.2,0,0.3,0,0.5v2.2h-0.9V227h0.7l0.1,0.7h0
			c0.2-0.2,0.4-0.4,0.6-0.6C393.5,227,393.8,226.9,394.3,226.9z M394.1,227.7c-0.5,0-0.9,0.2-1.2,0.5s-0.3,0.8-0.4,1.4v0.2
			c0,0.7,0.1,1.2,0.3,1.5s0.6,0.5,1.2,0.5c0.3,0,0.6-0.1,0.8-0.3c0.2-0.2,0.4-0.4,0.5-0.7c0.1-0.3,0.2-0.7,0.2-1.1
			c0-0.6-0.1-1.1-0.4-1.5S394.6,227.7,394.1,227.7z"/>
		<path class="st4" d="M400,226.9c0.7,0,1.1,0.1,1.5,0.4c0.3,0.3,0.5,0.7,0.5,1.4v3.7h-0.6l-0.2-0.8h0c-0.2,0.3-0.5,0.5-0.7,0.6
			c-0.3,0.1-0.6,0.2-1.1,0.2c-0.5,0-0.9-0.1-1.2-0.4c-0.3-0.3-0.5-0.7-0.5-1.2c0-0.5,0.2-0.9,0.6-1.2s1.1-0.4,1.9-0.5l0.9,0v-0.3
			c0-0.4-0.1-0.8-0.3-0.9c-0.2-0.2-0.5-0.3-0.8-0.3c-0.3,0-0.5,0-0.8,0.1c-0.3,0.1-0.5,0.2-0.7,0.3l-0.3-0.7
			c0.2-0.1,0.5-0.2,0.8-0.3C399.3,227,399.7,226.9,400,226.9z M400.3,229.8c-0.7,0-1.1,0.1-1.4,0.3c-0.3,0.2-0.4,0.4-0.4,0.8
			c0,0.3,0.1,0.5,0.3,0.7c0.2,0.1,0.4,0.2,0.7,0.2c0.5,0,0.8-0.1,1.1-0.4c0.3-0.2,0.4-0.6,0.4-1.2v-0.5L400.3,229.8z"/>
		<path class="st4" d="M402.8,227h0.9l1.2,3.1c0.1,0.3,0.2,0.5,0.3,0.8s0.1,0.5,0.2,0.7h0c0-0.2,0.1-0.4,0.2-0.7
			c0.1-0.3,0.2-0.5,0.3-0.8l1.1-3h0.9l-2.3,6.1c-0.2,0.5-0.4,0.9-0.7,1.2c-0.3,0.3-0.7,0.5-1.2,0.5c-0.2,0-0.3,0-0.4,0
			s-0.2,0-0.3-0.1V234c0.1,0,0.2,0,0.3,0c0.1,0,0.2,0,0.3,0c0.3,0,0.6-0.1,0.7-0.3c0.2-0.2,0.3-0.4,0.4-0.7l0.3-0.7L402.8,227z"/>
		<path class="st4" d="M414.8,226.9c0.6,0,1.1,0.2,1.4,0.5c0.3,0.3,0.5,0.8,0.5,1.5v3.5h-0.9v-3.5c0-0.8-0.4-1.3-1.1-1.3
			c-0.5,0-0.9,0.1-1.1,0.5c-0.2,0.3-0.3,0.7-0.3,1.3v3h-0.9v-3.5c0-0.8-0.4-1.3-1.1-1.3c-0.5,0-0.9,0.2-1.1,0.5
			c-0.2,0.3-0.3,0.8-0.3,1.4v2.8h-0.9V227h0.7l0.1,0.7h0c0.2-0.3,0.4-0.5,0.7-0.6s0.6-0.2,0.9-0.2c0.8,0,1.4,0.3,1.6,0.9h0
			c0.2-0.3,0.4-0.5,0.7-0.7C414.1,227,414.5,226.9,414.8,226.9z"/>
		<path class="st4" d="M420.4,226.9c0.5,0,0.9,0.1,1.2,0.3c0.3,0.2,0.6,0.5,0.8,0.8c0.2,0.4,0.3,0.8,0.3,1.3v0.5h-3.7
			c0,0.6,0.2,1.1,0.5,1.4s0.7,0.5,1.2,0.5c0.3,0,0.6,0,0.9-0.1c0.3-0.1,0.5-0.2,0.8-0.3v0.8c-0.3,0.1-0.5,0.2-0.8,0.3
			s-0.6,0.1-1,0.1c-0.5,0-1-0.1-1.3-0.3c-0.4-0.2-0.7-0.5-0.9-0.9s-0.3-0.9-0.3-1.5c0-0.6,0.1-1.1,0.3-1.5c0.2-0.4,0.5-0.7,0.8-1
			S419.9,226.9,420.4,226.9z M420.4,227.7c-0.4,0-0.8,0.1-1,0.4c-0.2,0.3-0.4,0.6-0.4,1.1h2.7c0-0.5-0.1-0.8-0.3-1.1
			C421.2,227.8,420.8,227.7,420.4,227.7z"/>
		<path class="st4" d="M426.6,226.9c0.6,0,1.1,0.2,1.5,0.5c0.3,0.3,0.5,0.8,0.5,1.5v3.5h-0.9V229c0-0.9-0.4-1.3-1.2-1.3
			c-0.6,0-1,0.2-1.2,0.5c-0.2,0.3-0.3,0.8-0.3,1.4v2.8H424V227h0.7l0.1,0.7h0c0.2-0.3,0.4-0.5,0.7-0.6S426.3,226.9,426.6,226.9z"/>
		<path class="st4" d="M432.1,231.8c0.1,0,0.3,0,0.4,0c0.1,0,0.3,0,0.3-0.1v0.7c-0.1,0-0.2,0.1-0.4,0.1c-0.2,0-0.3,0-0.5,0
			c-0.3,0-0.5,0-0.8-0.1s-0.4-0.3-0.6-0.5s-0.2-0.6-0.2-1v-3.1h-0.8v-0.4l0.8-0.4l0.4-1.1h0.5v1.2h1.5v0.7h-1.5v3.1
			c0,0.3,0.1,0.6,0.2,0.7C431.6,231.7,431.8,231.8,432.1,231.8z"/>
	</g>
	<g>
		<path class="st4" d="M368.7,240c0.1,0,0.3,0,0.4,0.1c0.1,0.1,0.2,0.2,0.2,0.4c0,0.2-0.1,0.3-0.2,0.4c-0.1,0.1-0.2,0.1-0.4,0.1
			c-0.1,0-0.3,0-0.4-0.1c-0.1-0.1-0.1-0.2-0.1-0.4c0-0.2,0-0.3,0.1-0.4C368.5,240.1,368.6,240,368.7,240z M369.2,242v5.4h-0.9V242
			H369.2z"/>
		<path class="st4" d="M373.4,241.9c0.6,0,1.1,0.2,1.5,0.5c0.3,0.3,0.5,0.8,0.5,1.5v3.5h-0.9V244c0-0.9-0.4-1.3-1.2-1.3
			c-0.6,0-1,0.2-1.2,0.5c-0.2,0.3-0.3,0.8-0.3,1.4v2.8h-0.9V242h0.7l0.1,0.7h0c0.2-0.3,0.4-0.5,0.7-0.6S373.1,241.9,373.4,241.9z"/>
		<path class="st4" d="M379.6,242.7h-1.4v4.7h-0.9v-4.7h-0.9v-0.4l0.9-0.3v-0.3c0-0.7,0.2-1.2,0.5-1.5c0.3-0.3,0.7-0.5,1.3-0.5
			c0.2,0,0.4,0,0.6,0.1c0.2,0,0.3,0.1,0.5,0.1l-0.2,0.7c-0.1,0-0.2-0.1-0.4-0.1c-0.1,0-0.3,0-0.4,0c-0.3,0-0.5,0.1-0.7,0.3
			c-0.1,0.2-0.2,0.5-0.2,0.9v0.3h1.4V242.7z"/>
		<path class="st4" d="M385.3,244.7c0,0.9-0.2,1.6-0.7,2.1s-1.1,0.7-1.8,0.7c-0.5,0-0.9-0.1-1.3-0.3s-0.7-0.5-0.9-1
			c-0.2-0.4-0.3-0.9-0.3-1.5c0-0.9,0.2-1.6,0.7-2c0.4-0.5,1.1-0.7,1.8-0.7c0.5,0,0.9,0.1,1.3,0.3s0.7,0.5,0.9,0.9
			S385.3,244.1,385.3,244.7z M381.2,244.7c0,0.6,0.1,1.1,0.4,1.5c0.2,0.4,0.6,0.6,1.2,0.6c0.5,0,0.9-0.2,1.2-0.6
			c0.3-0.4,0.4-0.9,0.4-1.5c0-0.6-0.1-1.1-0.4-1.5c-0.3-0.4-0.7-0.5-1.2-0.5c-0.5,0-0.9,0.2-1.2,0.5
			C381.4,243.6,381.2,244.1,381.2,244.7z"/>
		<path class="st4" d="M389.2,241.9c0.1,0,0.2,0,0.3,0c0.1,0,0.2,0,0.3,0l-0.1,0.8c-0.1,0-0.2,0-0.3,0c-0.1,0-0.2,0-0.3,0
			c-0.3,0-0.5,0.1-0.8,0.2c-0.2,0.1-0.4,0.4-0.6,0.6c-0.1,0.3-0.2,0.6-0.2,0.9v2.9h-0.9V242h0.7l0.1,1h0c0.2-0.3,0.4-0.5,0.7-0.8
			C388.5,242,388.8,241.9,389.2,241.9z"/>
		<path class="st4" d="M396.9,241.9c0.6,0,1.1,0.2,1.4,0.5c0.3,0.3,0.5,0.8,0.5,1.5v3.5h-0.9v-3.5c0-0.8-0.4-1.3-1.1-1.3
			c-0.5,0-0.9,0.1-1.1,0.5c-0.2,0.3-0.3,0.7-0.3,1.3v3h-0.9v-3.5c0-0.8-0.4-1.3-1.1-1.3c-0.5,0-0.9,0.2-1.1,0.5
			c-0.2,0.3-0.3,0.8-0.3,1.4v2.8H391V242h0.7l0.1,0.7h0c0.2-0.3,0.4-0.5,0.7-0.6s0.6-0.2,0.9-0.2c0.8,0,1.4,0.3,1.6,0.9h0
			c0.2-0.3,0.4-0.5,0.7-0.7C396.2,242,396.5,241.9,396.9,241.9z"/>
		<path class="st4" d="M402.4,241.9c0.7,0,1.1,0.1,1.5,0.4c0.3,0.3,0.5,0.7,0.5,1.4v3.7h-0.6l-0.2-0.8h0c-0.2,0.3-0.5,0.5-0.7,0.6
			c-0.3,0.1-0.6,0.2-1.1,0.2c-0.5,0-0.9-0.1-1.2-0.4c-0.3-0.3-0.5-0.7-0.5-1.2c0-0.5,0.2-0.9,0.6-1.2s1.1-0.4,1.9-0.5l0.9,0v-0.3
			c0-0.4-0.1-0.8-0.3-0.9c-0.2-0.2-0.5-0.3-0.8-0.3c-0.3,0-0.5,0-0.8,0.1c-0.3,0.1-0.5,0.2-0.7,0.3l-0.3-0.7
			c0.2-0.1,0.5-0.2,0.8-0.3C401.7,242,402,241.9,402.4,241.9z M402.6,244.8c-0.7,0-1.1,0.1-1.4,0.3c-0.3,0.2-0.4,0.4-0.4,0.8
			c0,0.3,0.1,0.5,0.3,0.7c0.2,0.1,0.4,0.2,0.7,0.2c0.5,0,0.8-0.1,1.1-0.4c0.3-0.2,0.4-0.6,0.4-1.2v-0.5L402.6,244.8z"/>
		<path class="st4" d="M407.8,246.8c0.1,0,0.3,0,0.4,0c0.1,0,0.3,0,0.3-0.1v0.7c-0.1,0-0.2,0.1-0.4,0.1c-0.2,0-0.3,0-0.5,0
			c-0.3,0-0.5,0-0.8-0.1s-0.4-0.3-0.6-0.5s-0.2-0.6-0.2-1v-3.1h-0.8v-0.4l0.8-0.4l0.4-1.1h0.5v1.2h1.5v0.7H407v3.1
			c0,0.3,0.1,0.6,0.2,0.7C407.4,246.7,407.6,246.8,407.8,246.8z"/>
		<path class="st4" d="M410.2,240c0.1,0,0.3,0,0.4,0.1c0.1,0.1,0.2,0.2,0.2,0.4c0,0.2-0.1,0.3-0.2,0.4c-0.1,0.1-0.2,0.1-0.4,0.1
			c-0.1,0-0.3,0-0.4-0.1c-0.1-0.1-0.1-0.2-0.1-0.4c0-0.2,0-0.3,0.1-0.4C409.9,240.1,410,240,410.2,240z M410.6,242v5.4h-0.9V242
			H410.6z"/>
		<path class="st4" d="M417,244.7c0,0.9-0.2,1.6-0.7,2.1s-1.1,0.7-1.8,0.7c-0.5,0-0.9-0.1-1.3-0.3s-0.7-0.5-0.9-1
			c-0.2-0.4-0.3-0.9-0.3-1.5c0-0.9,0.2-1.6,0.7-2c0.4-0.5,1.1-0.7,1.8-0.7c0.5,0,0.9,0.1,1.3,0.3s0.7,0.5,0.9,0.9
			S417,244.1,417,244.7z M413,244.7c0,0.6,0.1,1.1,0.4,1.5c0.2,0.4,0.6,0.6,1.2,0.6c0.5,0,0.9-0.2,1.2-0.6c0.3-0.4,0.4-0.9,0.4-1.5
			c0-0.6-0.1-1.1-0.4-1.5c-0.3-0.4-0.7-0.5-1.2-0.5c-0.5,0-0.9,0.2-1.2,0.5C413.1,243.6,413,244.1,413,244.7z"/>
		<path class="st4" d="M421,241.9c0.6,0,1.1,0.2,1.5,0.5c0.3,0.3,0.5,0.8,0.5,1.5v3.5h-0.9V244c0-0.9-0.4-1.3-1.2-1.3
			c-0.6,0-1,0.2-1.2,0.5c-0.2,0.3-0.3,0.8-0.3,1.4v2.8h-0.9V242h0.7l0.1,0.7h0c0.2-0.3,0.4-0.5,0.7-0.6S420.7,241.9,421,241.9z"/>
		<path class="st4" d="M424.6,246.9c0-0.2,0.1-0.4,0.2-0.5c0.1-0.1,0.3-0.2,0.4-0.2c0.2,0,0.3,0,0.4,0.2c0.1,0.1,0.2,0.3,0.2,0.5
			c0,0.2-0.1,0.4-0.2,0.5c-0.1,0.1-0.3,0.2-0.4,0.2c-0.2,0-0.3-0.1-0.4-0.2C424.6,247.3,424.6,247.1,424.6,246.9z"/>
	</g>
	<g class="st0">
		<path class="st4" d="M853,113c30.9,0,56-25.1,56-56S883.9,1,853,1c-30.9,0-56,25.1-56,56S822.1,113,853,113"/>
	</g>
	<g>
		<path class="st4" d="M853,114c-31.4,0-57-25.6-57-57s25.6-57,57-57s57,25.6,57,57S884.4,114,853,114z M853,2
			c-30.3,0-55,24.7-55,55s24.7,55,55,55s55-24.7,55-55S883.3,2,853,2z"/>
	</g>
	<g>
		<path class="st4" d="M816.5,56.4c0,0.6-0.2,1.1-0.7,1.5s-1.1,0.5-1.9,0.5c-0.4,0-0.8,0-1.1-0.1c-0.3-0.1-0.6-0.1-0.9-0.2v-0.9
			c0.2,0.1,0.5,0.2,0.9,0.3c0.4,0.1,0.7,0.1,1.1,0.1c0.5,0,0.9-0.1,1.2-0.3c0.3-0.2,0.4-0.5,0.4-0.8c0-0.2,0-0.4-0.2-0.6
			c-0.1-0.2-0.3-0.3-0.5-0.4s-0.6-0.3-1-0.4c-0.6-0.2-1.1-0.5-1.4-0.8c-0.3-0.3-0.5-0.8-0.5-1.3c0-0.4,0.1-0.7,0.3-1
			c0.2-0.3,0.5-0.5,0.8-0.6c0.3-0.1,0.7-0.2,1.2-0.2c0.4,0,0.8,0,1.1,0.1c0.3,0.1,0.6,0.2,0.9,0.3l-0.3,0.8
			c-0.2-0.1-0.5-0.2-0.8-0.3s-0.6-0.1-0.9-0.1c-0.4,0-0.8,0.1-1,0.3s-0.3,0.4-0.3,0.8c0,0.2,0,0.4,0.2,0.6c0.1,0.2,0.3,0.3,0.5,0.4
			c0.2,0.1,0.5,0.3,0.9,0.4c0.4,0.2,0.8,0.3,1.1,0.5s0.5,0.4,0.7,0.6C816.4,55.8,816.5,56.1,816.5,56.4z"/>
		<path class="st4" d="M820,52.9c0.5,0,0.9,0.1,1.2,0.3c0.3,0.2,0.6,0.5,0.8,0.8c0.2,0.4,0.3,0.8,0.3,1.3v0.5h-3.7
			c0,0.6,0.2,1.1,0.5,1.4s0.7,0.5,1.2,0.5c0.3,0,0.6,0,0.9-0.1c0.3-0.1,0.5-0.2,0.8-0.3v0.8c-0.3,0.1-0.5,0.2-0.8,0.3
			s-0.6,0.1-1,0.1c-0.5,0-1-0.1-1.3-0.3c-0.4-0.2-0.7-0.5-0.9-0.9s-0.3-0.9-0.3-1.5c0-0.6,0.1-1.1,0.3-1.5c0.2-0.4,0.5-0.7,0.8-1
			S819.6,52.9,820,52.9z M820,53.6c-0.4,0-0.8,0.1-1,0.4c-0.2,0.3-0.4,0.6-0.4,1.1h2.7c0-0.5-0.1-0.8-0.3-1.1
			C820.8,53.7,820.5,53.6,820,53.6z"/>
		<path class="st4" d="M824.6,58.3h-0.9v-7.6h0.9V58.3z"/>
		<path class="st4" d="M828.4,52.9c0.5,0,0.9,0.1,1.2,0.3c0.3,0.2,0.6,0.5,0.8,0.8c0.2,0.4,0.3,0.8,0.3,1.3v0.5h-3.7
			c0,0.6,0.2,1.1,0.5,1.4s0.7,0.5,1.2,0.5c0.3,0,0.6,0,0.9-0.1c0.3-0.1,0.5-0.2,0.8-0.3v0.8c-0.3,0.1-0.5,0.2-0.8,0.3
			s-0.6,0.1-1,0.1c-0.5,0-1-0.1-1.3-0.3c-0.4-0.2-0.7-0.5-0.9-0.9s-0.3-0.9-0.3-1.5c0-0.6,0.1-1.1,0.3-1.5c0.2-0.4,0.5-0.7,0.8-1
			S827.9,52.9,828.4,52.9z M828.4,53.6c-0.4,0-0.8,0.1-1,0.4c-0.2,0.3-0.4,0.6-0.4,1.1h2.7c0-0.5-0.1-0.8-0.3-1.1
			C829.2,53.7,828.8,53.6,828.4,53.6z"/>
		<path class="st4" d="M834.2,58.4c-0.5,0-0.9-0.1-1.3-0.3c-0.4-0.2-0.7-0.5-0.9-0.9s-0.3-0.9-0.3-1.6c0-0.7,0.1-1.2,0.3-1.6
			s0.5-0.7,0.9-0.9c0.4-0.2,0.8-0.3,1.3-0.3c0.3,0,0.5,0,0.8,0.1c0.3,0.1,0.5,0.1,0.6,0.2l-0.3,0.7c-0.2-0.1-0.3-0.1-0.6-0.2
			c-0.2-0.1-0.4-0.1-0.6-0.1c-1.1,0-1.6,0.7-1.6,2c0,0.6,0.1,1.1,0.4,1.5c0.3,0.3,0.6,0.5,1.1,0.5c0.3,0,0.6,0,0.8-0.1
			c0.2-0.1,0.4-0.1,0.6-0.2v0.8c-0.2,0.1-0.4,0.2-0.6,0.2C834.8,58.4,834.5,58.4,834.2,58.4z"/>
		<path class="st4" d="M839,57.7c0.1,0,0.3,0,0.4,0c0.1,0,0.3,0,0.3-0.1v0.7c-0.1,0-0.2,0.1-0.4,0.1c-0.2,0-0.3,0-0.5,0
			c-0.3,0-0.5,0-0.8-0.1s-0.4-0.3-0.6-0.5s-0.2-0.6-0.2-1v-3.1h-0.8v-0.4l0.8-0.4l0.4-1.1h0.5V53h1.5v0.7h-1.5v3.1
			c0,0.3,0.1,0.6,0.2,0.7C838.6,57.6,838.8,57.7,839,57.7z"/>
		<path class="st4" d="M846.7,58.3l-2.4-6.3h0c0,0.2,0,0.5,0,0.8c0,0.3,0,0.7,0,1.1v4.3h-0.8v-7.1h1.3l2.2,5.8h0l2.2-5.8h1.3v7.1
			h-0.9V54c0-0.3,0-0.7,0-1s0-0.6,0-0.8h0l-2.4,6.2H846.7z"/>
		<path class="st4" d="M854.6,52.9c0.5,0,0.9,0.1,1.2,0.3c0.3,0.2,0.6,0.5,0.8,0.8c0.2,0.4,0.3,0.8,0.3,1.3v0.5h-3.7
			c0,0.6,0.2,1.1,0.5,1.4s0.7,0.5,1.2,0.5c0.3,0,0.6,0,0.9-0.1c0.3-0.1,0.5-0.2,0.8-0.3v0.8c-0.3,0.1-0.5,0.2-0.8,0.3
			s-0.6,0.1-1,0.1c-0.5,0-1-0.1-1.3-0.3c-0.4-0.2-0.7-0.5-0.9-0.9s-0.3-0.9-0.3-1.5c0-0.6,0.1-1.1,0.3-1.5c0.2-0.4,0.5-0.7,0.8-1
			S854.2,52.9,854.6,52.9z M854.6,53.6c-0.4,0-0.8,0.1-1,0.4c-0.2,0.3-0.4,0.6-0.4,1.1h2.7c0-0.5-0.1-0.8-0.3-1.1
			C855.4,53.7,855.1,53.6,854.6,53.6z"/>
		<path class="st4" d="M860.9,52.9c0.6,0,1.1,0.2,1.5,0.5c0.3,0.3,0.5,0.8,0.5,1.5v3.5h-0.9v-3.4c0-0.9-0.4-1.3-1.2-1.3
			c-0.6,0-1,0.2-1.2,0.5c-0.2,0.3-0.3,0.8-0.3,1.4v2.8h-0.9V53h0.7l0.1,0.7h0c0.2-0.3,0.4-0.5,0.7-0.6S860.5,52.9,860.9,52.9z"/>
		<path class="st4" d="M869,53v5.4h-0.7l-0.1-0.7h0c-0.2,0.3-0.4,0.5-0.7,0.6s-0.6,0.2-1,0.2c-0.6,0-1.1-0.2-1.5-0.5
			c-0.3-0.3-0.5-0.8-0.5-1.5V53h0.9v3.5c0,0.9,0.4,1.3,1.2,1.3c0.6,0,1-0.2,1.2-0.5c0.2-0.3,0.3-0.8,0.3-1.4V53H869z"/>
		<path class="st4" d="M875.4,58.3h-2.6v-0.5l0.8-0.2v-5.7l-0.8-0.2v-0.5h2.6v0.5l-0.8,0.2v5.7l0.8,0.2V58.3z"/>
		<path class="st4" d="M878.4,57.7c0.1,0,0.3,0,0.4,0c0.1,0,0.3,0,0.3-0.1v0.7c-0.1,0-0.2,0.1-0.4,0.1c-0.2,0-0.3,0-0.5,0
			c-0.3,0-0.5,0-0.8-0.1s-0.4-0.3-0.6-0.5s-0.2-0.6-0.2-1v-3.1h-0.8v-0.4l0.8-0.4l0.4-1.1h0.5V53h1.5v0.7h-1.5v3.1
			c0,0.3,0.1,0.6,0.2,0.7C878,57.6,878.2,57.7,878.4,57.7z"/>
		<path class="st4" d="M882.3,52.9c0.5,0,0.9,0.1,1.2,0.3c0.3,0.2,0.6,0.5,0.8,0.8c0.2,0.4,0.3,0.8,0.3,1.3v0.5h-3.7
			c0,0.6,0.2,1.1,0.5,1.4s0.7,0.5,1.2,0.5c0.3,0,0.6,0,0.9-0.1c0.3-0.1,0.5-0.2,0.8-0.3v0.8c-0.3,0.1-0.5,0.2-0.8,0.3
			s-0.6,0.1-1,0.1c-0.5,0-1-0.1-1.3-0.3c-0.4-0.2-0.7-0.5-0.9-0.9s-0.3-0.9-0.3-1.5c0-0.6,0.1-1.1,0.3-1.5c0.2-0.4,0.5-0.7,0.8-1
			S881.9,52.9,882.3,52.9z M882.3,53.6c-0.4,0-0.8,0.1-1,0.4c-0.2,0.3-0.4,0.6-0.4,1.1h2.7c0-0.5-0.1-0.8-0.3-1.1
			C883.1,53.7,882.8,53.6,882.3,53.6z"/>
		<path class="st4" d="M891.9,52.9c0.6,0,1.1,0.2,1.4,0.5c0.3,0.3,0.5,0.8,0.5,1.5v3.5h-0.9v-3.5c0-0.8-0.4-1.3-1.1-1.3
			c-0.5,0-0.9,0.1-1.1,0.5c-0.2,0.3-0.3,0.7-0.3,1.3v3h-0.9v-3.5c0-0.8-0.4-1.3-1.1-1.3c-0.5,0-0.9,0.2-1.1,0.5
			c-0.2,0.3-0.3,0.8-0.3,1.4v2.8H886V53h0.7l0.1,0.7h0c0.2-0.3,0.4-0.5,0.7-0.6s0.6-0.2,0.9-0.2c0.8,0,1.4,0.3,1.6,0.9h0
			c0.2-0.3,0.4-0.5,0.7-0.7C891.2,53,891.5,52.9,891.9,52.9z"/>
	</g>
	<g>
		<path class="st3" d="M983.3,237.8l1.5-2.9h1.6l-2.4,4.4v2.8h-1.5v-2.7l-2.4-4.4h1.6L983.3,237.8z"/>
	</g>
	<g>
		<path class="st3" d="M986.4,161h-1.9l-3.1-5.4h0c0,0.3,0,0.7,0,1s0,0.7,0,1v3.4h-1.3v-7.1h1.9l3.1,5.3h0c0-0.3,0-0.7,0-1
			c0-0.3,0-0.7,0-1v-3.4h1.4V161z"/>
	</g>
	<g>
		<path class="st3" d="M540.4,242.9h-1.9l-3.1-5.4h0c0,0.3,0,0.7,0,1s0,0.7,0,1v3.4h-1.3v-7.1h1.9l3.1,5.3h0c0-0.3,0-0.7,0-1
			c0-0.3,0-0.7,0-1v-3.4h1.4V242.9z"/>
	</g>
	<g>
		<path class="st3" d="M616,160.6l1.5-2.9h1.6l-2.4,4.4v2.8h-1.5v-2.7l-2.4-4.4h1.6L616,160.6z"/>
	</g>
	<g>
		<path class="st3" d="M972.3,73.9l-14.5,2.7c0,0,7.3,1.5,5.2,8.7L972.3,73.9"/>
	</g>
	<g>
		<path class="st3" d="M654,92.5l-5.1,13.9c0,0,5.1-5.5,10.1,0L654,92.5"/>
	</g>
	<path class="st3" d="M614.3,152.7c-0.1-0.6,0.3-1.1,0.9-1.1l0,0c0.6-0.1,1.1,0.3,1.1,0.8l0,0c0.1,0.6-0.3,1.1-0.9,1.1l0,0
		c0,0-0.1,0-0.1,0l0,0C614.8,153.6,614.4,153.2,614.3,152.7z M615.1,147.6c-0.6,0-1-0.5-0.9-1l0,0c0-0.6,0.5-1,1-1l0,0
		c0.6,0,1,0.5,0.9,1.1l0,0C616.1,147.2,615.7,147.6,615.1,147.6L615.1,147.6C615.2,147.6,615.1,147.6,615.1,147.6z M615.8,141.6
		c-0.5-0.1-0.9-0.7-0.7-1.2l0,0c0.1-0.5,0.7-0.9,1.2-0.7l0,0c0.5,0.1,0.9,0.7,0.7,1.2l0,0c-0.1,0.5-0.5,0.8-1,0.8l0,0
		C615.9,141.6,615.9,141.6,615.8,141.6z M617.6,135.9c-0.5-0.3-0.7-0.9-0.4-1.4l0,0c0.2-0.5,0.9-0.7,1.3-0.4l0,0
		c0.5,0.3,0.7,0.9,0.4,1.4l0,0c-0.2,0.3-0.5,0.5-0.9,0.5l0,0C617.9,136,617.8,136,617.6,135.9z M621,130.9c-0.4-0.4-0.4-1,0.1-1.4
		l0,0c0.4-0.4,1-0.4,1.4,0.1l0,0c0.4,0.4,0.4,1-0.1,1.4l0,0c-0.2,0.2-0.4,0.3-0.7,0.3l0,0C621.4,131.3,621.2,131.2,621,130.9z
		 M625.8,127.5c-0.2-0.5,0-1.1,0.6-1.3l0,0c0.5-0.2,1.1,0,1.3,0.6l0,0c0.2,0.5-0.1,1.1-0.6,1.3l0,0c-0.1,0.1-0.2,0.1-0.4,0.1l0,0
		C626.4,128.1,626,127.9,625.8,127.5z M631.6,125.8c0-0.6,0.4-1,0.9-1.1l0,0c0.6,0,1,0.4,1.1,0.9l0,0c0,0.6-0.4,1-0.9,1.1l0,0
		c0,0-0.1,0-0.1,0l0,0C632.1,126.7,631.6,126.4,631.6,125.8z M637.6,125.6c0-0.6,0.4-1,0.9-1.1l0,0l0,0l0,0c0.6,0,1,0.4,1.1,0.9l0,0
		c0,0.6-0.4,1-0.9,1.1l0,0c0,0-0.1,0-0.1,0l0,0C638.1,126.5,637.6,126.1,637.6,125.6z M643.5,124.8c-0.1-0.5,0.2-1.1,0.7-1.2l0,0
		c0.5-0.2,1.1,0.2,1.2,0.7l0,0c0.1,0.5-0.2,1.1-0.7,1.2l0,0c-0.1,0-0.2,0-0.3,0l0,0C644,125.6,643.6,125.3,643.5,124.8z
		 M649.1,122.7c-0.3-0.4-0.2-1.1,0.2-1.4l0,0c0.5-0.3,1.1-0.2,1.4,0.2l0,0c0.3,0.4,0.2,1.1-0.2,1.4l0,0c-0.2,0.1-0.4,0.2-0.6,0.2
		l0,0C649.6,123.1,649.3,123,649.1,122.7z M653.3,118.5c-0.5-0.2-0.8-0.8-0.5-1.3l0,0c0.2-0.5,0.8-0.8,1.3-0.5l0,0
		c0.5,0.2,0.8,0.8,0.5,1.3l0,0c-0.2,0.4-0.5,0.6-0.9,0.6l0,0C653.5,118.5,653.4,118.5,653.3,118.5z M653.4,111.8
		c0-0.5,0.4-1,0.9-1.1l0,0c0.5-0.1,1,0.3,1.1,0.9l0,0c0.1,0.6-0.3,1-0.9,1.1l0,0c0,0-0.1,0-0.1,0l0,0
		C653.9,112.7,653.5,112.3,653.4,111.8z"/>
	<path class="st3" d="M973.1,158.3c-0.5-0.2-0.7-0.8-0.5-1.3l0,0c0.2-0.5,0.8-0.7,1.3-0.5l0,0c0.5,0.2,0.7,0.8,0.5,1.3l0,0
		c-0.2,0.4-0.5,0.6-0.9,0.6l0,0C973.4,158.4,973.2,158.4,973.1,158.3z M967.7,155.3L967.7,155.3L967.7,155.3
		c-0.5-0.3-0.6-0.9-0.3-1.4l0,0c0.3-0.5,0.9-0.6,1.4-0.3l0,0c0.5,0.3,0.6,0.9,0.3,1.4l0,0c-0.2,0.3-0.5,0.5-0.8,0.5l0,0
		C968.1,155.5,967.9,155.4,967.7,155.3z M962.8,151.7L962.8,151.7L962.8,151.7c-0.4-0.3-0.5-1-0.1-1.4l0,0c0.3-0.4,1-0.5,1.4-0.2
		l0,0c0.4,0.4,0.5,1,0.2,1.4l0,0c-0.2,0.2-0.5,0.4-0.8,0.4l0,0C963.2,152,962.9,151.9,962.8,151.7z M958.2,147.7
		c-0.4-0.4-0.4-1,0-1.4l0,0c0.4-0.4,1-0.4,1.4,0l0,0c0.4,0.4,0.4,1,0,1.4l0,0c-0.2,0.2-0.5,0.3-0.7,0.3l0,0
		C958.6,148,958.4,147.9,958.2,147.7z M954.1,143.1c-0.4-0.4-0.3-1.1,0.2-1.4l0,0c0.4-0.4,1.1-0.3,1.4,0.1l0,0
		c0.3,0.4,0.3,1.1-0.2,1.4l0,0c-0.2,0.1-0.4,0.2-0.6,0.2l0,0C954.6,143.5,954.3,143.4,954.1,143.1z M950.6,138.1
		c-0.3-0.5-0.1-1.1,0.3-1.4l0,0c0.5-0.3,1.1-0.1,1.4,0.4l0,0c0.3,0.5,0.1,1.1-0.3,1.4l0,0c-0.2,0.1-0.3,0.1-0.5,0.1l0,0
		C951.1,138.6,950.8,138.4,950.6,138.1z M947.8,132.6c-0.2-0.5,0-1.1,0.5-1.3l0,0c0.5-0.2,1.1,0,1.3,0.5l0,0c0.2,0.5,0,1.1-0.5,1.3
		l0,0c-0.1,0.1-0.3,0.1-0.4,0.1l0,0C948.4,133.2,948,133,947.8,132.6z M945.9,126.8c-0.1-0.5,0.2-1.1,0.7-1.2l0,0
		c0.5-0.1,1.1,0.2,1.2,0.7l0,0c0.1,0.5-0.2,1.1-0.7,1.2l0,0c-0.1,0-0.2,0-0.2,0l0,0C946.4,127.5,946,127.2,945.9,126.8z
		 M944.9,120.7c0-0.6,0.4-1,0.9-1.1l0,0c0.6,0,1,0.4,1.1,0.9l0,0c0.1,0.6-0.3,1-0.9,1.1l0,0c0,0-0.1,0-0.1,0l0,0
		C945.3,121.6,944.9,121.3,944.9,120.7z M945.7,115.7c-0.6,0-1-0.5-1-1l0,0c0-0.5,0.5-1,1-1l0,0c0.6,0,1,0.5,1,1v0
		C946.7,115.2,946.2,115.7,945.7,115.7L945.7,115.7C945.7,115.7,945.7,115.7,945.7,115.7z M946.2,109.7c-0.5-0.1-0.9-0.6-0.8-1.1
		l0,0c0.1-0.5,0.6-0.9,1.2-0.8l0,0c0.5,0.1,0.9,0.6,0.8,1.2l0,0c-0.1,0.5-0.5,0.8-1,0.8l0,0C946.3,109.7,946.3,109.7,946.2,109.7z
		 M947.4,103.8c-0.5-0.1-0.8-0.7-0.7-1.2l0,0c0.1-0.5,0.7-0.8,1.2-0.7l0,0c0.5,0.1,0.8,0.7,0.7,1.2l0,0c-0.1,0.4-0.5,0.7-1,0.7l0,0
		C947.6,103.9,947.5,103.8,947.4,103.8z M949.3,98.1c-0.5-0.2-0.8-0.8-0.6-1.3l0,0c0.2-0.5,0.8-0.8,1.3-0.6l0,0
		c0.5,0.2,0.8,0.8,0.6,1.3l0,0c-0.2,0.4-0.5,0.6-0.9,0.6l0,0C949.5,98.2,949.4,98.2,949.3,98.1z M951.7,92.6
		c-0.5-0.2-0.7-0.8-0.4-1.3l0,0l0,0l0,0c0.2-0.5,0.8-0.7,1.3-0.4l0,0c0.5,0.2,0.7,0.8,0.5,1.3l0,0c-0.2,0.4-0.5,0.6-0.9,0.6l0,0
		C951.9,92.7,951.8,92.7,951.7,92.6z M954.4,87.3c-0.5-0.3-0.6-0.9-0.4-1.4l0,0c0,0,0,0,0,0l0,0c0.3-0.5,0.9-0.6,1.4-0.4l0,0
		c0.5,0.3,0.6,0.9,0.4,1.4l0,0c-0.2,0.3-0.5,0.5-0.9,0.5l0,0C954.8,87.4,954.6,87.4,954.4,87.3z"/>
</g>
</svg>
